%TF.GenerationSoftware,KiCad,Pcbnew,7.0.5*%
%TF.CreationDate,2024-05-08T14:59:28+07:00*%
%TF.ProjectId,Project232,50726f6a-6563-4743-9233-322e6b696361,rev?*%
%TF.SameCoordinates,Original*%
%TF.FileFunction,Legend,Top*%
%TF.FilePolarity,Positive*%
%FSLAX46Y46*%
G04 Gerber Fmt 4.6, Leading zero omitted, Abs format (unit mm)*
G04 Created by KiCad (PCBNEW 7.0.5) date 2024-05-08 14:59:28*
%MOMM*%
%LPD*%
G01*
G04 APERTURE LIST*
%ADD10C,0.150000*%
%ADD11C,0.076200*%
%ADD12C,0.254000*%
%ADD13C,0.101600*%
%ADD14C,0.177800*%
%ADD15C,0.100000*%
%ADD16C,0.120000*%
%ADD17C,0.152400*%
G04 APERTURE END LIST*
D10*
X132842000Y-67564000D02*
X143256000Y-67564000D01*
X132842000Y-67564000D02*
X132842000Y-66040000D01*
X145034000Y-67564000D02*
X155448000Y-67564000D01*
X123825000Y-67564000D02*
X126111000Y-67564000D01*
X129413000Y-135128000D02*
X129413000Y-134366000D01*
X145034000Y-67564000D02*
X145034000Y-66040000D01*
X130175000Y-135128000D02*
X129413000Y-135128000D01*
D11*
X146303762Y-67126821D02*
X146303762Y-66701069D01*
X146516638Y-66913945D02*
X146090886Y-66913945D01*
X145957838Y-66168878D02*
X145957838Y-66434973D01*
X145957838Y-66434973D02*
X146223933Y-66461582D01*
X146223933Y-66461582D02*
X146197324Y-66434973D01*
X146197324Y-66434973D02*
X146170714Y-66381754D01*
X146170714Y-66381754D02*
X146170714Y-66248706D01*
X146170714Y-66248706D02*
X146197324Y-66195487D01*
X146197324Y-66195487D02*
X146223933Y-66168878D01*
X146223933Y-66168878D02*
X146277152Y-66142268D01*
X146277152Y-66142268D02*
X146410200Y-66142268D01*
X146410200Y-66142268D02*
X146463419Y-66168878D01*
X146463419Y-66168878D02*
X146490029Y-66195487D01*
X146490029Y-66195487D02*
X146516638Y-66248706D01*
X146516638Y-66248706D02*
X146516638Y-66381754D01*
X146516638Y-66381754D02*
X146490029Y-66434973D01*
X146490029Y-66434973D02*
X146463419Y-66461582D01*
X145957838Y-65982611D02*
X146516638Y-65796345D01*
X146516638Y-65796345D02*
X145957838Y-65610078D01*
X148683452Y-66834116D02*
X148656842Y-66887335D01*
X148656842Y-66887335D02*
X148656842Y-66967164D01*
X148656842Y-66967164D02*
X148683452Y-67046992D01*
X148683452Y-67046992D02*
X148736671Y-67100211D01*
X148736671Y-67100211D02*
X148789890Y-67126821D01*
X148789890Y-67126821D02*
X148896328Y-67153430D01*
X148896328Y-67153430D02*
X148976156Y-67153430D01*
X148976156Y-67153430D02*
X149082594Y-67126821D01*
X149082594Y-67126821D02*
X149135813Y-67100211D01*
X149135813Y-67100211D02*
X149189033Y-67046992D01*
X149189033Y-67046992D02*
X149215642Y-66967164D01*
X149215642Y-66967164D02*
X149215642Y-66913945D01*
X149215642Y-66913945D02*
X149189033Y-66834116D01*
X149189033Y-66834116D02*
X149162423Y-66807507D01*
X149162423Y-66807507D02*
X148976156Y-66807507D01*
X148976156Y-66807507D02*
X148976156Y-66913945D01*
X149215642Y-66568021D02*
X148656842Y-66568021D01*
X148656842Y-66568021D02*
X149215642Y-66248707D01*
X149215642Y-66248707D02*
X148656842Y-66248707D01*
X149215642Y-65982611D02*
X148656842Y-65982611D01*
X148656842Y-65982611D02*
X148656842Y-65849563D01*
X148656842Y-65849563D02*
X148683452Y-65769735D01*
X148683452Y-65769735D02*
X148736671Y-65716516D01*
X148736671Y-65716516D02*
X148789890Y-65689906D01*
X148789890Y-65689906D02*
X148896328Y-65663297D01*
X148896328Y-65663297D02*
X148976156Y-65663297D01*
X148976156Y-65663297D02*
X149082594Y-65689906D01*
X149082594Y-65689906D02*
X149135813Y-65716516D01*
X149135813Y-65716516D02*
X149189033Y-65769735D01*
X149189033Y-65769735D02*
X149215642Y-65849563D01*
X149215642Y-65849563D02*
X149215642Y-65982611D01*
X151888037Y-67153430D02*
X151914646Y-67073602D01*
X151914646Y-67073602D02*
X151914646Y-66940554D01*
X151914646Y-66940554D02*
X151888037Y-66887335D01*
X151888037Y-66887335D02*
X151861427Y-66860726D01*
X151861427Y-66860726D02*
X151808208Y-66834116D01*
X151808208Y-66834116D02*
X151754989Y-66834116D01*
X151754989Y-66834116D02*
X151701770Y-66860726D01*
X151701770Y-66860726D02*
X151675160Y-66887335D01*
X151675160Y-66887335D02*
X151648551Y-66940554D01*
X151648551Y-66940554D02*
X151621941Y-67046992D01*
X151621941Y-67046992D02*
X151595332Y-67100211D01*
X151595332Y-67100211D02*
X151568722Y-67126821D01*
X151568722Y-67126821D02*
X151515503Y-67153430D01*
X151515503Y-67153430D02*
X151462284Y-67153430D01*
X151462284Y-67153430D02*
X151409065Y-67126821D01*
X151409065Y-67126821D02*
X151382456Y-67100211D01*
X151382456Y-67100211D02*
X151355846Y-67046992D01*
X151355846Y-67046992D02*
X151355846Y-66913945D01*
X151355846Y-66913945D02*
X151382456Y-66834116D01*
X151914646Y-66594631D02*
X151355846Y-66594631D01*
X151355846Y-66594631D02*
X151355846Y-66461583D01*
X151355846Y-66461583D02*
X151382456Y-66381755D01*
X151382456Y-66381755D02*
X151435675Y-66328536D01*
X151435675Y-66328536D02*
X151488894Y-66301926D01*
X151488894Y-66301926D02*
X151595332Y-66275317D01*
X151595332Y-66275317D02*
X151675160Y-66275317D01*
X151675160Y-66275317D02*
X151781598Y-66301926D01*
X151781598Y-66301926D02*
X151834817Y-66328536D01*
X151834817Y-66328536D02*
X151888037Y-66381755D01*
X151888037Y-66381755D02*
X151914646Y-66461583D01*
X151914646Y-66461583D02*
X151914646Y-66594631D01*
X151754989Y-66062440D02*
X151754989Y-65796345D01*
X151914646Y-66115659D02*
X151355846Y-65929393D01*
X151355846Y-65929393D02*
X151914646Y-65743126D01*
X154587041Y-67153430D02*
X154613650Y-67073602D01*
X154613650Y-67073602D02*
X154613650Y-66940554D01*
X154613650Y-66940554D02*
X154587041Y-66887335D01*
X154587041Y-66887335D02*
X154560431Y-66860726D01*
X154560431Y-66860726D02*
X154507212Y-66834116D01*
X154507212Y-66834116D02*
X154453993Y-66834116D01*
X154453993Y-66834116D02*
X154400774Y-66860726D01*
X154400774Y-66860726D02*
X154374164Y-66887335D01*
X154374164Y-66887335D02*
X154347555Y-66940554D01*
X154347555Y-66940554D02*
X154320945Y-67046992D01*
X154320945Y-67046992D02*
X154294336Y-67100211D01*
X154294336Y-67100211D02*
X154267726Y-67126821D01*
X154267726Y-67126821D02*
X154214507Y-67153430D01*
X154214507Y-67153430D02*
X154161288Y-67153430D01*
X154161288Y-67153430D02*
X154108069Y-67126821D01*
X154108069Y-67126821D02*
X154081460Y-67100211D01*
X154081460Y-67100211D02*
X154054850Y-67046992D01*
X154054850Y-67046992D02*
X154054850Y-66913945D01*
X154054850Y-66913945D02*
X154081460Y-66834116D01*
X154560431Y-66275317D02*
X154587041Y-66301926D01*
X154587041Y-66301926D02*
X154613650Y-66381755D01*
X154613650Y-66381755D02*
X154613650Y-66434974D01*
X154613650Y-66434974D02*
X154587041Y-66514802D01*
X154587041Y-66514802D02*
X154533821Y-66568021D01*
X154533821Y-66568021D02*
X154480602Y-66594631D01*
X154480602Y-66594631D02*
X154374164Y-66621240D01*
X154374164Y-66621240D02*
X154294336Y-66621240D01*
X154294336Y-66621240D02*
X154187898Y-66594631D01*
X154187898Y-66594631D02*
X154134679Y-66568021D01*
X154134679Y-66568021D02*
X154081460Y-66514802D01*
X154081460Y-66514802D02*
X154054850Y-66434974D01*
X154054850Y-66434974D02*
X154054850Y-66381755D01*
X154054850Y-66381755D02*
X154081460Y-66301926D01*
X154081460Y-66301926D02*
X154108069Y-66275317D01*
X154613650Y-65769736D02*
X154613650Y-66035831D01*
X154613650Y-66035831D02*
X154054850Y-66035831D01*
D12*
X96498036Y-122446288D02*
X95336894Y-122446288D01*
X95917465Y-121865716D02*
X95917465Y-123026859D01*
X170963962Y-111233712D02*
X172125105Y-111233712D01*
X171544533Y-111814283D02*
X171544533Y-110653140D01*
D13*
X123692270Y-66558318D02*
X123801127Y-66594604D01*
X123801127Y-66594604D02*
X123837413Y-66630890D01*
X123837413Y-66630890D02*
X123873699Y-66703461D01*
X123873699Y-66703461D02*
X123873699Y-66812318D01*
X123873699Y-66812318D02*
X123837413Y-66884890D01*
X123837413Y-66884890D02*
X123801127Y-66921176D01*
X123801127Y-66921176D02*
X123728556Y-66957461D01*
X123728556Y-66957461D02*
X123438270Y-66957461D01*
X123438270Y-66957461D02*
X123438270Y-66195461D01*
X123438270Y-66195461D02*
X123692270Y-66195461D01*
X123692270Y-66195461D02*
X123764842Y-66231747D01*
X123764842Y-66231747D02*
X123801127Y-66268033D01*
X123801127Y-66268033D02*
X123837413Y-66340604D01*
X123837413Y-66340604D02*
X123837413Y-66413176D01*
X123837413Y-66413176D02*
X123801127Y-66485747D01*
X123801127Y-66485747D02*
X123764842Y-66522033D01*
X123764842Y-66522033D02*
X123692270Y-66558318D01*
X123692270Y-66558318D02*
X123438270Y-66558318D01*
X124345413Y-66195461D02*
X124490556Y-66195461D01*
X124490556Y-66195461D02*
X124563127Y-66231747D01*
X124563127Y-66231747D02*
X124635699Y-66304318D01*
X124635699Y-66304318D02*
X124671984Y-66449461D01*
X124671984Y-66449461D02*
X124671984Y-66703461D01*
X124671984Y-66703461D02*
X124635699Y-66848604D01*
X124635699Y-66848604D02*
X124563127Y-66921176D01*
X124563127Y-66921176D02*
X124490556Y-66957461D01*
X124490556Y-66957461D02*
X124345413Y-66957461D01*
X124345413Y-66957461D02*
X124272842Y-66921176D01*
X124272842Y-66921176D02*
X124200270Y-66848604D01*
X124200270Y-66848604D02*
X124163984Y-66703461D01*
X124163984Y-66703461D02*
X124163984Y-66449461D01*
X124163984Y-66449461D02*
X124200270Y-66304318D01*
X124200270Y-66304318D02*
X124272842Y-66231747D01*
X124272842Y-66231747D02*
X124345413Y-66195461D01*
X125143699Y-66195461D02*
X125288842Y-66195461D01*
X125288842Y-66195461D02*
X125361413Y-66231747D01*
X125361413Y-66231747D02*
X125433985Y-66304318D01*
X125433985Y-66304318D02*
X125470270Y-66449461D01*
X125470270Y-66449461D02*
X125470270Y-66703461D01*
X125470270Y-66703461D02*
X125433985Y-66848604D01*
X125433985Y-66848604D02*
X125361413Y-66921176D01*
X125361413Y-66921176D02*
X125288842Y-66957461D01*
X125288842Y-66957461D02*
X125143699Y-66957461D01*
X125143699Y-66957461D02*
X125071128Y-66921176D01*
X125071128Y-66921176D02*
X124998556Y-66848604D01*
X124998556Y-66848604D02*
X124962270Y-66703461D01*
X124962270Y-66703461D02*
X124962270Y-66449461D01*
X124962270Y-66449461D02*
X124998556Y-66304318D01*
X124998556Y-66304318D02*
X125071128Y-66231747D01*
X125071128Y-66231747D02*
X125143699Y-66195461D01*
X125687985Y-66195461D02*
X126123414Y-66195461D01*
X125905699Y-66957461D02*
X125905699Y-66195461D01*
X126957984Y-66957461D02*
X126957984Y-66195461D01*
X126957984Y-66195461D02*
X127211984Y-66739747D01*
X127211984Y-66739747D02*
X127465984Y-66195461D01*
X127465984Y-66195461D02*
X127465984Y-66957461D01*
X127973984Y-66195461D02*
X128119127Y-66195461D01*
X128119127Y-66195461D02*
X128191698Y-66231747D01*
X128191698Y-66231747D02*
X128264270Y-66304318D01*
X128264270Y-66304318D02*
X128300555Y-66449461D01*
X128300555Y-66449461D02*
X128300555Y-66703461D01*
X128300555Y-66703461D02*
X128264270Y-66848604D01*
X128264270Y-66848604D02*
X128191698Y-66921176D01*
X128191698Y-66921176D02*
X128119127Y-66957461D01*
X128119127Y-66957461D02*
X127973984Y-66957461D01*
X127973984Y-66957461D02*
X127901413Y-66921176D01*
X127901413Y-66921176D02*
X127828841Y-66848604D01*
X127828841Y-66848604D02*
X127792555Y-66703461D01*
X127792555Y-66703461D02*
X127792555Y-66449461D01*
X127792555Y-66449461D02*
X127828841Y-66304318D01*
X127828841Y-66304318D02*
X127901413Y-66231747D01*
X127901413Y-66231747D02*
X127973984Y-66195461D01*
X128627127Y-66957461D02*
X128627127Y-66195461D01*
X128627127Y-66195461D02*
X128808556Y-66195461D01*
X128808556Y-66195461D02*
X128917413Y-66231747D01*
X128917413Y-66231747D02*
X128989984Y-66304318D01*
X128989984Y-66304318D02*
X129026270Y-66376890D01*
X129026270Y-66376890D02*
X129062556Y-66522033D01*
X129062556Y-66522033D02*
X129062556Y-66630890D01*
X129062556Y-66630890D02*
X129026270Y-66776033D01*
X129026270Y-66776033D02*
X128989984Y-66848604D01*
X128989984Y-66848604D02*
X128917413Y-66921176D01*
X128917413Y-66921176D02*
X128808556Y-66957461D01*
X128808556Y-66957461D02*
X128627127Y-66957461D01*
X129389127Y-66558318D02*
X129643127Y-66558318D01*
X129751984Y-66957461D02*
X129389127Y-66957461D01*
X129389127Y-66957461D02*
X129389127Y-66195461D01*
X129389127Y-66195461D02*
X129751984Y-66195461D01*
D12*
X96030288Y-127275962D02*
X96030288Y-128437105D01*
D11*
X133511838Y-67206649D02*
X134070638Y-67020383D01*
X134070638Y-67020383D02*
X133511838Y-66834116D01*
X134017419Y-66328536D02*
X134044029Y-66355145D01*
X134044029Y-66355145D02*
X134070638Y-66434974D01*
X134070638Y-66434974D02*
X134070638Y-66488193D01*
X134070638Y-66488193D02*
X134044029Y-66568021D01*
X134044029Y-66568021D02*
X133990809Y-66621240D01*
X133990809Y-66621240D02*
X133937590Y-66647850D01*
X133937590Y-66647850D02*
X133831152Y-66674459D01*
X133831152Y-66674459D02*
X133751324Y-66674459D01*
X133751324Y-66674459D02*
X133644886Y-66647850D01*
X133644886Y-66647850D02*
X133591667Y-66621240D01*
X133591667Y-66621240D02*
X133538448Y-66568021D01*
X133538448Y-66568021D02*
X133511838Y-66488193D01*
X133511838Y-66488193D02*
X133511838Y-66434974D01*
X133511838Y-66434974D02*
X133538448Y-66355145D01*
X133538448Y-66355145D02*
X133565057Y-66328536D01*
X134017419Y-65769736D02*
X134044029Y-65796345D01*
X134044029Y-65796345D02*
X134070638Y-65876174D01*
X134070638Y-65876174D02*
X134070638Y-65929393D01*
X134070638Y-65929393D02*
X134044029Y-66009221D01*
X134044029Y-66009221D02*
X133990809Y-66062440D01*
X133990809Y-66062440D02*
X133937590Y-66089050D01*
X133937590Y-66089050D02*
X133831152Y-66115659D01*
X133831152Y-66115659D02*
X133751324Y-66115659D01*
X133751324Y-66115659D02*
X133644886Y-66089050D01*
X133644886Y-66089050D02*
X133591667Y-66062440D01*
X133591667Y-66062440D02*
X133538448Y-66009221D01*
X133538448Y-66009221D02*
X133511838Y-65929393D01*
X133511838Y-65929393D02*
X133511838Y-65876174D01*
X133511838Y-65876174D02*
X133538448Y-65796345D01*
X133538448Y-65796345D02*
X133565057Y-65769736D01*
X136769642Y-67126821D02*
X136210842Y-67126821D01*
X136210842Y-67126821D02*
X136210842Y-66993773D01*
X136210842Y-66993773D02*
X136237452Y-66913945D01*
X136237452Y-66913945D02*
X136290671Y-66860726D01*
X136290671Y-66860726D02*
X136343890Y-66834116D01*
X136343890Y-66834116D02*
X136450328Y-66807507D01*
X136450328Y-66807507D02*
X136530156Y-66807507D01*
X136530156Y-66807507D02*
X136636594Y-66834116D01*
X136636594Y-66834116D02*
X136689813Y-66860726D01*
X136689813Y-66860726D02*
X136743033Y-66913945D01*
X136743033Y-66913945D02*
X136769642Y-66993773D01*
X136769642Y-66993773D02*
X136769642Y-67126821D01*
X136769642Y-66568021D02*
X136210842Y-66568021D01*
X136210842Y-66195488D02*
X136210842Y-66089050D01*
X136210842Y-66089050D02*
X136237452Y-66035831D01*
X136237452Y-66035831D02*
X136290671Y-65982612D01*
X136290671Y-65982612D02*
X136397109Y-65956002D01*
X136397109Y-65956002D02*
X136583375Y-65956002D01*
X136583375Y-65956002D02*
X136689813Y-65982612D01*
X136689813Y-65982612D02*
X136743033Y-66035831D01*
X136743033Y-66035831D02*
X136769642Y-66089050D01*
X136769642Y-66089050D02*
X136769642Y-66195488D01*
X136769642Y-66195488D02*
X136743033Y-66248707D01*
X136743033Y-66248707D02*
X136689813Y-66301926D01*
X136689813Y-66301926D02*
X136583375Y-66328535D01*
X136583375Y-66328535D02*
X136397109Y-66328535D01*
X136397109Y-66328535D02*
X136290671Y-66301926D01*
X136290671Y-66301926D02*
X136237452Y-66248707D01*
X136237452Y-66248707D02*
X136210842Y-66195488D01*
X139415427Y-66807507D02*
X139442037Y-66834116D01*
X139442037Y-66834116D02*
X139468646Y-66913945D01*
X139468646Y-66913945D02*
X139468646Y-66967164D01*
X139468646Y-66967164D02*
X139442037Y-67046992D01*
X139442037Y-67046992D02*
X139388817Y-67100211D01*
X139388817Y-67100211D02*
X139335598Y-67126821D01*
X139335598Y-67126821D02*
X139229160Y-67153430D01*
X139229160Y-67153430D02*
X139149332Y-67153430D01*
X139149332Y-67153430D02*
X139042894Y-67126821D01*
X139042894Y-67126821D02*
X138989675Y-67100211D01*
X138989675Y-67100211D02*
X138936456Y-67046992D01*
X138936456Y-67046992D02*
X138909846Y-66967164D01*
X138909846Y-66967164D02*
X138909846Y-66913945D01*
X138909846Y-66913945D02*
X138936456Y-66834116D01*
X138936456Y-66834116D02*
X138963065Y-66807507D01*
X139468646Y-66301926D02*
X139468646Y-66568021D01*
X139468646Y-66568021D02*
X138909846Y-66568021D01*
X139468646Y-66115659D02*
X138909846Y-66115659D01*
X139468646Y-65796345D02*
X139149332Y-66035830D01*
X138909846Y-65796345D02*
X139229160Y-66115659D01*
X141635460Y-66834116D02*
X141608850Y-66887335D01*
X141608850Y-66887335D02*
X141608850Y-66967164D01*
X141608850Y-66967164D02*
X141635460Y-67046992D01*
X141635460Y-67046992D02*
X141688679Y-67100211D01*
X141688679Y-67100211D02*
X141741898Y-67126821D01*
X141741898Y-67126821D02*
X141848336Y-67153430D01*
X141848336Y-67153430D02*
X141928164Y-67153430D01*
X141928164Y-67153430D02*
X142034602Y-67126821D01*
X142034602Y-67126821D02*
X142087821Y-67100211D01*
X142087821Y-67100211D02*
X142141041Y-67046992D01*
X142141041Y-67046992D02*
X142167650Y-66967164D01*
X142167650Y-66967164D02*
X142167650Y-66913945D01*
X142167650Y-66913945D02*
X142141041Y-66834116D01*
X142141041Y-66834116D02*
X142114431Y-66807507D01*
X142114431Y-66807507D02*
X141928164Y-66807507D01*
X141928164Y-66807507D02*
X141928164Y-66913945D01*
X142167650Y-66568021D02*
X141608850Y-66568021D01*
X141608850Y-66568021D02*
X142167650Y-66248707D01*
X142167650Y-66248707D02*
X141608850Y-66248707D01*
X142167650Y-65982611D02*
X141608850Y-65982611D01*
X141608850Y-65982611D02*
X141608850Y-65849563D01*
X141608850Y-65849563D02*
X141635460Y-65769735D01*
X141635460Y-65769735D02*
X141688679Y-65716516D01*
X141688679Y-65716516D02*
X141741898Y-65689906D01*
X141741898Y-65689906D02*
X141848336Y-65663297D01*
X141848336Y-65663297D02*
X141928164Y-65663297D01*
X141928164Y-65663297D02*
X142034602Y-65689906D01*
X142034602Y-65689906D02*
X142087821Y-65716516D01*
X142087821Y-65716516D02*
X142141041Y-65769735D01*
X142141041Y-65769735D02*
X142167650Y-65849563D01*
X142167650Y-65849563D02*
X142167650Y-65982611D01*
D12*
X171431712Y-106404037D02*
X171431712Y-105242895D01*
D14*
X160206092Y-111933312D02*
X160266568Y-111751884D01*
X160266568Y-111751884D02*
X160327044Y-111691407D01*
X160327044Y-111691407D02*
X160447996Y-111630931D01*
X160447996Y-111630931D02*
X160629425Y-111630931D01*
X160629425Y-111630931D02*
X160750377Y-111691407D01*
X160750377Y-111691407D02*
X160810854Y-111751884D01*
X160810854Y-111751884D02*
X160871330Y-111872836D01*
X160871330Y-111872836D02*
X160871330Y-112356646D01*
X160871330Y-112356646D02*
X159601330Y-112356646D01*
X159601330Y-112356646D02*
X159601330Y-111933312D01*
X159601330Y-111933312D02*
X159661806Y-111812360D01*
X159661806Y-111812360D02*
X159722282Y-111751884D01*
X159722282Y-111751884D02*
X159843234Y-111691407D01*
X159843234Y-111691407D02*
X159964187Y-111691407D01*
X159964187Y-111691407D02*
X160085139Y-111751884D01*
X160085139Y-111751884D02*
X160145615Y-111812360D01*
X160145615Y-111812360D02*
X160206092Y-111933312D01*
X160206092Y-111933312D02*
X160206092Y-112356646D01*
X160508473Y-111147122D02*
X160508473Y-110542360D01*
X160871330Y-111268074D02*
X159601330Y-110844741D01*
X159601330Y-110844741D02*
X160871330Y-110421407D01*
X159601330Y-110179503D02*
X159601330Y-109453789D01*
X160871330Y-109816646D02*
X159601330Y-109816646D01*
X159601330Y-109211884D02*
X159601330Y-108486170D01*
X160871330Y-108849027D02*
X159601330Y-108849027D01*
X160206092Y-108062837D02*
X160206092Y-107639503D01*
X160871330Y-107458075D02*
X160871330Y-108062837D01*
X160871330Y-108062837D02*
X159601330Y-108062837D01*
X159601330Y-108062837D02*
X159601330Y-107458075D01*
X160871330Y-106188074D02*
X160266568Y-106611408D01*
X160871330Y-106913789D02*
X159601330Y-106913789D01*
X159601330Y-106913789D02*
X159601330Y-106429979D01*
X159601330Y-106429979D02*
X159661806Y-106309027D01*
X159661806Y-106309027D02*
X159722282Y-106248550D01*
X159722282Y-106248550D02*
X159843234Y-106188074D01*
X159843234Y-106188074D02*
X160024663Y-106188074D01*
X160024663Y-106188074D02*
X160145615Y-106248550D01*
X160145615Y-106248550D02*
X160206092Y-106309027D01*
X160206092Y-106309027D02*
X160266568Y-106429979D01*
X160266568Y-106429979D02*
X160266568Y-106913789D01*
X160266568Y-105401884D02*
X160871330Y-105401884D01*
X159601330Y-105825217D02*
X160266568Y-105401884D01*
X160266568Y-105401884D02*
X159601330Y-104978550D01*
D12*
X171936036Y-116858288D02*
X170774894Y-116858288D01*
X171355465Y-116277716D02*
X171355465Y-117438859D01*
X171468288Y-121687962D02*
X171468288Y-122849105D01*
D13*
X112879127Y-66957461D02*
X112516270Y-66957461D01*
X112516270Y-66957461D02*
X112516270Y-66195461D01*
X113278270Y-66195461D02*
X113423413Y-66195461D01*
X113423413Y-66195461D02*
X113495984Y-66231747D01*
X113495984Y-66231747D02*
X113568556Y-66304318D01*
X113568556Y-66304318D02*
X113604841Y-66449461D01*
X113604841Y-66449461D02*
X113604841Y-66703461D01*
X113604841Y-66703461D02*
X113568556Y-66848604D01*
X113568556Y-66848604D02*
X113495984Y-66921176D01*
X113495984Y-66921176D02*
X113423413Y-66957461D01*
X113423413Y-66957461D02*
X113278270Y-66957461D01*
X113278270Y-66957461D02*
X113205699Y-66921176D01*
X113205699Y-66921176D02*
X113133127Y-66848604D01*
X113133127Y-66848604D02*
X113096841Y-66703461D01*
X113096841Y-66703461D02*
X113096841Y-66449461D01*
X113096841Y-66449461D02*
X113133127Y-66304318D01*
X113133127Y-66304318D02*
X113205699Y-66231747D01*
X113205699Y-66231747D02*
X113278270Y-66195461D01*
X113895127Y-66739747D02*
X114257985Y-66739747D01*
X113822556Y-66957461D02*
X114076556Y-66195461D01*
X114076556Y-66195461D02*
X114330556Y-66957461D01*
X114584556Y-66957461D02*
X114584556Y-66195461D01*
X114584556Y-66195461D02*
X114765985Y-66195461D01*
X114765985Y-66195461D02*
X114874842Y-66231747D01*
X114874842Y-66231747D02*
X114947413Y-66304318D01*
X114947413Y-66304318D02*
X114983699Y-66376890D01*
X114983699Y-66376890D02*
X115019985Y-66522033D01*
X115019985Y-66522033D02*
X115019985Y-66630890D01*
X115019985Y-66630890D02*
X114983699Y-66776033D01*
X114983699Y-66776033D02*
X114947413Y-66848604D01*
X114947413Y-66848604D02*
X114874842Y-66921176D01*
X114874842Y-66921176D02*
X114765985Y-66957461D01*
X114765985Y-66957461D02*
X114584556Y-66957461D01*
X116362556Y-66884890D02*
X116326270Y-66921176D01*
X116326270Y-66921176D02*
X116217413Y-66957461D01*
X116217413Y-66957461D02*
X116144841Y-66957461D01*
X116144841Y-66957461D02*
X116035984Y-66921176D01*
X116035984Y-66921176D02*
X115963413Y-66848604D01*
X115963413Y-66848604D02*
X115927127Y-66776033D01*
X115927127Y-66776033D02*
X115890841Y-66630890D01*
X115890841Y-66630890D02*
X115890841Y-66522033D01*
X115890841Y-66522033D02*
X115927127Y-66376890D01*
X115927127Y-66376890D02*
X115963413Y-66304318D01*
X115963413Y-66304318D02*
X116035984Y-66231747D01*
X116035984Y-66231747D02*
X116144841Y-66195461D01*
X116144841Y-66195461D02*
X116217413Y-66195461D01*
X116217413Y-66195461D02*
X116326270Y-66231747D01*
X116326270Y-66231747D02*
X116362556Y-66268033D01*
X116689127Y-66957461D02*
X116689127Y-66195461D01*
X116689127Y-66558318D02*
X117124556Y-66558318D01*
X117124556Y-66957461D02*
X117124556Y-66195461D01*
X117487413Y-66558318D02*
X117741413Y-66558318D01*
X117850270Y-66957461D02*
X117487413Y-66957461D01*
X117487413Y-66957461D02*
X117487413Y-66195461D01*
X117487413Y-66195461D02*
X117850270Y-66195461D01*
X118612271Y-66884890D02*
X118575985Y-66921176D01*
X118575985Y-66921176D02*
X118467128Y-66957461D01*
X118467128Y-66957461D02*
X118394556Y-66957461D01*
X118394556Y-66957461D02*
X118285699Y-66921176D01*
X118285699Y-66921176D02*
X118213128Y-66848604D01*
X118213128Y-66848604D02*
X118176842Y-66776033D01*
X118176842Y-66776033D02*
X118140556Y-66630890D01*
X118140556Y-66630890D02*
X118140556Y-66522033D01*
X118140556Y-66522033D02*
X118176842Y-66376890D01*
X118176842Y-66376890D02*
X118213128Y-66304318D01*
X118213128Y-66304318D02*
X118285699Y-66231747D01*
X118285699Y-66231747D02*
X118394556Y-66195461D01*
X118394556Y-66195461D02*
X118467128Y-66195461D01*
X118467128Y-66195461D02*
X118575985Y-66231747D01*
X118575985Y-66231747D02*
X118612271Y-66268033D01*
X118938842Y-66957461D02*
X118938842Y-66195461D01*
X119374271Y-66957461D02*
X119047699Y-66522033D01*
X119374271Y-66195461D02*
X118938842Y-66630890D01*
X99920538Y-78153699D02*
X100283395Y-77899699D01*
X99920538Y-77718270D02*
X100682538Y-77718270D01*
X100682538Y-77718270D02*
X100682538Y-78008556D01*
X100682538Y-78008556D02*
X100646252Y-78081127D01*
X100646252Y-78081127D02*
X100609966Y-78117413D01*
X100609966Y-78117413D02*
X100537395Y-78153699D01*
X100537395Y-78153699D02*
X100428538Y-78153699D01*
X100428538Y-78153699D02*
X100355966Y-78117413D01*
X100355966Y-78117413D02*
X100319681Y-78081127D01*
X100319681Y-78081127D02*
X100283395Y-78008556D01*
X100283395Y-78008556D02*
X100283395Y-77718270D01*
X100319681Y-78480270D02*
X100319681Y-78734270D01*
X99920538Y-78843127D02*
X99920538Y-78480270D01*
X99920538Y-78480270D02*
X100682538Y-78480270D01*
X100682538Y-78480270D02*
X100682538Y-78843127D01*
X99956824Y-79133413D02*
X99920538Y-79242271D01*
X99920538Y-79242271D02*
X99920538Y-79423699D01*
X99920538Y-79423699D02*
X99956824Y-79496271D01*
X99956824Y-79496271D02*
X99993109Y-79532556D01*
X99993109Y-79532556D02*
X100065681Y-79568842D01*
X100065681Y-79568842D02*
X100138252Y-79568842D01*
X100138252Y-79568842D02*
X100210824Y-79532556D01*
X100210824Y-79532556D02*
X100247109Y-79496271D01*
X100247109Y-79496271D02*
X100283395Y-79423699D01*
X100283395Y-79423699D02*
X100319681Y-79278556D01*
X100319681Y-79278556D02*
X100355966Y-79205985D01*
X100355966Y-79205985D02*
X100392252Y-79169699D01*
X100392252Y-79169699D02*
X100464824Y-79133413D01*
X100464824Y-79133413D02*
X100537395Y-79133413D01*
X100537395Y-79133413D02*
X100609966Y-79169699D01*
X100609966Y-79169699D02*
X100646252Y-79205985D01*
X100646252Y-79205985D02*
X100682538Y-79278556D01*
X100682538Y-79278556D02*
X100682538Y-79459985D01*
X100682538Y-79459985D02*
X100646252Y-79568842D01*
X100319681Y-79895413D02*
X100319681Y-80149413D01*
X99920538Y-80258270D02*
X99920538Y-79895413D01*
X99920538Y-79895413D02*
X100682538Y-79895413D01*
X100682538Y-79895413D02*
X100682538Y-80258270D01*
X100682538Y-80475985D02*
X100682538Y-80911414D01*
X99920538Y-80693699D02*
X100682538Y-80693699D01*
D14*
X161125330Y-120895884D02*
X161125330Y-121500646D01*
X161125330Y-121500646D02*
X159855330Y-121500646D01*
X159855330Y-120230646D02*
X159855330Y-119988741D01*
X159855330Y-119988741D02*
X159915806Y-119867789D01*
X159915806Y-119867789D02*
X160036758Y-119746836D01*
X160036758Y-119746836D02*
X160278663Y-119686360D01*
X160278663Y-119686360D02*
X160701996Y-119686360D01*
X160701996Y-119686360D02*
X160943901Y-119746836D01*
X160943901Y-119746836D02*
X161064854Y-119867789D01*
X161064854Y-119867789D02*
X161125330Y-119988741D01*
X161125330Y-119988741D02*
X161125330Y-120230646D01*
X161125330Y-120230646D02*
X161064854Y-120351598D01*
X161064854Y-120351598D02*
X160943901Y-120472551D01*
X160943901Y-120472551D02*
X160701996Y-120533027D01*
X160701996Y-120533027D02*
X160278663Y-120533027D01*
X160278663Y-120533027D02*
X160036758Y-120472551D01*
X160036758Y-120472551D02*
X159915806Y-120351598D01*
X159915806Y-120351598D02*
X159855330Y-120230646D01*
X160762473Y-119202551D02*
X160762473Y-118597789D01*
X161125330Y-119323503D02*
X159855330Y-118900170D01*
X159855330Y-118900170D02*
X161125330Y-118476836D01*
X161125330Y-118053504D02*
X159855330Y-118053504D01*
X159855330Y-118053504D02*
X159855330Y-117751123D01*
X159855330Y-117751123D02*
X159915806Y-117569694D01*
X159915806Y-117569694D02*
X160036758Y-117448742D01*
X160036758Y-117448742D02*
X160157711Y-117388265D01*
X160157711Y-117388265D02*
X160399615Y-117327789D01*
X160399615Y-117327789D02*
X160581044Y-117327789D01*
X160581044Y-117327789D02*
X160822949Y-117388265D01*
X160822949Y-117388265D02*
X160943901Y-117448742D01*
X160943901Y-117448742D02*
X161064854Y-117569694D01*
X161064854Y-117569694D02*
X161125330Y-117751123D01*
X161125330Y-117751123D02*
X161125330Y-118053504D01*
D10*
%TO.C,C25*%
X140835142Y-97768580D02*
X140787523Y-97816200D01*
X140787523Y-97816200D02*
X140644666Y-97863819D01*
X140644666Y-97863819D02*
X140549428Y-97863819D01*
X140549428Y-97863819D02*
X140406571Y-97816200D01*
X140406571Y-97816200D02*
X140311333Y-97720961D01*
X140311333Y-97720961D02*
X140263714Y-97625723D01*
X140263714Y-97625723D02*
X140216095Y-97435247D01*
X140216095Y-97435247D02*
X140216095Y-97292390D01*
X140216095Y-97292390D02*
X140263714Y-97101914D01*
X140263714Y-97101914D02*
X140311333Y-97006676D01*
X140311333Y-97006676D02*
X140406571Y-96911438D01*
X140406571Y-96911438D02*
X140549428Y-96863819D01*
X140549428Y-96863819D02*
X140644666Y-96863819D01*
X140644666Y-96863819D02*
X140787523Y-96911438D01*
X140787523Y-96911438D02*
X140835142Y-96959057D01*
X141216095Y-96959057D02*
X141263714Y-96911438D01*
X141263714Y-96911438D02*
X141358952Y-96863819D01*
X141358952Y-96863819D02*
X141597047Y-96863819D01*
X141597047Y-96863819D02*
X141692285Y-96911438D01*
X141692285Y-96911438D02*
X141739904Y-96959057D01*
X141739904Y-96959057D02*
X141787523Y-97054295D01*
X141787523Y-97054295D02*
X141787523Y-97149533D01*
X141787523Y-97149533D02*
X141739904Y-97292390D01*
X141739904Y-97292390D02*
X141168476Y-97863819D01*
X141168476Y-97863819D02*
X141787523Y-97863819D01*
X142692285Y-96863819D02*
X142216095Y-96863819D01*
X142216095Y-96863819D02*
X142168476Y-97340009D01*
X142168476Y-97340009D02*
X142216095Y-97292390D01*
X142216095Y-97292390D02*
X142311333Y-97244771D01*
X142311333Y-97244771D02*
X142549428Y-97244771D01*
X142549428Y-97244771D02*
X142644666Y-97292390D01*
X142644666Y-97292390D02*
X142692285Y-97340009D01*
X142692285Y-97340009D02*
X142739904Y-97435247D01*
X142739904Y-97435247D02*
X142739904Y-97673342D01*
X142739904Y-97673342D02*
X142692285Y-97768580D01*
X142692285Y-97768580D02*
X142644666Y-97816200D01*
X142644666Y-97816200D02*
X142549428Y-97863819D01*
X142549428Y-97863819D02*
X142311333Y-97863819D01*
X142311333Y-97863819D02*
X142216095Y-97816200D01*
X142216095Y-97816200D02*
X142168476Y-97768580D01*
%TO.C,C4*%
X134107580Y-87062666D02*
X134155200Y-87110285D01*
X134155200Y-87110285D02*
X134202819Y-87253142D01*
X134202819Y-87253142D02*
X134202819Y-87348380D01*
X134202819Y-87348380D02*
X134155200Y-87491237D01*
X134155200Y-87491237D02*
X134059961Y-87586475D01*
X134059961Y-87586475D02*
X133964723Y-87634094D01*
X133964723Y-87634094D02*
X133774247Y-87681713D01*
X133774247Y-87681713D02*
X133631390Y-87681713D01*
X133631390Y-87681713D02*
X133440914Y-87634094D01*
X133440914Y-87634094D02*
X133345676Y-87586475D01*
X133345676Y-87586475D02*
X133250438Y-87491237D01*
X133250438Y-87491237D02*
X133202819Y-87348380D01*
X133202819Y-87348380D02*
X133202819Y-87253142D01*
X133202819Y-87253142D02*
X133250438Y-87110285D01*
X133250438Y-87110285D02*
X133298057Y-87062666D01*
X133536152Y-86205523D02*
X134202819Y-86205523D01*
X133155200Y-86443618D02*
X133869485Y-86681713D01*
X133869485Y-86681713D02*
X133869485Y-86062666D01*
%TO.C,C3*%
X123629131Y-78619668D02*
X123561787Y-78619668D01*
X123561787Y-78619668D02*
X123427100Y-78552324D01*
X123427100Y-78552324D02*
X123359757Y-78484981D01*
X123359757Y-78484981D02*
X123292413Y-78350294D01*
X123292413Y-78350294D02*
X123292413Y-78215607D01*
X123292413Y-78215607D02*
X123326085Y-78114592D01*
X123326085Y-78114592D02*
X123427100Y-77946233D01*
X123427100Y-77946233D02*
X123528115Y-77845218D01*
X123528115Y-77845218D02*
X123696474Y-77744202D01*
X123696474Y-77744202D02*
X123797489Y-77710531D01*
X123797489Y-77710531D02*
X123932176Y-77710531D01*
X123932176Y-77710531D02*
X124066863Y-77777874D01*
X124066863Y-77777874D02*
X124134207Y-77845218D01*
X124134207Y-77845218D02*
X124201550Y-77979905D01*
X124201550Y-77979905D02*
X124201550Y-78047248D01*
X124504596Y-78215607D02*
X124942329Y-78653340D01*
X124942329Y-78653340D02*
X124437253Y-78687011D01*
X124437253Y-78687011D02*
X124538268Y-78788027D01*
X124538268Y-78788027D02*
X124571940Y-78889042D01*
X124571940Y-78889042D02*
X124571940Y-78956385D01*
X124571940Y-78956385D02*
X124538268Y-79057401D01*
X124538268Y-79057401D02*
X124369909Y-79225759D01*
X124369909Y-79225759D02*
X124268894Y-79259431D01*
X124268894Y-79259431D02*
X124201550Y-79259431D01*
X124201550Y-79259431D02*
X124100535Y-79225759D01*
X124100535Y-79225759D02*
X123898505Y-79023729D01*
X123898505Y-79023729D02*
X123864833Y-78922714D01*
X123864833Y-78922714D02*
X123864833Y-78855370D01*
%TO.C,C28*%
X155313142Y-98657580D02*
X155265523Y-98705200D01*
X155265523Y-98705200D02*
X155122666Y-98752819D01*
X155122666Y-98752819D02*
X155027428Y-98752819D01*
X155027428Y-98752819D02*
X154884571Y-98705200D01*
X154884571Y-98705200D02*
X154789333Y-98609961D01*
X154789333Y-98609961D02*
X154741714Y-98514723D01*
X154741714Y-98514723D02*
X154694095Y-98324247D01*
X154694095Y-98324247D02*
X154694095Y-98181390D01*
X154694095Y-98181390D02*
X154741714Y-97990914D01*
X154741714Y-97990914D02*
X154789333Y-97895676D01*
X154789333Y-97895676D02*
X154884571Y-97800438D01*
X154884571Y-97800438D02*
X155027428Y-97752819D01*
X155027428Y-97752819D02*
X155122666Y-97752819D01*
X155122666Y-97752819D02*
X155265523Y-97800438D01*
X155265523Y-97800438D02*
X155313142Y-97848057D01*
X155694095Y-97848057D02*
X155741714Y-97800438D01*
X155741714Y-97800438D02*
X155836952Y-97752819D01*
X155836952Y-97752819D02*
X156075047Y-97752819D01*
X156075047Y-97752819D02*
X156170285Y-97800438D01*
X156170285Y-97800438D02*
X156217904Y-97848057D01*
X156217904Y-97848057D02*
X156265523Y-97943295D01*
X156265523Y-97943295D02*
X156265523Y-98038533D01*
X156265523Y-98038533D02*
X156217904Y-98181390D01*
X156217904Y-98181390D02*
X155646476Y-98752819D01*
X155646476Y-98752819D02*
X156265523Y-98752819D01*
X156836952Y-98181390D02*
X156741714Y-98133771D01*
X156741714Y-98133771D02*
X156694095Y-98086152D01*
X156694095Y-98086152D02*
X156646476Y-97990914D01*
X156646476Y-97990914D02*
X156646476Y-97943295D01*
X156646476Y-97943295D02*
X156694095Y-97848057D01*
X156694095Y-97848057D02*
X156741714Y-97800438D01*
X156741714Y-97800438D02*
X156836952Y-97752819D01*
X156836952Y-97752819D02*
X157027428Y-97752819D01*
X157027428Y-97752819D02*
X157122666Y-97800438D01*
X157122666Y-97800438D02*
X157170285Y-97848057D01*
X157170285Y-97848057D02*
X157217904Y-97943295D01*
X157217904Y-97943295D02*
X157217904Y-97990914D01*
X157217904Y-97990914D02*
X157170285Y-98086152D01*
X157170285Y-98086152D02*
X157122666Y-98133771D01*
X157122666Y-98133771D02*
X157027428Y-98181390D01*
X157027428Y-98181390D02*
X156836952Y-98181390D01*
X156836952Y-98181390D02*
X156741714Y-98229009D01*
X156741714Y-98229009D02*
X156694095Y-98276628D01*
X156694095Y-98276628D02*
X156646476Y-98371866D01*
X156646476Y-98371866D02*
X156646476Y-98562342D01*
X156646476Y-98562342D02*
X156694095Y-98657580D01*
X156694095Y-98657580D02*
X156741714Y-98705200D01*
X156741714Y-98705200D02*
X156836952Y-98752819D01*
X156836952Y-98752819D02*
X157027428Y-98752819D01*
X157027428Y-98752819D02*
X157122666Y-98705200D01*
X157122666Y-98705200D02*
X157170285Y-98657580D01*
X157170285Y-98657580D02*
X157217904Y-98562342D01*
X157217904Y-98562342D02*
X157217904Y-98371866D01*
X157217904Y-98371866D02*
X157170285Y-98276628D01*
X157170285Y-98276628D02*
X157122666Y-98229009D01*
X157122666Y-98229009D02*
X157027428Y-98181390D01*
%TO.C,C15*%
X143615580Y-80906857D02*
X143663200Y-80954476D01*
X143663200Y-80954476D02*
X143710819Y-81097333D01*
X143710819Y-81097333D02*
X143710819Y-81192571D01*
X143710819Y-81192571D02*
X143663200Y-81335428D01*
X143663200Y-81335428D02*
X143567961Y-81430666D01*
X143567961Y-81430666D02*
X143472723Y-81478285D01*
X143472723Y-81478285D02*
X143282247Y-81525904D01*
X143282247Y-81525904D02*
X143139390Y-81525904D01*
X143139390Y-81525904D02*
X142948914Y-81478285D01*
X142948914Y-81478285D02*
X142853676Y-81430666D01*
X142853676Y-81430666D02*
X142758438Y-81335428D01*
X142758438Y-81335428D02*
X142710819Y-81192571D01*
X142710819Y-81192571D02*
X142710819Y-81097333D01*
X142710819Y-81097333D02*
X142758438Y-80954476D01*
X142758438Y-80954476D02*
X142806057Y-80906857D01*
X143710819Y-79954476D02*
X143710819Y-80525904D01*
X143710819Y-80240190D02*
X142710819Y-80240190D01*
X142710819Y-80240190D02*
X142853676Y-80335428D01*
X142853676Y-80335428D02*
X142948914Y-80430666D01*
X142948914Y-80430666D02*
X142996533Y-80525904D01*
X142710819Y-79049714D02*
X142710819Y-79525904D01*
X142710819Y-79525904D02*
X143187009Y-79573523D01*
X143187009Y-79573523D02*
X143139390Y-79525904D01*
X143139390Y-79525904D02*
X143091771Y-79430666D01*
X143091771Y-79430666D02*
X143091771Y-79192571D01*
X143091771Y-79192571D02*
X143139390Y-79097333D01*
X143139390Y-79097333D02*
X143187009Y-79049714D01*
X143187009Y-79049714D02*
X143282247Y-79002095D01*
X143282247Y-79002095D02*
X143520342Y-79002095D01*
X143520342Y-79002095D02*
X143615580Y-79049714D01*
X143615580Y-79049714D02*
X143663200Y-79097333D01*
X143663200Y-79097333D02*
X143710819Y-79192571D01*
X143710819Y-79192571D02*
X143710819Y-79430666D01*
X143710819Y-79430666D02*
X143663200Y-79525904D01*
X143663200Y-79525904D02*
X143615580Y-79573523D01*
%TO.C,U8*%
X161671095Y-86322819D02*
X161671095Y-87132342D01*
X161671095Y-87132342D02*
X161718714Y-87227580D01*
X161718714Y-87227580D02*
X161766333Y-87275200D01*
X161766333Y-87275200D02*
X161861571Y-87322819D01*
X161861571Y-87322819D02*
X162052047Y-87322819D01*
X162052047Y-87322819D02*
X162147285Y-87275200D01*
X162147285Y-87275200D02*
X162194904Y-87227580D01*
X162194904Y-87227580D02*
X162242523Y-87132342D01*
X162242523Y-87132342D02*
X162242523Y-86322819D01*
X162861571Y-86751390D02*
X162766333Y-86703771D01*
X162766333Y-86703771D02*
X162718714Y-86656152D01*
X162718714Y-86656152D02*
X162671095Y-86560914D01*
X162671095Y-86560914D02*
X162671095Y-86513295D01*
X162671095Y-86513295D02*
X162718714Y-86418057D01*
X162718714Y-86418057D02*
X162766333Y-86370438D01*
X162766333Y-86370438D02*
X162861571Y-86322819D01*
X162861571Y-86322819D02*
X163052047Y-86322819D01*
X163052047Y-86322819D02*
X163147285Y-86370438D01*
X163147285Y-86370438D02*
X163194904Y-86418057D01*
X163194904Y-86418057D02*
X163242523Y-86513295D01*
X163242523Y-86513295D02*
X163242523Y-86560914D01*
X163242523Y-86560914D02*
X163194904Y-86656152D01*
X163194904Y-86656152D02*
X163147285Y-86703771D01*
X163147285Y-86703771D02*
X163052047Y-86751390D01*
X163052047Y-86751390D02*
X162861571Y-86751390D01*
X162861571Y-86751390D02*
X162766333Y-86799009D01*
X162766333Y-86799009D02*
X162718714Y-86846628D01*
X162718714Y-86846628D02*
X162671095Y-86941866D01*
X162671095Y-86941866D02*
X162671095Y-87132342D01*
X162671095Y-87132342D02*
X162718714Y-87227580D01*
X162718714Y-87227580D02*
X162766333Y-87275200D01*
X162766333Y-87275200D02*
X162861571Y-87322819D01*
X162861571Y-87322819D02*
X163052047Y-87322819D01*
X163052047Y-87322819D02*
X163147285Y-87275200D01*
X163147285Y-87275200D02*
X163194904Y-87227580D01*
X163194904Y-87227580D02*
X163242523Y-87132342D01*
X163242523Y-87132342D02*
X163242523Y-86941866D01*
X163242523Y-86941866D02*
X163194904Y-86846628D01*
X163194904Y-86846628D02*
X163147285Y-86799009D01*
X163147285Y-86799009D02*
X163052047Y-86751390D01*
D15*
%TO.C,C20*%
X119629285Y-108927228D02*
X119600713Y-108955800D01*
X119600713Y-108955800D02*
X119514999Y-108984371D01*
X119514999Y-108984371D02*
X119457856Y-108984371D01*
X119457856Y-108984371D02*
X119372142Y-108955800D01*
X119372142Y-108955800D02*
X119314999Y-108898657D01*
X119314999Y-108898657D02*
X119286428Y-108841514D01*
X119286428Y-108841514D02*
X119257856Y-108727228D01*
X119257856Y-108727228D02*
X119257856Y-108641514D01*
X119257856Y-108641514D02*
X119286428Y-108527228D01*
X119286428Y-108527228D02*
X119314999Y-108470085D01*
X119314999Y-108470085D02*
X119372142Y-108412942D01*
X119372142Y-108412942D02*
X119457856Y-108384371D01*
X119457856Y-108384371D02*
X119514999Y-108384371D01*
X119514999Y-108384371D02*
X119600713Y-108412942D01*
X119600713Y-108412942D02*
X119629285Y-108441514D01*
X119857856Y-108441514D02*
X119886428Y-108412942D01*
X119886428Y-108412942D02*
X119943571Y-108384371D01*
X119943571Y-108384371D02*
X120086428Y-108384371D01*
X120086428Y-108384371D02*
X120143571Y-108412942D01*
X120143571Y-108412942D02*
X120172142Y-108441514D01*
X120172142Y-108441514D02*
X120200713Y-108498657D01*
X120200713Y-108498657D02*
X120200713Y-108555800D01*
X120200713Y-108555800D02*
X120172142Y-108641514D01*
X120172142Y-108641514D02*
X119829285Y-108984371D01*
X119829285Y-108984371D02*
X120200713Y-108984371D01*
X120572142Y-108384371D02*
X120629285Y-108384371D01*
X120629285Y-108384371D02*
X120686428Y-108412942D01*
X120686428Y-108412942D02*
X120715000Y-108441514D01*
X120715000Y-108441514D02*
X120743571Y-108498657D01*
X120743571Y-108498657D02*
X120772142Y-108612942D01*
X120772142Y-108612942D02*
X120772142Y-108755800D01*
X120772142Y-108755800D02*
X120743571Y-108870085D01*
X120743571Y-108870085D02*
X120715000Y-108927228D01*
X120715000Y-108927228D02*
X120686428Y-108955800D01*
X120686428Y-108955800D02*
X120629285Y-108984371D01*
X120629285Y-108984371D02*
X120572142Y-108984371D01*
X120572142Y-108984371D02*
X120515000Y-108955800D01*
X120515000Y-108955800D02*
X120486428Y-108927228D01*
X120486428Y-108927228D02*
X120457857Y-108870085D01*
X120457857Y-108870085D02*
X120429285Y-108755800D01*
X120429285Y-108755800D02*
X120429285Y-108612942D01*
X120429285Y-108612942D02*
X120457857Y-108498657D01*
X120457857Y-108498657D02*
X120486428Y-108441514D01*
X120486428Y-108441514D02*
X120515000Y-108412942D01*
X120515000Y-108412942D02*
X120572142Y-108384371D01*
D10*
%TO.C,R11*%
X156329142Y-135074819D02*
X155995809Y-134598628D01*
X155757714Y-135074819D02*
X155757714Y-134074819D01*
X155757714Y-134074819D02*
X156138666Y-134074819D01*
X156138666Y-134074819D02*
X156233904Y-134122438D01*
X156233904Y-134122438D02*
X156281523Y-134170057D01*
X156281523Y-134170057D02*
X156329142Y-134265295D01*
X156329142Y-134265295D02*
X156329142Y-134408152D01*
X156329142Y-134408152D02*
X156281523Y-134503390D01*
X156281523Y-134503390D02*
X156233904Y-134551009D01*
X156233904Y-134551009D02*
X156138666Y-134598628D01*
X156138666Y-134598628D02*
X155757714Y-134598628D01*
X157281523Y-135074819D02*
X156710095Y-135074819D01*
X156995809Y-135074819D02*
X156995809Y-134074819D01*
X156995809Y-134074819D02*
X156900571Y-134217676D01*
X156900571Y-134217676D02*
X156805333Y-134312914D01*
X156805333Y-134312914D02*
X156710095Y-134360533D01*
X158233904Y-135074819D02*
X157662476Y-135074819D01*
X157948190Y-135074819D02*
X157948190Y-134074819D01*
X157948190Y-134074819D02*
X157852952Y-134217676D01*
X157852952Y-134217676D02*
X157757714Y-134312914D01*
X157757714Y-134312914D02*
X157662476Y-134360533D01*
%TO.C,J4*%
X154352666Y-71082819D02*
X154352666Y-71797104D01*
X154352666Y-71797104D02*
X154305047Y-71939961D01*
X154305047Y-71939961D02*
X154209809Y-72035200D01*
X154209809Y-72035200D02*
X154066952Y-72082819D01*
X154066952Y-72082819D02*
X153971714Y-72082819D01*
X155257428Y-71416152D02*
X155257428Y-72082819D01*
X155019333Y-71035200D02*
X154781238Y-71749485D01*
X154781238Y-71749485D02*
X155400285Y-71749485D01*
%TO.C,U7*%
X102796895Y-97981419D02*
X102796895Y-98790942D01*
X102796895Y-98790942D02*
X102844514Y-98886180D01*
X102844514Y-98886180D02*
X102892133Y-98933800D01*
X102892133Y-98933800D02*
X102987371Y-98981419D01*
X102987371Y-98981419D02*
X103177847Y-98981419D01*
X103177847Y-98981419D02*
X103273085Y-98933800D01*
X103273085Y-98933800D02*
X103320704Y-98886180D01*
X103320704Y-98886180D02*
X103368323Y-98790942D01*
X103368323Y-98790942D02*
X103368323Y-97981419D01*
X103749276Y-97981419D02*
X104415942Y-97981419D01*
X104415942Y-97981419D02*
X103987371Y-98981419D01*
%TO.C,R1*%
X123785333Y-74114819D02*
X123452000Y-73638628D01*
X123213905Y-74114819D02*
X123213905Y-73114819D01*
X123213905Y-73114819D02*
X123594857Y-73114819D01*
X123594857Y-73114819D02*
X123690095Y-73162438D01*
X123690095Y-73162438D02*
X123737714Y-73210057D01*
X123737714Y-73210057D02*
X123785333Y-73305295D01*
X123785333Y-73305295D02*
X123785333Y-73448152D01*
X123785333Y-73448152D02*
X123737714Y-73543390D01*
X123737714Y-73543390D02*
X123690095Y-73591009D01*
X123690095Y-73591009D02*
X123594857Y-73638628D01*
X123594857Y-73638628D02*
X123213905Y-73638628D01*
X124737714Y-74114819D02*
X124166286Y-74114819D01*
X124452000Y-74114819D02*
X124452000Y-73114819D01*
X124452000Y-73114819D02*
X124356762Y-73257676D01*
X124356762Y-73257676D02*
X124261524Y-73352914D01*
X124261524Y-73352914D02*
X124166286Y-73400533D01*
%TO.C,C29*%
X157585580Y-89288857D02*
X157633200Y-89336476D01*
X157633200Y-89336476D02*
X157680819Y-89479333D01*
X157680819Y-89479333D02*
X157680819Y-89574571D01*
X157680819Y-89574571D02*
X157633200Y-89717428D01*
X157633200Y-89717428D02*
X157537961Y-89812666D01*
X157537961Y-89812666D02*
X157442723Y-89860285D01*
X157442723Y-89860285D02*
X157252247Y-89907904D01*
X157252247Y-89907904D02*
X157109390Y-89907904D01*
X157109390Y-89907904D02*
X156918914Y-89860285D01*
X156918914Y-89860285D02*
X156823676Y-89812666D01*
X156823676Y-89812666D02*
X156728438Y-89717428D01*
X156728438Y-89717428D02*
X156680819Y-89574571D01*
X156680819Y-89574571D02*
X156680819Y-89479333D01*
X156680819Y-89479333D02*
X156728438Y-89336476D01*
X156728438Y-89336476D02*
X156776057Y-89288857D01*
X156776057Y-88907904D02*
X156728438Y-88860285D01*
X156728438Y-88860285D02*
X156680819Y-88765047D01*
X156680819Y-88765047D02*
X156680819Y-88526952D01*
X156680819Y-88526952D02*
X156728438Y-88431714D01*
X156728438Y-88431714D02*
X156776057Y-88384095D01*
X156776057Y-88384095D02*
X156871295Y-88336476D01*
X156871295Y-88336476D02*
X156966533Y-88336476D01*
X156966533Y-88336476D02*
X157109390Y-88384095D01*
X157109390Y-88384095D02*
X157680819Y-88955523D01*
X157680819Y-88955523D02*
X157680819Y-88336476D01*
X157680819Y-87860285D02*
X157680819Y-87669809D01*
X157680819Y-87669809D02*
X157633200Y-87574571D01*
X157633200Y-87574571D02*
X157585580Y-87526952D01*
X157585580Y-87526952D02*
X157442723Y-87431714D01*
X157442723Y-87431714D02*
X157252247Y-87384095D01*
X157252247Y-87384095D02*
X156871295Y-87384095D01*
X156871295Y-87384095D02*
X156776057Y-87431714D01*
X156776057Y-87431714D02*
X156728438Y-87479333D01*
X156728438Y-87479333D02*
X156680819Y-87574571D01*
X156680819Y-87574571D02*
X156680819Y-87765047D01*
X156680819Y-87765047D02*
X156728438Y-87860285D01*
X156728438Y-87860285D02*
X156776057Y-87907904D01*
X156776057Y-87907904D02*
X156871295Y-87955523D01*
X156871295Y-87955523D02*
X157109390Y-87955523D01*
X157109390Y-87955523D02*
X157204628Y-87907904D01*
X157204628Y-87907904D02*
X157252247Y-87860285D01*
X157252247Y-87860285D02*
X157299866Y-87765047D01*
X157299866Y-87765047D02*
X157299866Y-87574571D01*
X157299866Y-87574571D02*
X157252247Y-87479333D01*
X157252247Y-87479333D02*
X157204628Y-87431714D01*
X157204628Y-87431714D02*
X157109390Y-87384095D01*
%TO.C,R5*%
X118437819Y-131484666D02*
X117961628Y-131817999D01*
X118437819Y-132056094D02*
X117437819Y-132056094D01*
X117437819Y-132056094D02*
X117437819Y-131675142D01*
X117437819Y-131675142D02*
X117485438Y-131579904D01*
X117485438Y-131579904D02*
X117533057Y-131532285D01*
X117533057Y-131532285D02*
X117628295Y-131484666D01*
X117628295Y-131484666D02*
X117771152Y-131484666D01*
X117771152Y-131484666D02*
X117866390Y-131532285D01*
X117866390Y-131532285D02*
X117914009Y-131579904D01*
X117914009Y-131579904D02*
X117961628Y-131675142D01*
X117961628Y-131675142D02*
X117961628Y-132056094D01*
X117437819Y-130579904D02*
X117437819Y-131056094D01*
X117437819Y-131056094D02*
X117914009Y-131103713D01*
X117914009Y-131103713D02*
X117866390Y-131056094D01*
X117866390Y-131056094D02*
X117818771Y-130960856D01*
X117818771Y-130960856D02*
X117818771Y-130722761D01*
X117818771Y-130722761D02*
X117866390Y-130627523D01*
X117866390Y-130627523D02*
X117914009Y-130579904D01*
X117914009Y-130579904D02*
X118009247Y-130532285D01*
X118009247Y-130532285D02*
X118247342Y-130532285D01*
X118247342Y-130532285D02*
X118342580Y-130579904D01*
X118342580Y-130579904D02*
X118390200Y-130627523D01*
X118390200Y-130627523D02*
X118437819Y-130722761D01*
X118437819Y-130722761D02*
X118437819Y-130960856D01*
X118437819Y-130960856D02*
X118390200Y-131056094D01*
X118390200Y-131056094D02*
X118342580Y-131103713D01*
%TO.C,FB1*%
X133317527Y-79371960D02*
X133081825Y-79136258D01*
X132711436Y-79506647D02*
X133418543Y-78799540D01*
X133418543Y-78799540D02*
X133755260Y-79136258D01*
X133923619Y-79978052D02*
X133990963Y-80112739D01*
X133990963Y-80112739D02*
X133990963Y-80180082D01*
X133990963Y-80180082D02*
X133957291Y-80281098D01*
X133957291Y-80281098D02*
X133856276Y-80382113D01*
X133856276Y-80382113D02*
X133755260Y-80415785D01*
X133755260Y-80415785D02*
X133687917Y-80415785D01*
X133687917Y-80415785D02*
X133586902Y-80382113D01*
X133586902Y-80382113D02*
X133317528Y-80112739D01*
X133317528Y-80112739D02*
X134024634Y-79405632D01*
X134024634Y-79405632D02*
X134260337Y-79641334D01*
X134260337Y-79641334D02*
X134294008Y-79742350D01*
X134294008Y-79742350D02*
X134294008Y-79809693D01*
X134294008Y-79809693D02*
X134260337Y-79910708D01*
X134260337Y-79910708D02*
X134192993Y-79978052D01*
X134192993Y-79978052D02*
X134091978Y-80011724D01*
X134091978Y-80011724D02*
X134024634Y-80011724D01*
X134024634Y-80011724D02*
X133923619Y-79978052D01*
X133923619Y-79978052D02*
X133687917Y-79742350D01*
X134395024Y-81190235D02*
X133990963Y-80786174D01*
X134192993Y-80988204D02*
X134900100Y-80281098D01*
X134900100Y-80281098D02*
X134731741Y-80314769D01*
X134731741Y-80314769D02*
X134597054Y-80314769D01*
X134597054Y-80314769D02*
X134496039Y-80281098D01*
%TO.C,C18*%
X122039142Y-98927980D02*
X121991523Y-98975600D01*
X121991523Y-98975600D02*
X121848666Y-99023219D01*
X121848666Y-99023219D02*
X121753428Y-99023219D01*
X121753428Y-99023219D02*
X121610571Y-98975600D01*
X121610571Y-98975600D02*
X121515333Y-98880361D01*
X121515333Y-98880361D02*
X121467714Y-98785123D01*
X121467714Y-98785123D02*
X121420095Y-98594647D01*
X121420095Y-98594647D02*
X121420095Y-98451790D01*
X121420095Y-98451790D02*
X121467714Y-98261314D01*
X121467714Y-98261314D02*
X121515333Y-98166076D01*
X121515333Y-98166076D02*
X121610571Y-98070838D01*
X121610571Y-98070838D02*
X121753428Y-98023219D01*
X121753428Y-98023219D02*
X121848666Y-98023219D01*
X121848666Y-98023219D02*
X121991523Y-98070838D01*
X121991523Y-98070838D02*
X122039142Y-98118457D01*
X122991523Y-99023219D02*
X122420095Y-99023219D01*
X122705809Y-99023219D02*
X122705809Y-98023219D01*
X122705809Y-98023219D02*
X122610571Y-98166076D01*
X122610571Y-98166076D02*
X122515333Y-98261314D01*
X122515333Y-98261314D02*
X122420095Y-98308933D01*
X123562952Y-98451790D02*
X123467714Y-98404171D01*
X123467714Y-98404171D02*
X123420095Y-98356552D01*
X123420095Y-98356552D02*
X123372476Y-98261314D01*
X123372476Y-98261314D02*
X123372476Y-98213695D01*
X123372476Y-98213695D02*
X123420095Y-98118457D01*
X123420095Y-98118457D02*
X123467714Y-98070838D01*
X123467714Y-98070838D02*
X123562952Y-98023219D01*
X123562952Y-98023219D02*
X123753428Y-98023219D01*
X123753428Y-98023219D02*
X123848666Y-98070838D01*
X123848666Y-98070838D02*
X123896285Y-98118457D01*
X123896285Y-98118457D02*
X123943904Y-98213695D01*
X123943904Y-98213695D02*
X123943904Y-98261314D01*
X123943904Y-98261314D02*
X123896285Y-98356552D01*
X123896285Y-98356552D02*
X123848666Y-98404171D01*
X123848666Y-98404171D02*
X123753428Y-98451790D01*
X123753428Y-98451790D02*
X123562952Y-98451790D01*
X123562952Y-98451790D02*
X123467714Y-98499409D01*
X123467714Y-98499409D02*
X123420095Y-98547028D01*
X123420095Y-98547028D02*
X123372476Y-98642266D01*
X123372476Y-98642266D02*
X123372476Y-98832742D01*
X123372476Y-98832742D02*
X123420095Y-98927980D01*
X123420095Y-98927980D02*
X123467714Y-98975600D01*
X123467714Y-98975600D02*
X123562952Y-99023219D01*
X123562952Y-99023219D02*
X123753428Y-99023219D01*
X123753428Y-99023219D02*
X123848666Y-98975600D01*
X123848666Y-98975600D02*
X123896285Y-98927980D01*
X123896285Y-98927980D02*
X123943904Y-98832742D01*
X123943904Y-98832742D02*
X123943904Y-98642266D01*
X123943904Y-98642266D02*
X123896285Y-98547028D01*
X123896285Y-98547028D02*
X123848666Y-98499409D01*
X123848666Y-98499409D02*
X123753428Y-98451790D01*
%TO.C,R21*%
X116786818Y-95943657D02*
X116310627Y-96276990D01*
X116786818Y-96515085D02*
X115786818Y-96515085D01*
X115786818Y-96515085D02*
X115786818Y-96134133D01*
X115786818Y-96134133D02*
X115834437Y-96038895D01*
X115834437Y-96038895D02*
X115882056Y-95991276D01*
X115882056Y-95991276D02*
X115977294Y-95943657D01*
X115977294Y-95943657D02*
X116120151Y-95943657D01*
X116120151Y-95943657D02*
X116215389Y-95991276D01*
X116215389Y-95991276D02*
X116263008Y-96038895D01*
X116263008Y-96038895D02*
X116310627Y-96134133D01*
X116310627Y-96134133D02*
X116310627Y-96515085D01*
X115882056Y-95562704D02*
X115834437Y-95515085D01*
X115834437Y-95515085D02*
X115786818Y-95419847D01*
X115786818Y-95419847D02*
X115786818Y-95181752D01*
X115786818Y-95181752D02*
X115834437Y-95086514D01*
X115834437Y-95086514D02*
X115882056Y-95038895D01*
X115882056Y-95038895D02*
X115977294Y-94991276D01*
X115977294Y-94991276D02*
X116072532Y-94991276D01*
X116072532Y-94991276D02*
X116215389Y-95038895D01*
X116215389Y-95038895D02*
X116786818Y-95610323D01*
X116786818Y-95610323D02*
X116786818Y-94991276D01*
X116786818Y-94038895D02*
X116786818Y-94610323D01*
X116786818Y-94324609D02*
X115786818Y-94324609D01*
X115786818Y-94324609D02*
X115929675Y-94419847D01*
X115929675Y-94419847D02*
X116024913Y-94515085D01*
X116024913Y-94515085D02*
X116072532Y-94610323D01*
%TO.C,C5*%
X105769580Y-85510666D02*
X105817200Y-85558285D01*
X105817200Y-85558285D02*
X105864819Y-85701142D01*
X105864819Y-85701142D02*
X105864819Y-85796380D01*
X105864819Y-85796380D02*
X105817200Y-85939237D01*
X105817200Y-85939237D02*
X105721961Y-86034475D01*
X105721961Y-86034475D02*
X105626723Y-86082094D01*
X105626723Y-86082094D02*
X105436247Y-86129713D01*
X105436247Y-86129713D02*
X105293390Y-86129713D01*
X105293390Y-86129713D02*
X105102914Y-86082094D01*
X105102914Y-86082094D02*
X105007676Y-86034475D01*
X105007676Y-86034475D02*
X104912438Y-85939237D01*
X104912438Y-85939237D02*
X104864819Y-85796380D01*
X104864819Y-85796380D02*
X104864819Y-85701142D01*
X104864819Y-85701142D02*
X104912438Y-85558285D01*
X104912438Y-85558285D02*
X104960057Y-85510666D01*
X104864819Y-84605904D02*
X104864819Y-85082094D01*
X104864819Y-85082094D02*
X105341009Y-85129713D01*
X105341009Y-85129713D02*
X105293390Y-85082094D01*
X105293390Y-85082094D02*
X105245771Y-84986856D01*
X105245771Y-84986856D02*
X105245771Y-84748761D01*
X105245771Y-84748761D02*
X105293390Y-84653523D01*
X105293390Y-84653523D02*
X105341009Y-84605904D01*
X105341009Y-84605904D02*
X105436247Y-84558285D01*
X105436247Y-84558285D02*
X105674342Y-84558285D01*
X105674342Y-84558285D02*
X105769580Y-84605904D01*
X105769580Y-84605904D02*
X105817200Y-84653523D01*
X105817200Y-84653523D02*
X105864819Y-84748761D01*
X105864819Y-84748761D02*
X105864819Y-84986856D01*
X105864819Y-84986856D02*
X105817200Y-85082094D01*
X105817200Y-85082094D02*
X105769580Y-85129713D01*
%TO.C,C2*%
X129955287Y-81187811D02*
X129887943Y-81187811D01*
X129887943Y-81187811D02*
X129753256Y-81120467D01*
X129753256Y-81120467D02*
X129685913Y-81053124D01*
X129685913Y-81053124D02*
X129618569Y-80918437D01*
X129618569Y-80918437D02*
X129618569Y-80783750D01*
X129618569Y-80783750D02*
X129652241Y-80682735D01*
X129652241Y-80682735D02*
X129753256Y-80514376D01*
X129753256Y-80514376D02*
X129854271Y-80413361D01*
X129854271Y-80413361D02*
X130022630Y-80312345D01*
X130022630Y-80312345D02*
X130123645Y-80278674D01*
X130123645Y-80278674D02*
X130258332Y-80278674D01*
X130258332Y-80278674D02*
X130393019Y-80346017D01*
X130393019Y-80346017D02*
X130460363Y-80413361D01*
X130460363Y-80413361D02*
X130527706Y-80548048D01*
X130527706Y-80548048D02*
X130527706Y-80615391D01*
X130797080Y-80884765D02*
X130864424Y-80884765D01*
X130864424Y-80884765D02*
X130965439Y-80918437D01*
X130965439Y-80918437D02*
X131133798Y-81086796D01*
X131133798Y-81086796D02*
X131167470Y-81187811D01*
X131167470Y-81187811D02*
X131167470Y-81255154D01*
X131167470Y-81255154D02*
X131133798Y-81356170D01*
X131133798Y-81356170D02*
X131066454Y-81423513D01*
X131066454Y-81423513D02*
X130931767Y-81490857D01*
X130931767Y-81490857D02*
X130123645Y-81490857D01*
X130123645Y-81490857D02*
X130561378Y-81928589D01*
%TO.C,C19*%
X103598742Y-110536379D02*
X103551123Y-110583999D01*
X103551123Y-110583999D02*
X103408266Y-110631618D01*
X103408266Y-110631618D02*
X103313028Y-110631618D01*
X103313028Y-110631618D02*
X103170171Y-110583999D01*
X103170171Y-110583999D02*
X103074933Y-110488760D01*
X103074933Y-110488760D02*
X103027314Y-110393522D01*
X103027314Y-110393522D02*
X102979695Y-110203046D01*
X102979695Y-110203046D02*
X102979695Y-110060189D01*
X102979695Y-110060189D02*
X103027314Y-109869713D01*
X103027314Y-109869713D02*
X103074933Y-109774475D01*
X103074933Y-109774475D02*
X103170171Y-109679237D01*
X103170171Y-109679237D02*
X103313028Y-109631618D01*
X103313028Y-109631618D02*
X103408266Y-109631618D01*
X103408266Y-109631618D02*
X103551123Y-109679237D01*
X103551123Y-109679237D02*
X103598742Y-109726856D01*
X104551123Y-110631618D02*
X103979695Y-110631618D01*
X104265409Y-110631618D02*
X104265409Y-109631618D01*
X104265409Y-109631618D02*
X104170171Y-109774475D01*
X104170171Y-109774475D02*
X104074933Y-109869713D01*
X104074933Y-109869713D02*
X103979695Y-109917332D01*
X105027314Y-110631618D02*
X105217790Y-110631618D01*
X105217790Y-110631618D02*
X105313028Y-110583999D01*
X105313028Y-110583999D02*
X105360647Y-110536379D01*
X105360647Y-110536379D02*
X105455885Y-110393522D01*
X105455885Y-110393522D02*
X105503504Y-110203046D01*
X105503504Y-110203046D02*
X105503504Y-109822094D01*
X105503504Y-109822094D02*
X105455885Y-109726856D01*
X105455885Y-109726856D02*
X105408266Y-109679237D01*
X105408266Y-109679237D02*
X105313028Y-109631618D01*
X105313028Y-109631618D02*
X105122552Y-109631618D01*
X105122552Y-109631618D02*
X105027314Y-109679237D01*
X105027314Y-109679237D02*
X104979695Y-109726856D01*
X104979695Y-109726856D02*
X104932076Y-109822094D01*
X104932076Y-109822094D02*
X104932076Y-110060189D01*
X104932076Y-110060189D02*
X104979695Y-110155427D01*
X104979695Y-110155427D02*
X105027314Y-110203046D01*
X105027314Y-110203046D02*
X105122552Y-110250665D01*
X105122552Y-110250665D02*
X105313028Y-110250665D01*
X105313028Y-110250665D02*
X105408266Y-110203046D01*
X105408266Y-110203046D02*
X105455885Y-110155427D01*
X105455885Y-110155427D02*
X105503504Y-110060189D01*
%TO.C,U1*%
X131825153Y-82565550D02*
X131252733Y-83137970D01*
X131252733Y-83137970D02*
X131219061Y-83238985D01*
X131219061Y-83238985D02*
X131219061Y-83306329D01*
X131219061Y-83306329D02*
X131252733Y-83407344D01*
X131252733Y-83407344D02*
X131387420Y-83542031D01*
X131387420Y-83542031D02*
X131488435Y-83575703D01*
X131488435Y-83575703D02*
X131555779Y-83575703D01*
X131555779Y-83575703D02*
X131656794Y-83542031D01*
X131656794Y-83542031D02*
X132229214Y-82969611D01*
X132229214Y-84383825D02*
X131825153Y-83979764D01*
X132027183Y-84181794D02*
X132734290Y-83474688D01*
X132734290Y-83474688D02*
X132565931Y-83508359D01*
X132565931Y-83508359D02*
X132431244Y-83508359D01*
X132431244Y-83508359D02*
X132330229Y-83474688D01*
%TO.C,Q2*%
X119930057Y-117443238D02*
X119882438Y-117538476D01*
X119882438Y-117538476D02*
X119787200Y-117633714D01*
X119787200Y-117633714D02*
X119644342Y-117776571D01*
X119644342Y-117776571D02*
X119596723Y-117871809D01*
X119596723Y-117871809D02*
X119596723Y-117967047D01*
X119834819Y-117919428D02*
X119787200Y-118014666D01*
X119787200Y-118014666D02*
X119691961Y-118109904D01*
X119691961Y-118109904D02*
X119501485Y-118157523D01*
X119501485Y-118157523D02*
X119168152Y-118157523D01*
X119168152Y-118157523D02*
X118977676Y-118109904D01*
X118977676Y-118109904D02*
X118882438Y-118014666D01*
X118882438Y-118014666D02*
X118834819Y-117919428D01*
X118834819Y-117919428D02*
X118834819Y-117728952D01*
X118834819Y-117728952D02*
X118882438Y-117633714D01*
X118882438Y-117633714D02*
X118977676Y-117538476D01*
X118977676Y-117538476D02*
X119168152Y-117490857D01*
X119168152Y-117490857D02*
X119501485Y-117490857D01*
X119501485Y-117490857D02*
X119691961Y-117538476D01*
X119691961Y-117538476D02*
X119787200Y-117633714D01*
X119787200Y-117633714D02*
X119834819Y-117728952D01*
X119834819Y-117728952D02*
X119834819Y-117919428D01*
X118930057Y-117109904D02*
X118882438Y-117062285D01*
X118882438Y-117062285D02*
X118834819Y-116967047D01*
X118834819Y-116967047D02*
X118834819Y-116728952D01*
X118834819Y-116728952D02*
X118882438Y-116633714D01*
X118882438Y-116633714D02*
X118930057Y-116586095D01*
X118930057Y-116586095D02*
X119025295Y-116538476D01*
X119025295Y-116538476D02*
X119120533Y-116538476D01*
X119120533Y-116538476D02*
X119263390Y-116586095D01*
X119263390Y-116586095D02*
X119834819Y-117157523D01*
X119834819Y-117157523D02*
X119834819Y-116538476D01*
%TO.C,R4*%
X118818819Y-114466666D02*
X118342628Y-114799999D01*
X118818819Y-115038094D02*
X117818819Y-115038094D01*
X117818819Y-115038094D02*
X117818819Y-114657142D01*
X117818819Y-114657142D02*
X117866438Y-114561904D01*
X117866438Y-114561904D02*
X117914057Y-114514285D01*
X117914057Y-114514285D02*
X118009295Y-114466666D01*
X118009295Y-114466666D02*
X118152152Y-114466666D01*
X118152152Y-114466666D02*
X118247390Y-114514285D01*
X118247390Y-114514285D02*
X118295009Y-114561904D01*
X118295009Y-114561904D02*
X118342628Y-114657142D01*
X118342628Y-114657142D02*
X118342628Y-115038094D01*
X118152152Y-113609523D02*
X118818819Y-113609523D01*
X117771200Y-113847618D02*
X118485485Y-114085713D01*
X118485485Y-114085713D02*
X118485485Y-113466666D01*
%TO.C,R8*%
X110792419Y-106809066D02*
X110316228Y-107142399D01*
X110792419Y-107380494D02*
X109792419Y-107380494D01*
X109792419Y-107380494D02*
X109792419Y-106999542D01*
X109792419Y-106999542D02*
X109840038Y-106904304D01*
X109840038Y-106904304D02*
X109887657Y-106856685D01*
X109887657Y-106856685D02*
X109982895Y-106809066D01*
X109982895Y-106809066D02*
X110125752Y-106809066D01*
X110125752Y-106809066D02*
X110220990Y-106856685D01*
X110220990Y-106856685D02*
X110268609Y-106904304D01*
X110268609Y-106904304D02*
X110316228Y-106999542D01*
X110316228Y-106999542D02*
X110316228Y-107380494D01*
X110220990Y-106237637D02*
X110173371Y-106332875D01*
X110173371Y-106332875D02*
X110125752Y-106380494D01*
X110125752Y-106380494D02*
X110030514Y-106428113D01*
X110030514Y-106428113D02*
X109982895Y-106428113D01*
X109982895Y-106428113D02*
X109887657Y-106380494D01*
X109887657Y-106380494D02*
X109840038Y-106332875D01*
X109840038Y-106332875D02*
X109792419Y-106237637D01*
X109792419Y-106237637D02*
X109792419Y-106047161D01*
X109792419Y-106047161D02*
X109840038Y-105951923D01*
X109840038Y-105951923D02*
X109887657Y-105904304D01*
X109887657Y-105904304D02*
X109982895Y-105856685D01*
X109982895Y-105856685D02*
X110030514Y-105856685D01*
X110030514Y-105856685D02*
X110125752Y-105904304D01*
X110125752Y-105904304D02*
X110173371Y-105951923D01*
X110173371Y-105951923D02*
X110220990Y-106047161D01*
X110220990Y-106047161D02*
X110220990Y-106237637D01*
X110220990Y-106237637D02*
X110268609Y-106332875D01*
X110268609Y-106332875D02*
X110316228Y-106380494D01*
X110316228Y-106380494D02*
X110411466Y-106428113D01*
X110411466Y-106428113D02*
X110601942Y-106428113D01*
X110601942Y-106428113D02*
X110697180Y-106380494D01*
X110697180Y-106380494D02*
X110744800Y-106332875D01*
X110744800Y-106332875D02*
X110792419Y-106237637D01*
X110792419Y-106237637D02*
X110792419Y-106047161D01*
X110792419Y-106047161D02*
X110744800Y-105951923D01*
X110744800Y-105951923D02*
X110697180Y-105904304D01*
X110697180Y-105904304D02*
X110601942Y-105856685D01*
X110601942Y-105856685D02*
X110411466Y-105856685D01*
X110411466Y-105856685D02*
X110316228Y-105904304D01*
X110316228Y-105904304D02*
X110268609Y-105951923D01*
X110268609Y-105951923D02*
X110220990Y-106047161D01*
%TO.C,C11*%
X148963142Y-90529580D02*
X148915523Y-90577200D01*
X148915523Y-90577200D02*
X148772666Y-90624819D01*
X148772666Y-90624819D02*
X148677428Y-90624819D01*
X148677428Y-90624819D02*
X148534571Y-90577200D01*
X148534571Y-90577200D02*
X148439333Y-90481961D01*
X148439333Y-90481961D02*
X148391714Y-90386723D01*
X148391714Y-90386723D02*
X148344095Y-90196247D01*
X148344095Y-90196247D02*
X148344095Y-90053390D01*
X148344095Y-90053390D02*
X148391714Y-89862914D01*
X148391714Y-89862914D02*
X148439333Y-89767676D01*
X148439333Y-89767676D02*
X148534571Y-89672438D01*
X148534571Y-89672438D02*
X148677428Y-89624819D01*
X148677428Y-89624819D02*
X148772666Y-89624819D01*
X148772666Y-89624819D02*
X148915523Y-89672438D01*
X148915523Y-89672438D02*
X148963142Y-89720057D01*
X149915523Y-90624819D02*
X149344095Y-90624819D01*
X149629809Y-90624819D02*
X149629809Y-89624819D01*
X149629809Y-89624819D02*
X149534571Y-89767676D01*
X149534571Y-89767676D02*
X149439333Y-89862914D01*
X149439333Y-89862914D02*
X149344095Y-89910533D01*
X150867904Y-90624819D02*
X150296476Y-90624819D01*
X150582190Y-90624819D02*
X150582190Y-89624819D01*
X150582190Y-89624819D02*
X150486952Y-89767676D01*
X150486952Y-89767676D02*
X150391714Y-89862914D01*
X150391714Y-89862914D02*
X150296476Y-89910533D01*
%TO.C,C1*%
X127923811Y-78350112D02*
X127923811Y-78417456D01*
X127923811Y-78417456D02*
X127856467Y-78552143D01*
X127856467Y-78552143D02*
X127789124Y-78619486D01*
X127789124Y-78619486D02*
X127654437Y-78686830D01*
X127654437Y-78686830D02*
X127519750Y-78686830D01*
X127519750Y-78686830D02*
X127418735Y-78653158D01*
X127418735Y-78653158D02*
X127250376Y-78552143D01*
X127250376Y-78552143D02*
X127149361Y-78451128D01*
X127149361Y-78451128D02*
X127048345Y-78282769D01*
X127048345Y-78282769D02*
X127014674Y-78181754D01*
X127014674Y-78181754D02*
X127014674Y-78047067D01*
X127014674Y-78047067D02*
X127082017Y-77912380D01*
X127082017Y-77912380D02*
X127149361Y-77845036D01*
X127149361Y-77845036D02*
X127284048Y-77777693D01*
X127284048Y-77777693D02*
X127351391Y-77777693D01*
X128664589Y-77744021D02*
X128260528Y-78148082D01*
X128462559Y-77946051D02*
X127755452Y-77238945D01*
X127755452Y-77238945D02*
X127789124Y-77407303D01*
X127789124Y-77407303D02*
X127789124Y-77541990D01*
X127789124Y-77541990D02*
X127755452Y-77643006D01*
%TO.C,R14*%
X141253742Y-102283419D02*
X140920409Y-101807228D01*
X140682314Y-102283419D02*
X140682314Y-101283419D01*
X140682314Y-101283419D02*
X141063266Y-101283419D01*
X141063266Y-101283419D02*
X141158504Y-101331038D01*
X141158504Y-101331038D02*
X141206123Y-101378657D01*
X141206123Y-101378657D02*
X141253742Y-101473895D01*
X141253742Y-101473895D02*
X141253742Y-101616752D01*
X141253742Y-101616752D02*
X141206123Y-101711990D01*
X141206123Y-101711990D02*
X141158504Y-101759609D01*
X141158504Y-101759609D02*
X141063266Y-101807228D01*
X141063266Y-101807228D02*
X140682314Y-101807228D01*
X142206123Y-102283419D02*
X141634695Y-102283419D01*
X141920409Y-102283419D02*
X141920409Y-101283419D01*
X141920409Y-101283419D02*
X141825171Y-101426276D01*
X141825171Y-101426276D02*
X141729933Y-101521514D01*
X141729933Y-101521514D02*
X141634695Y-101569133D01*
X143063266Y-101616752D02*
X143063266Y-102283419D01*
X142825171Y-101235800D02*
X142587076Y-101950085D01*
X142587076Y-101950085D02*
X143206123Y-101950085D01*
%TO.C,D2*%
X124047618Y-106529093D02*
X123047618Y-106529093D01*
X123047618Y-106529093D02*
X123047618Y-106290998D01*
X123047618Y-106290998D02*
X123095237Y-106148141D01*
X123095237Y-106148141D02*
X123190475Y-106052903D01*
X123190475Y-106052903D02*
X123285713Y-106005284D01*
X123285713Y-106005284D02*
X123476189Y-105957665D01*
X123476189Y-105957665D02*
X123619046Y-105957665D01*
X123619046Y-105957665D02*
X123809522Y-106005284D01*
X123809522Y-106005284D02*
X123904760Y-106052903D01*
X123904760Y-106052903D02*
X123999999Y-106148141D01*
X123999999Y-106148141D02*
X124047618Y-106290998D01*
X124047618Y-106290998D02*
X124047618Y-106529093D01*
X123142856Y-105576712D02*
X123095237Y-105529093D01*
X123095237Y-105529093D02*
X123047618Y-105433855D01*
X123047618Y-105433855D02*
X123047618Y-105195760D01*
X123047618Y-105195760D02*
X123095237Y-105100522D01*
X123095237Y-105100522D02*
X123142856Y-105052903D01*
X123142856Y-105052903D02*
X123238094Y-105005284D01*
X123238094Y-105005284D02*
X123333332Y-105005284D01*
X123333332Y-105005284D02*
X123476189Y-105052903D01*
X123476189Y-105052903D02*
X124047618Y-105624331D01*
X124047618Y-105624331D02*
X124047618Y-105005284D01*
%TO.C,J1*%
X167094819Y-70437333D02*
X167809104Y-70437333D01*
X167809104Y-70437333D02*
X167951961Y-70484952D01*
X167951961Y-70484952D02*
X168047200Y-70580190D01*
X168047200Y-70580190D02*
X168094819Y-70723047D01*
X168094819Y-70723047D02*
X168094819Y-70818285D01*
X168094819Y-69437333D02*
X168094819Y-70008761D01*
X168094819Y-69723047D02*
X167094819Y-69723047D01*
X167094819Y-69723047D02*
X167237676Y-69818285D01*
X167237676Y-69818285D02*
X167332914Y-69913523D01*
X167332914Y-69913523D02*
X167380533Y-70008761D01*
%TO.C,U6*%
X113200619Y-105417904D02*
X114010142Y-105417904D01*
X114010142Y-105417904D02*
X114105380Y-105370285D01*
X114105380Y-105370285D02*
X114153000Y-105322666D01*
X114153000Y-105322666D02*
X114200619Y-105227428D01*
X114200619Y-105227428D02*
X114200619Y-105036952D01*
X114200619Y-105036952D02*
X114153000Y-104941714D01*
X114153000Y-104941714D02*
X114105380Y-104894095D01*
X114105380Y-104894095D02*
X114010142Y-104846476D01*
X114010142Y-104846476D02*
X113200619Y-104846476D01*
X113200619Y-103941714D02*
X113200619Y-104132190D01*
X113200619Y-104132190D02*
X113248238Y-104227428D01*
X113248238Y-104227428D02*
X113295857Y-104275047D01*
X113295857Y-104275047D02*
X113438714Y-104370285D01*
X113438714Y-104370285D02*
X113629190Y-104417904D01*
X113629190Y-104417904D02*
X114010142Y-104417904D01*
X114010142Y-104417904D02*
X114105380Y-104370285D01*
X114105380Y-104370285D02*
X114153000Y-104322666D01*
X114153000Y-104322666D02*
X114200619Y-104227428D01*
X114200619Y-104227428D02*
X114200619Y-104036952D01*
X114200619Y-104036952D02*
X114153000Y-103941714D01*
X114153000Y-103941714D02*
X114105380Y-103894095D01*
X114105380Y-103894095D02*
X114010142Y-103846476D01*
X114010142Y-103846476D02*
X113772047Y-103846476D01*
X113772047Y-103846476D02*
X113676809Y-103894095D01*
X113676809Y-103894095D02*
X113629190Y-103941714D01*
X113629190Y-103941714D02*
X113581571Y-104036952D01*
X113581571Y-104036952D02*
X113581571Y-104227428D01*
X113581571Y-104227428D02*
X113629190Y-104322666D01*
X113629190Y-104322666D02*
X113676809Y-104370285D01*
X113676809Y-104370285D02*
X113772047Y-104417904D01*
%TO.C,U2*%
X141377619Y-87858504D02*
X142187142Y-87858504D01*
X142187142Y-87858504D02*
X142282380Y-87810885D01*
X142282380Y-87810885D02*
X142330000Y-87763266D01*
X142330000Y-87763266D02*
X142377619Y-87668028D01*
X142377619Y-87668028D02*
X142377619Y-87477552D01*
X142377619Y-87477552D02*
X142330000Y-87382314D01*
X142330000Y-87382314D02*
X142282380Y-87334695D01*
X142282380Y-87334695D02*
X142187142Y-87287076D01*
X142187142Y-87287076D02*
X141377619Y-87287076D01*
X141472857Y-86858504D02*
X141425238Y-86810885D01*
X141425238Y-86810885D02*
X141377619Y-86715647D01*
X141377619Y-86715647D02*
X141377619Y-86477552D01*
X141377619Y-86477552D02*
X141425238Y-86382314D01*
X141425238Y-86382314D02*
X141472857Y-86334695D01*
X141472857Y-86334695D02*
X141568095Y-86287076D01*
X141568095Y-86287076D02*
X141663333Y-86287076D01*
X141663333Y-86287076D02*
X141806190Y-86334695D01*
X141806190Y-86334695D02*
X142377619Y-86906123D01*
X142377619Y-86906123D02*
X142377619Y-86287076D01*
D15*
%TO.C,C13*%
X148424228Y-86491714D02*
X148452800Y-86520286D01*
X148452800Y-86520286D02*
X148481371Y-86606000D01*
X148481371Y-86606000D02*
X148481371Y-86663143D01*
X148481371Y-86663143D02*
X148452800Y-86748857D01*
X148452800Y-86748857D02*
X148395657Y-86806000D01*
X148395657Y-86806000D02*
X148338514Y-86834571D01*
X148338514Y-86834571D02*
X148224228Y-86863143D01*
X148224228Y-86863143D02*
X148138514Y-86863143D01*
X148138514Y-86863143D02*
X148024228Y-86834571D01*
X148024228Y-86834571D02*
X147967085Y-86806000D01*
X147967085Y-86806000D02*
X147909942Y-86748857D01*
X147909942Y-86748857D02*
X147881371Y-86663143D01*
X147881371Y-86663143D02*
X147881371Y-86606000D01*
X147881371Y-86606000D02*
X147909942Y-86520286D01*
X147909942Y-86520286D02*
X147938514Y-86491714D01*
X148481371Y-85920286D02*
X148481371Y-86263143D01*
X148481371Y-86091714D02*
X147881371Y-86091714D01*
X147881371Y-86091714D02*
X147967085Y-86148857D01*
X147967085Y-86148857D02*
X148024228Y-86206000D01*
X148024228Y-86206000D02*
X148052800Y-86263143D01*
X147881371Y-85720285D02*
X147881371Y-85348857D01*
X147881371Y-85348857D02*
X148109942Y-85548857D01*
X148109942Y-85548857D02*
X148109942Y-85463142D01*
X148109942Y-85463142D02*
X148138514Y-85406000D01*
X148138514Y-85406000D02*
X148167085Y-85377428D01*
X148167085Y-85377428D02*
X148224228Y-85348857D01*
X148224228Y-85348857D02*
X148367085Y-85348857D01*
X148367085Y-85348857D02*
X148424228Y-85377428D01*
X148424228Y-85377428D02*
X148452800Y-85406000D01*
X148452800Y-85406000D02*
X148481371Y-85463142D01*
X148481371Y-85463142D02*
X148481371Y-85634571D01*
X148481371Y-85634571D02*
X148452800Y-85691714D01*
X148452800Y-85691714D02*
X148424228Y-85720285D01*
D10*
%TO.C,R3*%
X124547333Y-72336819D02*
X124214000Y-71860628D01*
X123975905Y-72336819D02*
X123975905Y-71336819D01*
X123975905Y-71336819D02*
X124356857Y-71336819D01*
X124356857Y-71336819D02*
X124452095Y-71384438D01*
X124452095Y-71384438D02*
X124499714Y-71432057D01*
X124499714Y-71432057D02*
X124547333Y-71527295D01*
X124547333Y-71527295D02*
X124547333Y-71670152D01*
X124547333Y-71670152D02*
X124499714Y-71765390D01*
X124499714Y-71765390D02*
X124452095Y-71813009D01*
X124452095Y-71813009D02*
X124356857Y-71860628D01*
X124356857Y-71860628D02*
X123975905Y-71860628D01*
X124880667Y-71336819D02*
X125499714Y-71336819D01*
X125499714Y-71336819D02*
X125166381Y-71717771D01*
X125166381Y-71717771D02*
X125309238Y-71717771D01*
X125309238Y-71717771D02*
X125404476Y-71765390D01*
X125404476Y-71765390D02*
X125452095Y-71813009D01*
X125452095Y-71813009D02*
X125499714Y-71908247D01*
X125499714Y-71908247D02*
X125499714Y-72146342D01*
X125499714Y-72146342D02*
X125452095Y-72241580D01*
X125452095Y-72241580D02*
X125404476Y-72289200D01*
X125404476Y-72289200D02*
X125309238Y-72336819D01*
X125309238Y-72336819D02*
X125023524Y-72336819D01*
X125023524Y-72336819D02*
X124928286Y-72289200D01*
X124928286Y-72289200D02*
X124880667Y-72241580D01*
%TO.C,D1*%
X127277905Y-76225319D02*
X127277905Y-75225319D01*
X127277905Y-75225319D02*
X127516000Y-75225319D01*
X127516000Y-75225319D02*
X127658857Y-75272938D01*
X127658857Y-75272938D02*
X127754095Y-75368176D01*
X127754095Y-75368176D02*
X127801714Y-75463414D01*
X127801714Y-75463414D02*
X127849333Y-75653890D01*
X127849333Y-75653890D02*
X127849333Y-75796747D01*
X127849333Y-75796747D02*
X127801714Y-75987223D01*
X127801714Y-75987223D02*
X127754095Y-76082461D01*
X127754095Y-76082461D02*
X127658857Y-76177700D01*
X127658857Y-76177700D02*
X127516000Y-76225319D01*
X127516000Y-76225319D02*
X127277905Y-76225319D01*
X128801714Y-76225319D02*
X128230286Y-76225319D01*
X128516000Y-76225319D02*
X128516000Y-75225319D01*
X128516000Y-75225319D02*
X128420762Y-75368176D01*
X128420762Y-75368176D02*
X128325524Y-75463414D01*
X128325524Y-75463414D02*
X128230286Y-75511033D01*
%TO.C,R7*%
X127265133Y-102537419D02*
X126931800Y-102061228D01*
X126693705Y-102537419D02*
X126693705Y-101537419D01*
X126693705Y-101537419D02*
X127074657Y-101537419D01*
X127074657Y-101537419D02*
X127169895Y-101585038D01*
X127169895Y-101585038D02*
X127217514Y-101632657D01*
X127217514Y-101632657D02*
X127265133Y-101727895D01*
X127265133Y-101727895D02*
X127265133Y-101870752D01*
X127265133Y-101870752D02*
X127217514Y-101965990D01*
X127217514Y-101965990D02*
X127169895Y-102013609D01*
X127169895Y-102013609D02*
X127074657Y-102061228D01*
X127074657Y-102061228D02*
X126693705Y-102061228D01*
X127598467Y-101537419D02*
X128265133Y-101537419D01*
X128265133Y-101537419D02*
X127836562Y-102537419D01*
%TO.C,C21*%
X150611542Y-103737580D02*
X150563923Y-103785200D01*
X150563923Y-103785200D02*
X150421066Y-103832819D01*
X150421066Y-103832819D02*
X150325828Y-103832819D01*
X150325828Y-103832819D02*
X150182971Y-103785200D01*
X150182971Y-103785200D02*
X150087733Y-103689961D01*
X150087733Y-103689961D02*
X150040114Y-103594723D01*
X150040114Y-103594723D02*
X149992495Y-103404247D01*
X149992495Y-103404247D02*
X149992495Y-103261390D01*
X149992495Y-103261390D02*
X150040114Y-103070914D01*
X150040114Y-103070914D02*
X150087733Y-102975676D01*
X150087733Y-102975676D02*
X150182971Y-102880438D01*
X150182971Y-102880438D02*
X150325828Y-102832819D01*
X150325828Y-102832819D02*
X150421066Y-102832819D01*
X150421066Y-102832819D02*
X150563923Y-102880438D01*
X150563923Y-102880438D02*
X150611542Y-102928057D01*
X150992495Y-102928057D02*
X151040114Y-102880438D01*
X151040114Y-102880438D02*
X151135352Y-102832819D01*
X151135352Y-102832819D02*
X151373447Y-102832819D01*
X151373447Y-102832819D02*
X151468685Y-102880438D01*
X151468685Y-102880438D02*
X151516304Y-102928057D01*
X151516304Y-102928057D02*
X151563923Y-103023295D01*
X151563923Y-103023295D02*
X151563923Y-103118533D01*
X151563923Y-103118533D02*
X151516304Y-103261390D01*
X151516304Y-103261390D02*
X150944876Y-103832819D01*
X150944876Y-103832819D02*
X151563923Y-103832819D01*
X152516304Y-103832819D02*
X151944876Y-103832819D01*
X152230590Y-103832819D02*
X152230590Y-102832819D01*
X152230590Y-102832819D02*
X152135352Y-102975676D01*
X152135352Y-102975676D02*
X152040114Y-103070914D01*
X152040114Y-103070914D02*
X151944876Y-103118533D01*
%TO.C,R17*%
X146809619Y-79611457D02*
X146333428Y-79944790D01*
X146809619Y-80182885D02*
X145809619Y-80182885D01*
X145809619Y-80182885D02*
X145809619Y-79801933D01*
X145809619Y-79801933D02*
X145857238Y-79706695D01*
X145857238Y-79706695D02*
X145904857Y-79659076D01*
X145904857Y-79659076D02*
X146000095Y-79611457D01*
X146000095Y-79611457D02*
X146142952Y-79611457D01*
X146142952Y-79611457D02*
X146238190Y-79659076D01*
X146238190Y-79659076D02*
X146285809Y-79706695D01*
X146285809Y-79706695D02*
X146333428Y-79801933D01*
X146333428Y-79801933D02*
X146333428Y-80182885D01*
X146809619Y-78659076D02*
X146809619Y-79230504D01*
X146809619Y-78944790D02*
X145809619Y-78944790D01*
X145809619Y-78944790D02*
X145952476Y-79040028D01*
X145952476Y-79040028D02*
X146047714Y-79135266D01*
X146047714Y-79135266D02*
X146095333Y-79230504D01*
X145809619Y-78325742D02*
X145809619Y-77659076D01*
X145809619Y-77659076D02*
X146809619Y-78087647D01*
%TO.C,Q5*%
X156760057Y-131159238D02*
X156712438Y-131254476D01*
X156712438Y-131254476D02*
X156617200Y-131349714D01*
X156617200Y-131349714D02*
X156474342Y-131492571D01*
X156474342Y-131492571D02*
X156426723Y-131587809D01*
X156426723Y-131587809D02*
X156426723Y-131683047D01*
X156664819Y-131635428D02*
X156617200Y-131730666D01*
X156617200Y-131730666D02*
X156521961Y-131825904D01*
X156521961Y-131825904D02*
X156331485Y-131873523D01*
X156331485Y-131873523D02*
X155998152Y-131873523D01*
X155998152Y-131873523D02*
X155807676Y-131825904D01*
X155807676Y-131825904D02*
X155712438Y-131730666D01*
X155712438Y-131730666D02*
X155664819Y-131635428D01*
X155664819Y-131635428D02*
X155664819Y-131444952D01*
X155664819Y-131444952D02*
X155712438Y-131349714D01*
X155712438Y-131349714D02*
X155807676Y-131254476D01*
X155807676Y-131254476D02*
X155998152Y-131206857D01*
X155998152Y-131206857D02*
X156331485Y-131206857D01*
X156331485Y-131206857D02*
X156521961Y-131254476D01*
X156521961Y-131254476D02*
X156617200Y-131349714D01*
X156617200Y-131349714D02*
X156664819Y-131444952D01*
X156664819Y-131444952D02*
X156664819Y-131635428D01*
X155664819Y-130302095D02*
X155664819Y-130778285D01*
X155664819Y-130778285D02*
X156141009Y-130825904D01*
X156141009Y-130825904D02*
X156093390Y-130778285D01*
X156093390Y-130778285D02*
X156045771Y-130683047D01*
X156045771Y-130683047D02*
X156045771Y-130444952D01*
X156045771Y-130444952D02*
X156093390Y-130349714D01*
X156093390Y-130349714D02*
X156141009Y-130302095D01*
X156141009Y-130302095D02*
X156236247Y-130254476D01*
X156236247Y-130254476D02*
X156474342Y-130254476D01*
X156474342Y-130254476D02*
X156569580Y-130302095D01*
X156569580Y-130302095D02*
X156617200Y-130349714D01*
X156617200Y-130349714D02*
X156664819Y-130444952D01*
X156664819Y-130444952D02*
X156664819Y-130683047D01*
X156664819Y-130683047D02*
X156617200Y-130778285D01*
X156617200Y-130778285D02*
X156569580Y-130825904D01*
%TO.C,R16*%
X151382021Y-92997256D02*
X150905830Y-93330589D01*
X151382021Y-93568684D02*
X150382021Y-93568684D01*
X150382021Y-93568684D02*
X150382021Y-93187732D01*
X150382021Y-93187732D02*
X150429640Y-93092494D01*
X150429640Y-93092494D02*
X150477259Y-93044875D01*
X150477259Y-93044875D02*
X150572497Y-92997256D01*
X150572497Y-92997256D02*
X150715354Y-92997256D01*
X150715354Y-92997256D02*
X150810592Y-93044875D01*
X150810592Y-93044875D02*
X150858211Y-93092494D01*
X150858211Y-93092494D02*
X150905830Y-93187732D01*
X150905830Y-93187732D02*
X150905830Y-93568684D01*
X151382021Y-92044875D02*
X151382021Y-92616303D01*
X151382021Y-92330589D02*
X150382021Y-92330589D01*
X150382021Y-92330589D02*
X150524878Y-92425827D01*
X150524878Y-92425827D02*
X150620116Y-92521065D01*
X150620116Y-92521065D02*
X150667735Y-92616303D01*
X150382021Y-91187732D02*
X150382021Y-91378208D01*
X150382021Y-91378208D02*
X150429640Y-91473446D01*
X150429640Y-91473446D02*
X150477259Y-91521065D01*
X150477259Y-91521065D02*
X150620116Y-91616303D01*
X150620116Y-91616303D02*
X150810592Y-91663922D01*
X150810592Y-91663922D02*
X151191544Y-91663922D01*
X151191544Y-91663922D02*
X151286782Y-91616303D01*
X151286782Y-91616303D02*
X151334402Y-91568684D01*
X151334402Y-91568684D02*
X151382021Y-91473446D01*
X151382021Y-91473446D02*
X151382021Y-91282970D01*
X151382021Y-91282970D02*
X151334402Y-91187732D01*
X151334402Y-91187732D02*
X151286782Y-91140113D01*
X151286782Y-91140113D02*
X151191544Y-91092494D01*
X151191544Y-91092494D02*
X150953449Y-91092494D01*
X150953449Y-91092494D02*
X150858211Y-91140113D01*
X150858211Y-91140113D02*
X150810592Y-91187732D01*
X150810592Y-91187732D02*
X150762973Y-91282970D01*
X150762973Y-91282970D02*
X150762973Y-91473446D01*
X150762973Y-91473446D02*
X150810592Y-91568684D01*
X150810592Y-91568684D02*
X150858211Y-91616303D01*
X150858211Y-91616303D02*
X150953449Y-91663922D01*
D15*
%TO.C,L1*%
X134199333Y-111201419D02*
X133723143Y-111201419D01*
X133723143Y-111201419D02*
X133723143Y-110201419D01*
X135056476Y-111201419D02*
X134485048Y-111201419D01*
X134770762Y-111201419D02*
X134770762Y-110201419D01*
X134770762Y-110201419D02*
X134675524Y-110344276D01*
X134675524Y-110344276D02*
X134580286Y-110439514D01*
X134580286Y-110439514D02*
X134485048Y-110487133D01*
D10*
%TO.C,Q3*%
X166020761Y-125820057D02*
X165925523Y-125772438D01*
X165925523Y-125772438D02*
X165830285Y-125677200D01*
X165830285Y-125677200D02*
X165687428Y-125534342D01*
X165687428Y-125534342D02*
X165592190Y-125486723D01*
X165592190Y-125486723D02*
X165496952Y-125486723D01*
X165544571Y-125724819D02*
X165449333Y-125677200D01*
X165449333Y-125677200D02*
X165354095Y-125581961D01*
X165354095Y-125581961D02*
X165306476Y-125391485D01*
X165306476Y-125391485D02*
X165306476Y-125058152D01*
X165306476Y-125058152D02*
X165354095Y-124867676D01*
X165354095Y-124867676D02*
X165449333Y-124772438D01*
X165449333Y-124772438D02*
X165544571Y-124724819D01*
X165544571Y-124724819D02*
X165735047Y-124724819D01*
X165735047Y-124724819D02*
X165830285Y-124772438D01*
X165830285Y-124772438D02*
X165925523Y-124867676D01*
X165925523Y-124867676D02*
X165973142Y-125058152D01*
X165973142Y-125058152D02*
X165973142Y-125391485D01*
X165973142Y-125391485D02*
X165925523Y-125581961D01*
X165925523Y-125581961D02*
X165830285Y-125677200D01*
X165830285Y-125677200D02*
X165735047Y-125724819D01*
X165735047Y-125724819D02*
X165544571Y-125724819D01*
X166306476Y-124724819D02*
X166925523Y-124724819D01*
X166925523Y-124724819D02*
X166592190Y-125105771D01*
X166592190Y-125105771D02*
X166735047Y-125105771D01*
X166735047Y-125105771D02*
X166830285Y-125153390D01*
X166830285Y-125153390D02*
X166877904Y-125201009D01*
X166877904Y-125201009D02*
X166925523Y-125296247D01*
X166925523Y-125296247D02*
X166925523Y-125534342D01*
X166925523Y-125534342D02*
X166877904Y-125629580D01*
X166877904Y-125629580D02*
X166830285Y-125677200D01*
X166830285Y-125677200D02*
X166735047Y-125724819D01*
X166735047Y-125724819D02*
X166449333Y-125724819D01*
X166449333Y-125724819D02*
X166354095Y-125677200D01*
X166354095Y-125677200D02*
X166306476Y-125629580D01*
%TO.C,D5*%
X150619619Y-83110294D02*
X149619619Y-83110294D01*
X149619619Y-83110294D02*
X149619619Y-82872199D01*
X149619619Y-82872199D02*
X149667238Y-82729342D01*
X149667238Y-82729342D02*
X149762476Y-82634104D01*
X149762476Y-82634104D02*
X149857714Y-82586485D01*
X149857714Y-82586485D02*
X150048190Y-82538866D01*
X150048190Y-82538866D02*
X150191047Y-82538866D01*
X150191047Y-82538866D02*
X150381523Y-82586485D01*
X150381523Y-82586485D02*
X150476761Y-82634104D01*
X150476761Y-82634104D02*
X150572000Y-82729342D01*
X150572000Y-82729342D02*
X150619619Y-82872199D01*
X150619619Y-82872199D02*
X150619619Y-83110294D01*
X149619619Y-81634104D02*
X149619619Y-82110294D01*
X149619619Y-82110294D02*
X150095809Y-82157913D01*
X150095809Y-82157913D02*
X150048190Y-82110294D01*
X150048190Y-82110294D02*
X150000571Y-82015056D01*
X150000571Y-82015056D02*
X150000571Y-81776961D01*
X150000571Y-81776961D02*
X150048190Y-81681723D01*
X150048190Y-81681723D02*
X150095809Y-81634104D01*
X150095809Y-81634104D02*
X150191047Y-81586485D01*
X150191047Y-81586485D02*
X150429142Y-81586485D01*
X150429142Y-81586485D02*
X150524380Y-81634104D01*
X150524380Y-81634104D02*
X150572000Y-81681723D01*
X150572000Y-81681723D02*
X150619619Y-81776961D01*
X150619619Y-81776961D02*
X150619619Y-82015056D01*
X150619619Y-82015056D02*
X150572000Y-82110294D01*
X150572000Y-82110294D02*
X150524380Y-82157913D01*
%TO.C,C8*%
X130971287Y-80400411D02*
X130903943Y-80400411D01*
X130903943Y-80400411D02*
X130769256Y-80333067D01*
X130769256Y-80333067D02*
X130701913Y-80265724D01*
X130701913Y-80265724D02*
X130634569Y-80131037D01*
X130634569Y-80131037D02*
X130634569Y-79996350D01*
X130634569Y-79996350D02*
X130668241Y-79895335D01*
X130668241Y-79895335D02*
X130769256Y-79726976D01*
X130769256Y-79726976D02*
X130870271Y-79625961D01*
X130870271Y-79625961D02*
X131038630Y-79524945D01*
X131038630Y-79524945D02*
X131139645Y-79491274D01*
X131139645Y-79491274D02*
X131274332Y-79491274D01*
X131274332Y-79491274D02*
X131409019Y-79558617D01*
X131409019Y-79558617D02*
X131476363Y-79625961D01*
X131476363Y-79625961D02*
X131543706Y-79760648D01*
X131543706Y-79760648D02*
X131543706Y-79827991D01*
X131712065Y-80467754D02*
X131678393Y-80366739D01*
X131678393Y-80366739D02*
X131678393Y-80299396D01*
X131678393Y-80299396D02*
X131712065Y-80198380D01*
X131712065Y-80198380D02*
X131745737Y-80164709D01*
X131745737Y-80164709D02*
X131846752Y-80131037D01*
X131846752Y-80131037D02*
X131914096Y-80131037D01*
X131914096Y-80131037D02*
X132015111Y-80164709D01*
X132015111Y-80164709D02*
X132149798Y-80299396D01*
X132149798Y-80299396D02*
X132183470Y-80400411D01*
X132183470Y-80400411D02*
X132183470Y-80467754D01*
X132183470Y-80467754D02*
X132149798Y-80568770D01*
X132149798Y-80568770D02*
X132116126Y-80602441D01*
X132116126Y-80602441D02*
X132015111Y-80636113D01*
X132015111Y-80636113D02*
X131947767Y-80636113D01*
X131947767Y-80636113D02*
X131846752Y-80602441D01*
X131846752Y-80602441D02*
X131712065Y-80467754D01*
X131712065Y-80467754D02*
X131611050Y-80434083D01*
X131611050Y-80434083D02*
X131543706Y-80434083D01*
X131543706Y-80434083D02*
X131442691Y-80467754D01*
X131442691Y-80467754D02*
X131308004Y-80602441D01*
X131308004Y-80602441D02*
X131274332Y-80703457D01*
X131274332Y-80703457D02*
X131274332Y-80770800D01*
X131274332Y-80770800D02*
X131308004Y-80871815D01*
X131308004Y-80871815D02*
X131442691Y-81006502D01*
X131442691Y-81006502D02*
X131543706Y-81040174D01*
X131543706Y-81040174D02*
X131611050Y-81040174D01*
X131611050Y-81040174D02*
X131712065Y-81006502D01*
X131712065Y-81006502D02*
X131846752Y-80871815D01*
X131846752Y-80871815D02*
X131880424Y-80770800D01*
X131880424Y-80770800D02*
X131880424Y-80703457D01*
X131880424Y-80703457D02*
X131846752Y-80602441D01*
%TO.C,C24*%
X145393580Y-109862857D02*
X145441200Y-109910476D01*
X145441200Y-109910476D02*
X145488819Y-110053333D01*
X145488819Y-110053333D02*
X145488819Y-110148571D01*
X145488819Y-110148571D02*
X145441200Y-110291428D01*
X145441200Y-110291428D02*
X145345961Y-110386666D01*
X145345961Y-110386666D02*
X145250723Y-110434285D01*
X145250723Y-110434285D02*
X145060247Y-110481904D01*
X145060247Y-110481904D02*
X144917390Y-110481904D01*
X144917390Y-110481904D02*
X144726914Y-110434285D01*
X144726914Y-110434285D02*
X144631676Y-110386666D01*
X144631676Y-110386666D02*
X144536438Y-110291428D01*
X144536438Y-110291428D02*
X144488819Y-110148571D01*
X144488819Y-110148571D02*
X144488819Y-110053333D01*
X144488819Y-110053333D02*
X144536438Y-109910476D01*
X144536438Y-109910476D02*
X144584057Y-109862857D01*
X144584057Y-109481904D02*
X144536438Y-109434285D01*
X144536438Y-109434285D02*
X144488819Y-109339047D01*
X144488819Y-109339047D02*
X144488819Y-109100952D01*
X144488819Y-109100952D02*
X144536438Y-109005714D01*
X144536438Y-109005714D02*
X144584057Y-108958095D01*
X144584057Y-108958095D02*
X144679295Y-108910476D01*
X144679295Y-108910476D02*
X144774533Y-108910476D01*
X144774533Y-108910476D02*
X144917390Y-108958095D01*
X144917390Y-108958095D02*
X145488819Y-109529523D01*
X145488819Y-109529523D02*
X145488819Y-108910476D01*
X144822152Y-108053333D02*
X145488819Y-108053333D01*
X144441200Y-108291428D02*
X145155485Y-108529523D01*
X145155485Y-108529523D02*
X145155485Y-107910476D01*
%TO.C,R6*%
X132509419Y-105551266D02*
X132033228Y-105884599D01*
X132509419Y-106122694D02*
X131509419Y-106122694D01*
X131509419Y-106122694D02*
X131509419Y-105741742D01*
X131509419Y-105741742D02*
X131557038Y-105646504D01*
X131557038Y-105646504D02*
X131604657Y-105598885D01*
X131604657Y-105598885D02*
X131699895Y-105551266D01*
X131699895Y-105551266D02*
X131842752Y-105551266D01*
X131842752Y-105551266D02*
X131937990Y-105598885D01*
X131937990Y-105598885D02*
X131985609Y-105646504D01*
X131985609Y-105646504D02*
X132033228Y-105741742D01*
X132033228Y-105741742D02*
X132033228Y-106122694D01*
X131509419Y-104694123D02*
X131509419Y-104884599D01*
X131509419Y-104884599D02*
X131557038Y-104979837D01*
X131557038Y-104979837D02*
X131604657Y-105027456D01*
X131604657Y-105027456D02*
X131747514Y-105122694D01*
X131747514Y-105122694D02*
X131937990Y-105170313D01*
X131937990Y-105170313D02*
X132318942Y-105170313D01*
X132318942Y-105170313D02*
X132414180Y-105122694D01*
X132414180Y-105122694D02*
X132461800Y-105075075D01*
X132461800Y-105075075D02*
X132509419Y-104979837D01*
X132509419Y-104979837D02*
X132509419Y-104789361D01*
X132509419Y-104789361D02*
X132461800Y-104694123D01*
X132461800Y-104694123D02*
X132414180Y-104646504D01*
X132414180Y-104646504D02*
X132318942Y-104598885D01*
X132318942Y-104598885D02*
X132080847Y-104598885D01*
X132080847Y-104598885D02*
X131985609Y-104646504D01*
X131985609Y-104646504D02*
X131937990Y-104694123D01*
X131937990Y-104694123D02*
X131890371Y-104789361D01*
X131890371Y-104789361D02*
X131890371Y-104979837D01*
X131890371Y-104979837D02*
X131937990Y-105075075D01*
X131937990Y-105075075D02*
X131985609Y-105122694D01*
X131985609Y-105122694D02*
X132080847Y-105170313D01*
%TO.C,C17*%
X122039142Y-102721580D02*
X121991523Y-102769200D01*
X121991523Y-102769200D02*
X121848666Y-102816819D01*
X121848666Y-102816819D02*
X121753428Y-102816819D01*
X121753428Y-102816819D02*
X121610571Y-102769200D01*
X121610571Y-102769200D02*
X121515333Y-102673961D01*
X121515333Y-102673961D02*
X121467714Y-102578723D01*
X121467714Y-102578723D02*
X121420095Y-102388247D01*
X121420095Y-102388247D02*
X121420095Y-102245390D01*
X121420095Y-102245390D02*
X121467714Y-102054914D01*
X121467714Y-102054914D02*
X121515333Y-101959676D01*
X121515333Y-101959676D02*
X121610571Y-101864438D01*
X121610571Y-101864438D02*
X121753428Y-101816819D01*
X121753428Y-101816819D02*
X121848666Y-101816819D01*
X121848666Y-101816819D02*
X121991523Y-101864438D01*
X121991523Y-101864438D02*
X122039142Y-101912057D01*
X122991523Y-102816819D02*
X122420095Y-102816819D01*
X122705809Y-102816819D02*
X122705809Y-101816819D01*
X122705809Y-101816819D02*
X122610571Y-101959676D01*
X122610571Y-101959676D02*
X122515333Y-102054914D01*
X122515333Y-102054914D02*
X122420095Y-102102533D01*
X123324857Y-101816819D02*
X123991523Y-101816819D01*
X123991523Y-101816819D02*
X123562952Y-102816819D01*
%TO.C,C12*%
X132961142Y-73147580D02*
X132913523Y-73195200D01*
X132913523Y-73195200D02*
X132770666Y-73242819D01*
X132770666Y-73242819D02*
X132675428Y-73242819D01*
X132675428Y-73242819D02*
X132532571Y-73195200D01*
X132532571Y-73195200D02*
X132437333Y-73099961D01*
X132437333Y-73099961D02*
X132389714Y-73004723D01*
X132389714Y-73004723D02*
X132342095Y-72814247D01*
X132342095Y-72814247D02*
X132342095Y-72671390D01*
X132342095Y-72671390D02*
X132389714Y-72480914D01*
X132389714Y-72480914D02*
X132437333Y-72385676D01*
X132437333Y-72385676D02*
X132532571Y-72290438D01*
X132532571Y-72290438D02*
X132675428Y-72242819D01*
X132675428Y-72242819D02*
X132770666Y-72242819D01*
X132770666Y-72242819D02*
X132913523Y-72290438D01*
X132913523Y-72290438D02*
X132961142Y-72338057D01*
X133913523Y-73242819D02*
X133342095Y-73242819D01*
X133627809Y-73242819D02*
X133627809Y-72242819D01*
X133627809Y-72242819D02*
X133532571Y-72385676D01*
X133532571Y-72385676D02*
X133437333Y-72480914D01*
X133437333Y-72480914D02*
X133342095Y-72528533D01*
X134294476Y-72338057D02*
X134342095Y-72290438D01*
X134342095Y-72290438D02*
X134437333Y-72242819D01*
X134437333Y-72242819D02*
X134675428Y-72242819D01*
X134675428Y-72242819D02*
X134770666Y-72290438D01*
X134770666Y-72290438D02*
X134818285Y-72338057D01*
X134818285Y-72338057D02*
X134865904Y-72433295D01*
X134865904Y-72433295D02*
X134865904Y-72528533D01*
X134865904Y-72528533D02*
X134818285Y-72671390D01*
X134818285Y-72671390D02*
X134246857Y-73242819D01*
X134246857Y-73242819D02*
X134865904Y-73242819D01*
%TO.C,U3*%
X146089019Y-113142704D02*
X146898542Y-113142704D01*
X146898542Y-113142704D02*
X146993780Y-113095085D01*
X146993780Y-113095085D02*
X147041400Y-113047466D01*
X147041400Y-113047466D02*
X147089019Y-112952228D01*
X147089019Y-112952228D02*
X147089019Y-112761752D01*
X147089019Y-112761752D02*
X147041400Y-112666514D01*
X147041400Y-112666514D02*
X146993780Y-112618895D01*
X146993780Y-112618895D02*
X146898542Y-112571276D01*
X146898542Y-112571276D02*
X146089019Y-112571276D01*
X146089019Y-112190323D02*
X146089019Y-111571276D01*
X146089019Y-111571276D02*
X146469971Y-111904609D01*
X146469971Y-111904609D02*
X146469971Y-111761752D01*
X146469971Y-111761752D02*
X146517590Y-111666514D01*
X146517590Y-111666514D02*
X146565209Y-111618895D01*
X146565209Y-111618895D02*
X146660447Y-111571276D01*
X146660447Y-111571276D02*
X146898542Y-111571276D01*
X146898542Y-111571276D02*
X146993780Y-111618895D01*
X146993780Y-111618895D02*
X147041400Y-111666514D01*
X147041400Y-111666514D02*
X147089019Y-111761752D01*
X147089019Y-111761752D02*
X147089019Y-112047466D01*
X147089019Y-112047466D02*
X147041400Y-112142704D01*
X147041400Y-112142704D02*
X146993780Y-112190323D01*
%TO.C,D4*%
X151382020Y-96343693D02*
X150382020Y-96343693D01*
X150382020Y-96343693D02*
X150382020Y-96105598D01*
X150382020Y-96105598D02*
X150429639Y-95962741D01*
X150429639Y-95962741D02*
X150524877Y-95867503D01*
X150524877Y-95867503D02*
X150620115Y-95819884D01*
X150620115Y-95819884D02*
X150810591Y-95772265D01*
X150810591Y-95772265D02*
X150953448Y-95772265D01*
X150953448Y-95772265D02*
X151143924Y-95819884D01*
X151143924Y-95819884D02*
X151239162Y-95867503D01*
X151239162Y-95867503D02*
X151334401Y-95962741D01*
X151334401Y-95962741D02*
X151382020Y-96105598D01*
X151382020Y-96105598D02*
X151382020Y-96343693D01*
X150715353Y-94915122D02*
X151382020Y-94915122D01*
X150334401Y-95153217D02*
X151048686Y-95391312D01*
X151048686Y-95391312D02*
X151048686Y-94772265D01*
%TO.C,C9*%
X116754872Y-85179602D02*
X116754872Y-85246946D01*
X116754872Y-85246946D02*
X116687528Y-85381633D01*
X116687528Y-85381633D02*
X116620185Y-85448976D01*
X116620185Y-85448976D02*
X116485498Y-85516320D01*
X116485498Y-85516320D02*
X116350811Y-85516320D01*
X116350811Y-85516320D02*
X116249796Y-85482648D01*
X116249796Y-85482648D02*
X116081437Y-85381633D01*
X116081437Y-85381633D02*
X115980422Y-85280618D01*
X115980422Y-85280618D02*
X115879406Y-85112259D01*
X115879406Y-85112259D02*
X115845735Y-85011244D01*
X115845735Y-85011244D02*
X115845735Y-84876557D01*
X115845735Y-84876557D02*
X115913078Y-84741870D01*
X115913078Y-84741870D02*
X115980422Y-84674526D01*
X115980422Y-84674526D02*
X116115109Y-84607183D01*
X116115109Y-84607183D02*
X116182452Y-84607183D01*
X117158933Y-84910228D02*
X117293620Y-84775541D01*
X117293620Y-84775541D02*
X117327292Y-84674526D01*
X117327292Y-84674526D02*
X117327292Y-84607183D01*
X117327292Y-84607183D02*
X117293620Y-84438824D01*
X117293620Y-84438824D02*
X117192605Y-84270465D01*
X117192605Y-84270465D02*
X116923231Y-84001091D01*
X116923231Y-84001091D02*
X116822215Y-83967419D01*
X116822215Y-83967419D02*
X116754872Y-83967419D01*
X116754872Y-83967419D02*
X116653857Y-84001091D01*
X116653857Y-84001091D02*
X116519170Y-84135778D01*
X116519170Y-84135778D02*
X116485498Y-84236793D01*
X116485498Y-84236793D02*
X116485498Y-84304137D01*
X116485498Y-84304137D02*
X116519170Y-84405152D01*
X116519170Y-84405152D02*
X116687528Y-84573511D01*
X116687528Y-84573511D02*
X116788544Y-84607183D01*
X116788544Y-84607183D02*
X116855887Y-84607183D01*
X116855887Y-84607183D02*
X116956902Y-84573511D01*
X116956902Y-84573511D02*
X117091589Y-84438824D01*
X117091589Y-84438824D02*
X117125261Y-84337809D01*
X117125261Y-84337809D02*
X117125261Y-84270465D01*
X117125261Y-84270465D02*
X117091589Y-84169450D01*
%TO.C,J3*%
X129460666Y-71082819D02*
X129460666Y-71797104D01*
X129460666Y-71797104D02*
X129413047Y-71939961D01*
X129413047Y-71939961D02*
X129317809Y-72035200D01*
X129317809Y-72035200D02*
X129174952Y-72082819D01*
X129174952Y-72082819D02*
X129079714Y-72082819D01*
X129841619Y-71082819D02*
X130460666Y-71082819D01*
X130460666Y-71082819D02*
X130127333Y-71463771D01*
X130127333Y-71463771D02*
X130270190Y-71463771D01*
X130270190Y-71463771D02*
X130365428Y-71511390D01*
X130365428Y-71511390D02*
X130413047Y-71559009D01*
X130413047Y-71559009D02*
X130460666Y-71654247D01*
X130460666Y-71654247D02*
X130460666Y-71892342D01*
X130460666Y-71892342D02*
X130413047Y-71987580D01*
X130413047Y-71987580D02*
X130365428Y-72035200D01*
X130365428Y-72035200D02*
X130270190Y-72082819D01*
X130270190Y-72082819D02*
X129984476Y-72082819D01*
X129984476Y-72082819D02*
X129889238Y-72035200D01*
X129889238Y-72035200D02*
X129841619Y-71987580D01*
%TO.C,R2*%
X166570819Y-71540666D02*
X166094628Y-71873999D01*
X166570819Y-72112094D02*
X165570819Y-72112094D01*
X165570819Y-72112094D02*
X165570819Y-71731142D01*
X165570819Y-71731142D02*
X165618438Y-71635904D01*
X165618438Y-71635904D02*
X165666057Y-71588285D01*
X165666057Y-71588285D02*
X165761295Y-71540666D01*
X165761295Y-71540666D02*
X165904152Y-71540666D01*
X165904152Y-71540666D02*
X165999390Y-71588285D01*
X165999390Y-71588285D02*
X166047009Y-71635904D01*
X166047009Y-71635904D02*
X166094628Y-71731142D01*
X166094628Y-71731142D02*
X166094628Y-72112094D01*
X165666057Y-71159713D02*
X165618438Y-71112094D01*
X165618438Y-71112094D02*
X165570819Y-71016856D01*
X165570819Y-71016856D02*
X165570819Y-70778761D01*
X165570819Y-70778761D02*
X165618438Y-70683523D01*
X165618438Y-70683523D02*
X165666057Y-70635904D01*
X165666057Y-70635904D02*
X165761295Y-70588285D01*
X165761295Y-70588285D02*
X165856533Y-70588285D01*
X165856533Y-70588285D02*
X165999390Y-70635904D01*
X165999390Y-70635904D02*
X166570819Y-71207332D01*
X166570819Y-71207332D02*
X166570819Y-70588285D01*
%TO.C,C22*%
X98149580Y-112226856D02*
X98197200Y-112274475D01*
X98197200Y-112274475D02*
X98244819Y-112417332D01*
X98244819Y-112417332D02*
X98244819Y-112512570D01*
X98244819Y-112512570D02*
X98197200Y-112655427D01*
X98197200Y-112655427D02*
X98101961Y-112750665D01*
X98101961Y-112750665D02*
X98006723Y-112798284D01*
X98006723Y-112798284D02*
X97816247Y-112845903D01*
X97816247Y-112845903D02*
X97673390Y-112845903D01*
X97673390Y-112845903D02*
X97482914Y-112798284D01*
X97482914Y-112798284D02*
X97387676Y-112750665D01*
X97387676Y-112750665D02*
X97292438Y-112655427D01*
X97292438Y-112655427D02*
X97244819Y-112512570D01*
X97244819Y-112512570D02*
X97244819Y-112417332D01*
X97244819Y-112417332D02*
X97292438Y-112274475D01*
X97292438Y-112274475D02*
X97340057Y-112226856D01*
X97340057Y-111845903D02*
X97292438Y-111798284D01*
X97292438Y-111798284D02*
X97244819Y-111703046D01*
X97244819Y-111703046D02*
X97244819Y-111464951D01*
X97244819Y-111464951D02*
X97292438Y-111369713D01*
X97292438Y-111369713D02*
X97340057Y-111322094D01*
X97340057Y-111322094D02*
X97435295Y-111274475D01*
X97435295Y-111274475D02*
X97530533Y-111274475D01*
X97530533Y-111274475D02*
X97673390Y-111322094D01*
X97673390Y-111322094D02*
X98244819Y-111893522D01*
X98244819Y-111893522D02*
X98244819Y-111274475D01*
X97340057Y-110893522D02*
X97292438Y-110845903D01*
X97292438Y-110845903D02*
X97244819Y-110750665D01*
X97244819Y-110750665D02*
X97244819Y-110512570D01*
X97244819Y-110512570D02*
X97292438Y-110417332D01*
X97292438Y-110417332D02*
X97340057Y-110369713D01*
X97340057Y-110369713D02*
X97435295Y-110322094D01*
X97435295Y-110322094D02*
X97530533Y-110322094D01*
X97530533Y-110322094D02*
X97673390Y-110369713D01*
X97673390Y-110369713D02*
X98244819Y-110941141D01*
X98244819Y-110941141D02*
X98244819Y-110322094D01*
%TO.C,R18*%
X118564819Y-96096057D02*
X118088628Y-96429390D01*
X118564819Y-96667485D02*
X117564819Y-96667485D01*
X117564819Y-96667485D02*
X117564819Y-96286533D01*
X117564819Y-96286533D02*
X117612438Y-96191295D01*
X117612438Y-96191295D02*
X117660057Y-96143676D01*
X117660057Y-96143676D02*
X117755295Y-96096057D01*
X117755295Y-96096057D02*
X117898152Y-96096057D01*
X117898152Y-96096057D02*
X117993390Y-96143676D01*
X117993390Y-96143676D02*
X118041009Y-96191295D01*
X118041009Y-96191295D02*
X118088628Y-96286533D01*
X118088628Y-96286533D02*
X118088628Y-96667485D01*
X118564819Y-95143676D02*
X118564819Y-95715104D01*
X118564819Y-95429390D02*
X117564819Y-95429390D01*
X117564819Y-95429390D02*
X117707676Y-95524628D01*
X117707676Y-95524628D02*
X117802914Y-95619866D01*
X117802914Y-95619866D02*
X117850533Y-95715104D01*
X117993390Y-94572247D02*
X117945771Y-94667485D01*
X117945771Y-94667485D02*
X117898152Y-94715104D01*
X117898152Y-94715104D02*
X117802914Y-94762723D01*
X117802914Y-94762723D02*
X117755295Y-94762723D01*
X117755295Y-94762723D02*
X117660057Y-94715104D01*
X117660057Y-94715104D02*
X117612438Y-94667485D01*
X117612438Y-94667485D02*
X117564819Y-94572247D01*
X117564819Y-94572247D02*
X117564819Y-94381771D01*
X117564819Y-94381771D02*
X117612438Y-94286533D01*
X117612438Y-94286533D02*
X117660057Y-94238914D01*
X117660057Y-94238914D02*
X117755295Y-94191295D01*
X117755295Y-94191295D02*
X117802914Y-94191295D01*
X117802914Y-94191295D02*
X117898152Y-94238914D01*
X117898152Y-94238914D02*
X117945771Y-94286533D01*
X117945771Y-94286533D02*
X117993390Y-94381771D01*
X117993390Y-94381771D02*
X117993390Y-94572247D01*
X117993390Y-94572247D02*
X118041009Y-94667485D01*
X118041009Y-94667485D02*
X118088628Y-94715104D01*
X118088628Y-94715104D02*
X118183866Y-94762723D01*
X118183866Y-94762723D02*
X118374342Y-94762723D01*
X118374342Y-94762723D02*
X118469580Y-94715104D01*
X118469580Y-94715104D02*
X118517200Y-94667485D01*
X118517200Y-94667485D02*
X118564819Y-94572247D01*
X118564819Y-94572247D02*
X118564819Y-94381771D01*
X118564819Y-94381771D02*
X118517200Y-94286533D01*
X118517200Y-94286533D02*
X118469580Y-94238914D01*
X118469580Y-94238914D02*
X118374342Y-94191295D01*
X118374342Y-94191295D02*
X118183866Y-94191295D01*
X118183866Y-94191295D02*
X118088628Y-94238914D01*
X118088628Y-94238914D02*
X118041009Y-94286533D01*
X118041009Y-94286533D02*
X117993390Y-94381771D01*
%TO.C,R20*%
X107642819Y-85986857D02*
X107166628Y-86320190D01*
X107642819Y-86558285D02*
X106642819Y-86558285D01*
X106642819Y-86558285D02*
X106642819Y-86177333D01*
X106642819Y-86177333D02*
X106690438Y-86082095D01*
X106690438Y-86082095D02*
X106738057Y-86034476D01*
X106738057Y-86034476D02*
X106833295Y-85986857D01*
X106833295Y-85986857D02*
X106976152Y-85986857D01*
X106976152Y-85986857D02*
X107071390Y-86034476D01*
X107071390Y-86034476D02*
X107119009Y-86082095D01*
X107119009Y-86082095D02*
X107166628Y-86177333D01*
X107166628Y-86177333D02*
X107166628Y-86558285D01*
X106738057Y-85605904D02*
X106690438Y-85558285D01*
X106690438Y-85558285D02*
X106642819Y-85463047D01*
X106642819Y-85463047D02*
X106642819Y-85224952D01*
X106642819Y-85224952D02*
X106690438Y-85129714D01*
X106690438Y-85129714D02*
X106738057Y-85082095D01*
X106738057Y-85082095D02*
X106833295Y-85034476D01*
X106833295Y-85034476D02*
X106928533Y-85034476D01*
X106928533Y-85034476D02*
X107071390Y-85082095D01*
X107071390Y-85082095D02*
X107642819Y-85653523D01*
X107642819Y-85653523D02*
X107642819Y-85034476D01*
X106642819Y-84415428D02*
X106642819Y-84320190D01*
X106642819Y-84320190D02*
X106690438Y-84224952D01*
X106690438Y-84224952D02*
X106738057Y-84177333D01*
X106738057Y-84177333D02*
X106833295Y-84129714D01*
X106833295Y-84129714D02*
X107023771Y-84082095D01*
X107023771Y-84082095D02*
X107261866Y-84082095D01*
X107261866Y-84082095D02*
X107452342Y-84129714D01*
X107452342Y-84129714D02*
X107547580Y-84177333D01*
X107547580Y-84177333D02*
X107595200Y-84224952D01*
X107595200Y-84224952D02*
X107642819Y-84320190D01*
X107642819Y-84320190D02*
X107642819Y-84415428D01*
X107642819Y-84415428D02*
X107595200Y-84510666D01*
X107595200Y-84510666D02*
X107547580Y-84558285D01*
X107547580Y-84558285D02*
X107452342Y-84605904D01*
X107452342Y-84605904D02*
X107261866Y-84653523D01*
X107261866Y-84653523D02*
X107023771Y-84653523D01*
X107023771Y-84653523D02*
X106833295Y-84605904D01*
X106833295Y-84605904D02*
X106738057Y-84558285D01*
X106738057Y-84558285D02*
X106690438Y-84510666D01*
X106690438Y-84510666D02*
X106642819Y-84415428D01*
%TO.C,R19*%
X108760419Y-70289657D02*
X108284228Y-70622990D01*
X108760419Y-70861085D02*
X107760419Y-70861085D01*
X107760419Y-70861085D02*
X107760419Y-70480133D01*
X107760419Y-70480133D02*
X107808038Y-70384895D01*
X107808038Y-70384895D02*
X107855657Y-70337276D01*
X107855657Y-70337276D02*
X107950895Y-70289657D01*
X107950895Y-70289657D02*
X108093752Y-70289657D01*
X108093752Y-70289657D02*
X108188990Y-70337276D01*
X108188990Y-70337276D02*
X108236609Y-70384895D01*
X108236609Y-70384895D02*
X108284228Y-70480133D01*
X108284228Y-70480133D02*
X108284228Y-70861085D01*
X108760419Y-69337276D02*
X108760419Y-69908704D01*
X108760419Y-69622990D02*
X107760419Y-69622990D01*
X107760419Y-69622990D02*
X107903276Y-69718228D01*
X107903276Y-69718228D02*
X107998514Y-69813466D01*
X107998514Y-69813466D02*
X108046133Y-69908704D01*
X108760419Y-68861085D02*
X108760419Y-68670609D01*
X108760419Y-68670609D02*
X108712800Y-68575371D01*
X108712800Y-68575371D02*
X108665180Y-68527752D01*
X108665180Y-68527752D02*
X108522323Y-68432514D01*
X108522323Y-68432514D02*
X108331847Y-68384895D01*
X108331847Y-68384895D02*
X107950895Y-68384895D01*
X107950895Y-68384895D02*
X107855657Y-68432514D01*
X107855657Y-68432514D02*
X107808038Y-68480133D01*
X107808038Y-68480133D02*
X107760419Y-68575371D01*
X107760419Y-68575371D02*
X107760419Y-68765847D01*
X107760419Y-68765847D02*
X107808038Y-68861085D01*
X107808038Y-68861085D02*
X107855657Y-68908704D01*
X107855657Y-68908704D02*
X107950895Y-68956323D01*
X107950895Y-68956323D02*
X108188990Y-68956323D01*
X108188990Y-68956323D02*
X108284228Y-68908704D01*
X108284228Y-68908704D02*
X108331847Y-68861085D01*
X108331847Y-68861085D02*
X108379466Y-68765847D01*
X108379466Y-68765847D02*
X108379466Y-68575371D01*
X108379466Y-68575371D02*
X108331847Y-68480133D01*
X108331847Y-68480133D02*
X108284228Y-68432514D01*
X108284228Y-68432514D02*
X108188990Y-68384895D01*
%TO.C,C27*%
X166616142Y-97641580D02*
X166568523Y-97689200D01*
X166568523Y-97689200D02*
X166425666Y-97736819D01*
X166425666Y-97736819D02*
X166330428Y-97736819D01*
X166330428Y-97736819D02*
X166187571Y-97689200D01*
X166187571Y-97689200D02*
X166092333Y-97593961D01*
X166092333Y-97593961D02*
X166044714Y-97498723D01*
X166044714Y-97498723D02*
X165997095Y-97308247D01*
X165997095Y-97308247D02*
X165997095Y-97165390D01*
X165997095Y-97165390D02*
X166044714Y-96974914D01*
X166044714Y-96974914D02*
X166092333Y-96879676D01*
X166092333Y-96879676D02*
X166187571Y-96784438D01*
X166187571Y-96784438D02*
X166330428Y-96736819D01*
X166330428Y-96736819D02*
X166425666Y-96736819D01*
X166425666Y-96736819D02*
X166568523Y-96784438D01*
X166568523Y-96784438D02*
X166616142Y-96832057D01*
X166997095Y-96832057D02*
X167044714Y-96784438D01*
X167044714Y-96784438D02*
X167139952Y-96736819D01*
X167139952Y-96736819D02*
X167378047Y-96736819D01*
X167378047Y-96736819D02*
X167473285Y-96784438D01*
X167473285Y-96784438D02*
X167520904Y-96832057D01*
X167520904Y-96832057D02*
X167568523Y-96927295D01*
X167568523Y-96927295D02*
X167568523Y-97022533D01*
X167568523Y-97022533D02*
X167520904Y-97165390D01*
X167520904Y-97165390D02*
X166949476Y-97736819D01*
X166949476Y-97736819D02*
X167568523Y-97736819D01*
X167901857Y-96736819D02*
X168568523Y-96736819D01*
X168568523Y-96736819D02*
X168139952Y-97736819D01*
%TO.C,R12*%
X99754142Y-101690619D02*
X99420809Y-101214428D01*
X99182714Y-101690619D02*
X99182714Y-100690619D01*
X99182714Y-100690619D02*
X99563666Y-100690619D01*
X99563666Y-100690619D02*
X99658904Y-100738238D01*
X99658904Y-100738238D02*
X99706523Y-100785857D01*
X99706523Y-100785857D02*
X99754142Y-100881095D01*
X99754142Y-100881095D02*
X99754142Y-101023952D01*
X99754142Y-101023952D02*
X99706523Y-101119190D01*
X99706523Y-101119190D02*
X99658904Y-101166809D01*
X99658904Y-101166809D02*
X99563666Y-101214428D01*
X99563666Y-101214428D02*
X99182714Y-101214428D01*
X100706523Y-101690619D02*
X100135095Y-101690619D01*
X100420809Y-101690619D02*
X100420809Y-100690619D01*
X100420809Y-100690619D02*
X100325571Y-100833476D01*
X100325571Y-100833476D02*
X100230333Y-100928714D01*
X100230333Y-100928714D02*
X100135095Y-100976333D01*
X101087476Y-100785857D02*
X101135095Y-100738238D01*
X101135095Y-100738238D02*
X101230333Y-100690619D01*
X101230333Y-100690619D02*
X101468428Y-100690619D01*
X101468428Y-100690619D02*
X101563666Y-100738238D01*
X101563666Y-100738238D02*
X101611285Y-100785857D01*
X101611285Y-100785857D02*
X101658904Y-100881095D01*
X101658904Y-100881095D02*
X101658904Y-100976333D01*
X101658904Y-100976333D02*
X101611285Y-101119190D01*
X101611285Y-101119190D02*
X101039857Y-101690619D01*
X101039857Y-101690619D02*
X101658904Y-101690619D01*
%TO.C,D3*%
X164570819Y-80240094D02*
X163570819Y-80240094D01*
X163570819Y-80240094D02*
X163570819Y-80001999D01*
X163570819Y-80001999D02*
X163618438Y-79859142D01*
X163618438Y-79859142D02*
X163713676Y-79763904D01*
X163713676Y-79763904D02*
X163808914Y-79716285D01*
X163808914Y-79716285D02*
X163999390Y-79668666D01*
X163999390Y-79668666D02*
X164142247Y-79668666D01*
X164142247Y-79668666D02*
X164332723Y-79716285D01*
X164332723Y-79716285D02*
X164427961Y-79763904D01*
X164427961Y-79763904D02*
X164523200Y-79859142D01*
X164523200Y-79859142D02*
X164570819Y-80001999D01*
X164570819Y-80001999D02*
X164570819Y-80240094D01*
X163570819Y-79335332D02*
X163570819Y-78716285D01*
X163570819Y-78716285D02*
X163951771Y-79049618D01*
X163951771Y-79049618D02*
X163951771Y-78906761D01*
X163951771Y-78906761D02*
X163999390Y-78811523D01*
X163999390Y-78811523D02*
X164047009Y-78763904D01*
X164047009Y-78763904D02*
X164142247Y-78716285D01*
X164142247Y-78716285D02*
X164380342Y-78716285D01*
X164380342Y-78716285D02*
X164475580Y-78763904D01*
X164475580Y-78763904D02*
X164523200Y-78811523D01*
X164523200Y-78811523D02*
X164570819Y-78906761D01*
X164570819Y-78906761D02*
X164570819Y-79192475D01*
X164570819Y-79192475D02*
X164523200Y-79287713D01*
X164523200Y-79287713D02*
X164475580Y-79335332D01*
%TO.C,U5*%
X132751695Y-97194019D02*
X132751695Y-98003542D01*
X132751695Y-98003542D02*
X132799314Y-98098780D01*
X132799314Y-98098780D02*
X132846933Y-98146400D01*
X132846933Y-98146400D02*
X132942171Y-98194019D01*
X132942171Y-98194019D02*
X133132647Y-98194019D01*
X133132647Y-98194019D02*
X133227885Y-98146400D01*
X133227885Y-98146400D02*
X133275504Y-98098780D01*
X133275504Y-98098780D02*
X133323123Y-98003542D01*
X133323123Y-98003542D02*
X133323123Y-97194019D01*
X134275504Y-97194019D02*
X133799314Y-97194019D01*
X133799314Y-97194019D02*
X133751695Y-97670209D01*
X133751695Y-97670209D02*
X133799314Y-97622590D01*
X133799314Y-97622590D02*
X133894552Y-97574971D01*
X133894552Y-97574971D02*
X134132647Y-97574971D01*
X134132647Y-97574971D02*
X134227885Y-97622590D01*
X134227885Y-97622590D02*
X134275504Y-97670209D01*
X134275504Y-97670209D02*
X134323123Y-97765447D01*
X134323123Y-97765447D02*
X134323123Y-98003542D01*
X134323123Y-98003542D02*
X134275504Y-98098780D01*
X134275504Y-98098780D02*
X134227885Y-98146400D01*
X134227885Y-98146400D02*
X134132647Y-98194019D01*
X134132647Y-98194019D02*
X133894552Y-98194019D01*
X133894552Y-98194019D02*
X133799314Y-98146400D01*
X133799314Y-98146400D02*
X133751695Y-98098780D01*
%TO.C,FB2*%
X112899960Y-84106472D02*
X112664258Y-84342174D01*
X113034647Y-84712563D02*
X112327540Y-84005456D01*
X112327540Y-84005456D02*
X112664258Y-83668739D01*
X113506052Y-83500380D02*
X113640739Y-83433036D01*
X113640739Y-83433036D02*
X113708082Y-83433036D01*
X113708082Y-83433036D02*
X113809098Y-83466708D01*
X113809098Y-83466708D02*
X113910113Y-83567723D01*
X113910113Y-83567723D02*
X113943785Y-83668739D01*
X113943785Y-83668739D02*
X113943785Y-83736082D01*
X113943785Y-83736082D02*
X113910113Y-83837097D01*
X113910113Y-83837097D02*
X113640739Y-84106471D01*
X113640739Y-84106471D02*
X112933632Y-83399365D01*
X112933632Y-83399365D02*
X113169334Y-83163662D01*
X113169334Y-83163662D02*
X113270350Y-83129991D01*
X113270350Y-83129991D02*
X113337693Y-83129991D01*
X113337693Y-83129991D02*
X113438708Y-83163662D01*
X113438708Y-83163662D02*
X113506052Y-83231006D01*
X113506052Y-83231006D02*
X113539724Y-83332021D01*
X113539724Y-83332021D02*
X113539724Y-83399365D01*
X113539724Y-83399365D02*
X113506052Y-83500380D01*
X113506052Y-83500380D02*
X113270350Y-83736082D01*
X113674411Y-82793273D02*
X113674411Y-82725930D01*
X113674411Y-82725930D02*
X113708082Y-82624914D01*
X113708082Y-82624914D02*
X113876441Y-82456556D01*
X113876441Y-82456556D02*
X113977456Y-82422884D01*
X113977456Y-82422884D02*
X114044800Y-82422884D01*
X114044800Y-82422884D02*
X114145815Y-82456556D01*
X114145815Y-82456556D02*
X114213159Y-82523899D01*
X114213159Y-82523899D02*
X114280502Y-82658586D01*
X114280502Y-82658586D02*
X114280502Y-83466708D01*
X114280502Y-83466708D02*
X114718235Y-83028975D01*
%TO.C,Q1*%
X120125259Y-127603240D02*
X120077640Y-127698478D01*
X120077640Y-127698478D02*
X119982402Y-127793716D01*
X119982402Y-127793716D02*
X119839544Y-127936573D01*
X119839544Y-127936573D02*
X119791925Y-128031811D01*
X119791925Y-128031811D02*
X119791925Y-128127049D01*
X120030021Y-128079430D02*
X119982402Y-128174668D01*
X119982402Y-128174668D02*
X119887163Y-128269906D01*
X119887163Y-128269906D02*
X119696687Y-128317525D01*
X119696687Y-128317525D02*
X119363354Y-128317525D01*
X119363354Y-128317525D02*
X119172878Y-128269906D01*
X119172878Y-128269906D02*
X119077640Y-128174668D01*
X119077640Y-128174668D02*
X119030021Y-128079430D01*
X119030021Y-128079430D02*
X119030021Y-127888954D01*
X119030021Y-127888954D02*
X119077640Y-127793716D01*
X119077640Y-127793716D02*
X119172878Y-127698478D01*
X119172878Y-127698478D02*
X119363354Y-127650859D01*
X119363354Y-127650859D02*
X119696687Y-127650859D01*
X119696687Y-127650859D02*
X119887163Y-127698478D01*
X119887163Y-127698478D02*
X119982402Y-127793716D01*
X119982402Y-127793716D02*
X120030021Y-127888954D01*
X120030021Y-127888954D02*
X120030021Y-128079430D01*
X120030021Y-126698478D02*
X120030021Y-127269906D01*
X120030021Y-126984192D02*
X119030021Y-126984192D01*
X119030021Y-126984192D02*
X119172878Y-127079430D01*
X119172878Y-127079430D02*
X119268116Y-127174668D01*
X119268116Y-127174668D02*
X119315735Y-127269906D01*
%TO.C,R9*%
X103719333Y-106284419D02*
X103386000Y-105808228D01*
X103147905Y-106284419D02*
X103147905Y-105284419D01*
X103147905Y-105284419D02*
X103528857Y-105284419D01*
X103528857Y-105284419D02*
X103624095Y-105332038D01*
X103624095Y-105332038D02*
X103671714Y-105379657D01*
X103671714Y-105379657D02*
X103719333Y-105474895D01*
X103719333Y-105474895D02*
X103719333Y-105617752D01*
X103719333Y-105617752D02*
X103671714Y-105712990D01*
X103671714Y-105712990D02*
X103624095Y-105760609D01*
X103624095Y-105760609D02*
X103528857Y-105808228D01*
X103528857Y-105808228D02*
X103147905Y-105808228D01*
X104195524Y-106284419D02*
X104386000Y-106284419D01*
X104386000Y-106284419D02*
X104481238Y-106236800D01*
X104481238Y-106236800D02*
X104528857Y-106189180D01*
X104528857Y-106189180D02*
X104624095Y-106046323D01*
X104624095Y-106046323D02*
X104671714Y-105855847D01*
X104671714Y-105855847D02*
X104671714Y-105474895D01*
X104671714Y-105474895D02*
X104624095Y-105379657D01*
X104624095Y-105379657D02*
X104576476Y-105332038D01*
X104576476Y-105332038D02*
X104481238Y-105284419D01*
X104481238Y-105284419D02*
X104290762Y-105284419D01*
X104290762Y-105284419D02*
X104195524Y-105332038D01*
X104195524Y-105332038D02*
X104147905Y-105379657D01*
X104147905Y-105379657D02*
X104100286Y-105474895D01*
X104100286Y-105474895D02*
X104100286Y-105712990D01*
X104100286Y-105712990D02*
X104147905Y-105808228D01*
X104147905Y-105808228D02*
X104195524Y-105855847D01*
X104195524Y-105855847D02*
X104290762Y-105903466D01*
X104290762Y-105903466D02*
X104481238Y-105903466D01*
X104481238Y-105903466D02*
X104576476Y-105855847D01*
X104576476Y-105855847D02*
X104624095Y-105808228D01*
X104624095Y-105808228D02*
X104671714Y-105712990D01*
%TO.C,C23*%
X142980580Y-125306057D02*
X143028200Y-125353676D01*
X143028200Y-125353676D02*
X143075819Y-125496533D01*
X143075819Y-125496533D02*
X143075819Y-125591771D01*
X143075819Y-125591771D02*
X143028200Y-125734628D01*
X143028200Y-125734628D02*
X142932961Y-125829866D01*
X142932961Y-125829866D02*
X142837723Y-125877485D01*
X142837723Y-125877485D02*
X142647247Y-125925104D01*
X142647247Y-125925104D02*
X142504390Y-125925104D01*
X142504390Y-125925104D02*
X142313914Y-125877485D01*
X142313914Y-125877485D02*
X142218676Y-125829866D01*
X142218676Y-125829866D02*
X142123438Y-125734628D01*
X142123438Y-125734628D02*
X142075819Y-125591771D01*
X142075819Y-125591771D02*
X142075819Y-125496533D01*
X142075819Y-125496533D02*
X142123438Y-125353676D01*
X142123438Y-125353676D02*
X142171057Y-125306057D01*
X142171057Y-124925104D02*
X142123438Y-124877485D01*
X142123438Y-124877485D02*
X142075819Y-124782247D01*
X142075819Y-124782247D02*
X142075819Y-124544152D01*
X142075819Y-124544152D02*
X142123438Y-124448914D01*
X142123438Y-124448914D02*
X142171057Y-124401295D01*
X142171057Y-124401295D02*
X142266295Y-124353676D01*
X142266295Y-124353676D02*
X142361533Y-124353676D01*
X142361533Y-124353676D02*
X142504390Y-124401295D01*
X142504390Y-124401295D02*
X143075819Y-124972723D01*
X143075819Y-124972723D02*
X143075819Y-124353676D01*
X142075819Y-124020342D02*
X142075819Y-123401295D01*
X142075819Y-123401295D02*
X142456771Y-123734628D01*
X142456771Y-123734628D02*
X142456771Y-123591771D01*
X142456771Y-123591771D02*
X142504390Y-123496533D01*
X142504390Y-123496533D02*
X142552009Y-123448914D01*
X142552009Y-123448914D02*
X142647247Y-123401295D01*
X142647247Y-123401295D02*
X142885342Y-123401295D01*
X142885342Y-123401295D02*
X142980580Y-123448914D01*
X142980580Y-123448914D02*
X143028200Y-123496533D01*
X143028200Y-123496533D02*
X143075819Y-123591771D01*
X143075819Y-123591771D02*
X143075819Y-123877485D01*
X143075819Y-123877485D02*
X143028200Y-123972723D01*
X143028200Y-123972723D02*
X142980580Y-124020342D01*
%TO.C,U4*%
X98794219Y-117514504D02*
X99603742Y-117514504D01*
X99603742Y-117514504D02*
X99698980Y-117466885D01*
X99698980Y-117466885D02*
X99746600Y-117419266D01*
X99746600Y-117419266D02*
X99794219Y-117324028D01*
X99794219Y-117324028D02*
X99794219Y-117133552D01*
X99794219Y-117133552D02*
X99746600Y-117038314D01*
X99746600Y-117038314D02*
X99698980Y-116990695D01*
X99698980Y-116990695D02*
X99603742Y-116943076D01*
X99603742Y-116943076D02*
X98794219Y-116943076D01*
X99127552Y-116038314D02*
X99794219Y-116038314D01*
X98746600Y-116276409D02*
X99460885Y-116514504D01*
X99460885Y-116514504D02*
X99460885Y-115895457D01*
%TO.C,R13*%
X100167619Y-105582457D02*
X99691428Y-105915790D01*
X100167619Y-106153885D02*
X99167619Y-106153885D01*
X99167619Y-106153885D02*
X99167619Y-105772933D01*
X99167619Y-105772933D02*
X99215238Y-105677695D01*
X99215238Y-105677695D02*
X99262857Y-105630076D01*
X99262857Y-105630076D02*
X99358095Y-105582457D01*
X99358095Y-105582457D02*
X99500952Y-105582457D01*
X99500952Y-105582457D02*
X99596190Y-105630076D01*
X99596190Y-105630076D02*
X99643809Y-105677695D01*
X99643809Y-105677695D02*
X99691428Y-105772933D01*
X99691428Y-105772933D02*
X99691428Y-106153885D01*
X100167619Y-104630076D02*
X100167619Y-105201504D01*
X100167619Y-104915790D02*
X99167619Y-104915790D01*
X99167619Y-104915790D02*
X99310476Y-105011028D01*
X99310476Y-105011028D02*
X99405714Y-105106266D01*
X99405714Y-105106266D02*
X99453333Y-105201504D01*
X99167619Y-104296742D02*
X99167619Y-103677695D01*
X99167619Y-103677695D02*
X99548571Y-104011028D01*
X99548571Y-104011028D02*
X99548571Y-103868171D01*
X99548571Y-103868171D02*
X99596190Y-103772933D01*
X99596190Y-103772933D02*
X99643809Y-103725314D01*
X99643809Y-103725314D02*
X99739047Y-103677695D01*
X99739047Y-103677695D02*
X99977142Y-103677695D01*
X99977142Y-103677695D02*
X100072380Y-103725314D01*
X100072380Y-103725314D02*
X100120000Y-103772933D01*
X100120000Y-103772933D02*
X100167619Y-103868171D01*
X100167619Y-103868171D02*
X100167619Y-104153885D01*
X100167619Y-104153885D02*
X100120000Y-104249123D01*
X100120000Y-104249123D02*
X100072380Y-104296742D01*
%TO.C,C26*%
X110863142Y-98657580D02*
X110815523Y-98705200D01*
X110815523Y-98705200D02*
X110672666Y-98752819D01*
X110672666Y-98752819D02*
X110577428Y-98752819D01*
X110577428Y-98752819D02*
X110434571Y-98705200D01*
X110434571Y-98705200D02*
X110339333Y-98609961D01*
X110339333Y-98609961D02*
X110291714Y-98514723D01*
X110291714Y-98514723D02*
X110244095Y-98324247D01*
X110244095Y-98324247D02*
X110244095Y-98181390D01*
X110244095Y-98181390D02*
X110291714Y-97990914D01*
X110291714Y-97990914D02*
X110339333Y-97895676D01*
X110339333Y-97895676D02*
X110434571Y-97800438D01*
X110434571Y-97800438D02*
X110577428Y-97752819D01*
X110577428Y-97752819D02*
X110672666Y-97752819D01*
X110672666Y-97752819D02*
X110815523Y-97800438D01*
X110815523Y-97800438D02*
X110863142Y-97848057D01*
X111244095Y-97848057D02*
X111291714Y-97800438D01*
X111291714Y-97800438D02*
X111386952Y-97752819D01*
X111386952Y-97752819D02*
X111625047Y-97752819D01*
X111625047Y-97752819D02*
X111720285Y-97800438D01*
X111720285Y-97800438D02*
X111767904Y-97848057D01*
X111767904Y-97848057D02*
X111815523Y-97943295D01*
X111815523Y-97943295D02*
X111815523Y-98038533D01*
X111815523Y-98038533D02*
X111767904Y-98181390D01*
X111767904Y-98181390D02*
X111196476Y-98752819D01*
X111196476Y-98752819D02*
X111815523Y-98752819D01*
X112672666Y-97752819D02*
X112482190Y-97752819D01*
X112482190Y-97752819D02*
X112386952Y-97800438D01*
X112386952Y-97800438D02*
X112339333Y-97848057D01*
X112339333Y-97848057D02*
X112244095Y-97990914D01*
X112244095Y-97990914D02*
X112196476Y-98181390D01*
X112196476Y-98181390D02*
X112196476Y-98562342D01*
X112196476Y-98562342D02*
X112244095Y-98657580D01*
X112244095Y-98657580D02*
X112291714Y-98705200D01*
X112291714Y-98705200D02*
X112386952Y-98752819D01*
X112386952Y-98752819D02*
X112577428Y-98752819D01*
X112577428Y-98752819D02*
X112672666Y-98705200D01*
X112672666Y-98705200D02*
X112720285Y-98657580D01*
X112720285Y-98657580D02*
X112767904Y-98562342D01*
X112767904Y-98562342D02*
X112767904Y-98324247D01*
X112767904Y-98324247D02*
X112720285Y-98229009D01*
X112720285Y-98229009D02*
X112672666Y-98181390D01*
X112672666Y-98181390D02*
X112577428Y-98133771D01*
X112577428Y-98133771D02*
X112386952Y-98133771D01*
X112386952Y-98133771D02*
X112291714Y-98181390D01*
X112291714Y-98181390D02*
X112244095Y-98229009D01*
X112244095Y-98229009D02*
X112196476Y-98324247D01*
%TO.C,C16*%
X107166580Y-129166857D02*
X107214200Y-129214476D01*
X107214200Y-129214476D02*
X107261819Y-129357333D01*
X107261819Y-129357333D02*
X107261819Y-129452571D01*
X107261819Y-129452571D02*
X107214200Y-129595428D01*
X107214200Y-129595428D02*
X107118961Y-129690666D01*
X107118961Y-129690666D02*
X107023723Y-129738285D01*
X107023723Y-129738285D02*
X106833247Y-129785904D01*
X106833247Y-129785904D02*
X106690390Y-129785904D01*
X106690390Y-129785904D02*
X106499914Y-129738285D01*
X106499914Y-129738285D02*
X106404676Y-129690666D01*
X106404676Y-129690666D02*
X106309438Y-129595428D01*
X106309438Y-129595428D02*
X106261819Y-129452571D01*
X106261819Y-129452571D02*
X106261819Y-129357333D01*
X106261819Y-129357333D02*
X106309438Y-129214476D01*
X106309438Y-129214476D02*
X106357057Y-129166857D01*
X107261819Y-128214476D02*
X107261819Y-128785904D01*
X107261819Y-128500190D02*
X106261819Y-128500190D01*
X106261819Y-128500190D02*
X106404676Y-128595428D01*
X106404676Y-128595428D02*
X106499914Y-128690666D01*
X106499914Y-128690666D02*
X106547533Y-128785904D01*
X106261819Y-127357333D02*
X106261819Y-127547809D01*
X106261819Y-127547809D02*
X106309438Y-127643047D01*
X106309438Y-127643047D02*
X106357057Y-127690666D01*
X106357057Y-127690666D02*
X106499914Y-127785904D01*
X106499914Y-127785904D02*
X106690390Y-127833523D01*
X106690390Y-127833523D02*
X107071342Y-127833523D01*
X107071342Y-127833523D02*
X107166580Y-127785904D01*
X107166580Y-127785904D02*
X107214200Y-127738285D01*
X107214200Y-127738285D02*
X107261819Y-127643047D01*
X107261819Y-127643047D02*
X107261819Y-127452571D01*
X107261819Y-127452571D02*
X107214200Y-127357333D01*
X107214200Y-127357333D02*
X107166580Y-127309714D01*
X107166580Y-127309714D02*
X107071342Y-127262095D01*
X107071342Y-127262095D02*
X106833247Y-127262095D01*
X106833247Y-127262095D02*
X106738009Y-127309714D01*
X106738009Y-127309714D02*
X106690390Y-127357333D01*
X106690390Y-127357333D02*
X106642771Y-127452571D01*
X106642771Y-127452571D02*
X106642771Y-127643047D01*
X106642771Y-127643047D02*
X106690390Y-127738285D01*
X106690390Y-127738285D02*
X106738009Y-127785904D01*
X106738009Y-127785904D02*
X106833247Y-127833523D01*
%TO.C,R15*%
X136517142Y-105102819D02*
X136183809Y-104626628D01*
X135945714Y-105102819D02*
X135945714Y-104102819D01*
X135945714Y-104102819D02*
X136326666Y-104102819D01*
X136326666Y-104102819D02*
X136421904Y-104150438D01*
X136421904Y-104150438D02*
X136469523Y-104198057D01*
X136469523Y-104198057D02*
X136517142Y-104293295D01*
X136517142Y-104293295D02*
X136517142Y-104436152D01*
X136517142Y-104436152D02*
X136469523Y-104531390D01*
X136469523Y-104531390D02*
X136421904Y-104579009D01*
X136421904Y-104579009D02*
X136326666Y-104626628D01*
X136326666Y-104626628D02*
X135945714Y-104626628D01*
X137469523Y-105102819D02*
X136898095Y-105102819D01*
X137183809Y-105102819D02*
X137183809Y-104102819D01*
X137183809Y-104102819D02*
X137088571Y-104245676D01*
X137088571Y-104245676D02*
X136993333Y-104340914D01*
X136993333Y-104340914D02*
X136898095Y-104388533D01*
X138374285Y-104102819D02*
X137898095Y-104102819D01*
X137898095Y-104102819D02*
X137850476Y-104579009D01*
X137850476Y-104579009D02*
X137898095Y-104531390D01*
X137898095Y-104531390D02*
X137993333Y-104483771D01*
X137993333Y-104483771D02*
X138231428Y-104483771D01*
X138231428Y-104483771D02*
X138326666Y-104531390D01*
X138326666Y-104531390D02*
X138374285Y-104579009D01*
X138374285Y-104579009D02*
X138421904Y-104674247D01*
X138421904Y-104674247D02*
X138421904Y-104912342D01*
X138421904Y-104912342D02*
X138374285Y-105007580D01*
X138374285Y-105007580D02*
X138326666Y-105055200D01*
X138326666Y-105055200D02*
X138231428Y-105102819D01*
X138231428Y-105102819D02*
X137993333Y-105102819D01*
X137993333Y-105102819D02*
X137898095Y-105055200D01*
X137898095Y-105055200D02*
X137850476Y-105007580D01*
%TO.C,C10*%
X114861693Y-85036830D02*
X114861693Y-85104174D01*
X114861693Y-85104174D02*
X114794349Y-85238861D01*
X114794349Y-85238861D02*
X114727006Y-85306204D01*
X114727006Y-85306204D02*
X114592319Y-85373548D01*
X114592319Y-85373548D02*
X114457632Y-85373548D01*
X114457632Y-85373548D02*
X114356617Y-85339876D01*
X114356617Y-85339876D02*
X114188258Y-85238861D01*
X114188258Y-85238861D02*
X114087243Y-85137846D01*
X114087243Y-85137846D02*
X113986227Y-84969487D01*
X113986227Y-84969487D02*
X113952556Y-84868472D01*
X113952556Y-84868472D02*
X113952556Y-84733785D01*
X113952556Y-84733785D02*
X114019899Y-84599098D01*
X114019899Y-84599098D02*
X114087243Y-84531754D01*
X114087243Y-84531754D02*
X114221930Y-84464411D01*
X114221930Y-84464411D02*
X114289273Y-84464411D01*
X115602471Y-84430739D02*
X115198410Y-84834800D01*
X115400441Y-84632769D02*
X114693334Y-83925663D01*
X114693334Y-83925663D02*
X114727006Y-84094021D01*
X114727006Y-84094021D02*
X114727006Y-84228708D01*
X114727006Y-84228708D02*
X114693334Y-84329724D01*
X115333098Y-83285899D02*
X115400441Y-83218556D01*
X115400441Y-83218556D02*
X115501456Y-83184884D01*
X115501456Y-83184884D02*
X115568800Y-83184884D01*
X115568800Y-83184884D02*
X115669815Y-83218556D01*
X115669815Y-83218556D02*
X115838174Y-83319571D01*
X115838174Y-83319571D02*
X116006533Y-83487930D01*
X116006533Y-83487930D02*
X116107548Y-83656288D01*
X116107548Y-83656288D02*
X116141220Y-83757304D01*
X116141220Y-83757304D02*
X116141220Y-83824647D01*
X116141220Y-83824647D02*
X116107548Y-83925662D01*
X116107548Y-83925662D02*
X116040204Y-83993006D01*
X116040204Y-83993006D02*
X115939189Y-84026678D01*
X115939189Y-84026678D02*
X115871846Y-84026678D01*
X115871846Y-84026678D02*
X115770830Y-83993006D01*
X115770830Y-83993006D02*
X115602472Y-83891991D01*
X115602472Y-83891991D02*
X115434113Y-83723632D01*
X115434113Y-83723632D02*
X115333098Y-83555273D01*
X115333098Y-83555273D02*
X115299426Y-83454258D01*
X115299426Y-83454258D02*
X115299426Y-83386914D01*
X115299426Y-83386914D02*
X115333098Y-83285899D01*
%TO.C,J2*%
X141906666Y-71082819D02*
X141906666Y-71797104D01*
X141906666Y-71797104D02*
X141859047Y-71939961D01*
X141859047Y-71939961D02*
X141763809Y-72035200D01*
X141763809Y-72035200D02*
X141620952Y-72082819D01*
X141620952Y-72082819D02*
X141525714Y-72082819D01*
X142335238Y-71178057D02*
X142382857Y-71130438D01*
X142382857Y-71130438D02*
X142478095Y-71082819D01*
X142478095Y-71082819D02*
X142716190Y-71082819D01*
X142716190Y-71082819D02*
X142811428Y-71130438D01*
X142811428Y-71130438D02*
X142859047Y-71178057D01*
X142859047Y-71178057D02*
X142906666Y-71273295D01*
X142906666Y-71273295D02*
X142906666Y-71368533D01*
X142906666Y-71368533D02*
X142859047Y-71511390D01*
X142859047Y-71511390D02*
X142287619Y-72082819D01*
X142287619Y-72082819D02*
X142906666Y-72082819D01*
D15*
%TO.C,SW1*%
X105254200Y-75374667D02*
X105206580Y-75517524D01*
X105206580Y-75517524D02*
X105206580Y-75755619D01*
X105206580Y-75755619D02*
X105254200Y-75850857D01*
X105254200Y-75850857D02*
X105301819Y-75898476D01*
X105301819Y-75898476D02*
X105397057Y-75946095D01*
X105397057Y-75946095D02*
X105492295Y-75946095D01*
X105492295Y-75946095D02*
X105587533Y-75898476D01*
X105587533Y-75898476D02*
X105635152Y-75850857D01*
X105635152Y-75850857D02*
X105682771Y-75755619D01*
X105682771Y-75755619D02*
X105730390Y-75565143D01*
X105730390Y-75565143D02*
X105778009Y-75469905D01*
X105778009Y-75469905D02*
X105825628Y-75422286D01*
X105825628Y-75422286D02*
X105920866Y-75374667D01*
X105920866Y-75374667D02*
X106016104Y-75374667D01*
X106016104Y-75374667D02*
X106111342Y-75422286D01*
X106111342Y-75422286D02*
X106158961Y-75469905D01*
X106158961Y-75469905D02*
X106206580Y-75565143D01*
X106206580Y-75565143D02*
X106206580Y-75803238D01*
X106206580Y-75803238D02*
X106158961Y-75946095D01*
X106206580Y-76279429D02*
X105206580Y-76517524D01*
X105206580Y-76517524D02*
X105920866Y-76708000D01*
X105920866Y-76708000D02*
X105206580Y-76898476D01*
X105206580Y-76898476D02*
X106206580Y-77136572D01*
X105206580Y-78041333D02*
X105206580Y-77469905D01*
X105206580Y-77755619D02*
X106206580Y-77755619D01*
X106206580Y-77755619D02*
X106063723Y-77660381D01*
X106063723Y-77660381D02*
X105968485Y-77565143D01*
X105968485Y-77565143D02*
X105920866Y-77469905D01*
D10*
%TO.C,C14*%
X141075580Y-81160857D02*
X141123200Y-81208476D01*
X141123200Y-81208476D02*
X141170819Y-81351333D01*
X141170819Y-81351333D02*
X141170819Y-81446571D01*
X141170819Y-81446571D02*
X141123200Y-81589428D01*
X141123200Y-81589428D02*
X141027961Y-81684666D01*
X141027961Y-81684666D02*
X140932723Y-81732285D01*
X140932723Y-81732285D02*
X140742247Y-81779904D01*
X140742247Y-81779904D02*
X140599390Y-81779904D01*
X140599390Y-81779904D02*
X140408914Y-81732285D01*
X140408914Y-81732285D02*
X140313676Y-81684666D01*
X140313676Y-81684666D02*
X140218438Y-81589428D01*
X140218438Y-81589428D02*
X140170819Y-81446571D01*
X140170819Y-81446571D02*
X140170819Y-81351333D01*
X140170819Y-81351333D02*
X140218438Y-81208476D01*
X140218438Y-81208476D02*
X140266057Y-81160857D01*
X141170819Y-80208476D02*
X141170819Y-80779904D01*
X141170819Y-80494190D02*
X140170819Y-80494190D01*
X140170819Y-80494190D02*
X140313676Y-80589428D01*
X140313676Y-80589428D02*
X140408914Y-80684666D01*
X140408914Y-80684666D02*
X140456533Y-80779904D01*
X140504152Y-79351333D02*
X141170819Y-79351333D01*
X140123200Y-79589428D02*
X140837485Y-79827523D01*
X140837485Y-79827523D02*
X140837485Y-79208476D01*
%TO.C,R10*%
X158361142Y-129646819D02*
X158027809Y-129170628D01*
X157789714Y-129646819D02*
X157789714Y-128646819D01*
X157789714Y-128646819D02*
X158170666Y-128646819D01*
X158170666Y-128646819D02*
X158265904Y-128694438D01*
X158265904Y-128694438D02*
X158313523Y-128742057D01*
X158313523Y-128742057D02*
X158361142Y-128837295D01*
X158361142Y-128837295D02*
X158361142Y-128980152D01*
X158361142Y-128980152D02*
X158313523Y-129075390D01*
X158313523Y-129075390D02*
X158265904Y-129123009D01*
X158265904Y-129123009D02*
X158170666Y-129170628D01*
X158170666Y-129170628D02*
X157789714Y-129170628D01*
X159313523Y-129646819D02*
X158742095Y-129646819D01*
X159027809Y-129646819D02*
X159027809Y-128646819D01*
X159027809Y-128646819D02*
X158932571Y-128789676D01*
X158932571Y-128789676D02*
X158837333Y-128884914D01*
X158837333Y-128884914D02*
X158742095Y-128932533D01*
X159932571Y-128646819D02*
X160027809Y-128646819D01*
X160027809Y-128646819D02*
X160123047Y-128694438D01*
X160123047Y-128694438D02*
X160170666Y-128742057D01*
X160170666Y-128742057D02*
X160218285Y-128837295D01*
X160218285Y-128837295D02*
X160265904Y-129027771D01*
X160265904Y-129027771D02*
X160265904Y-129265866D01*
X160265904Y-129265866D02*
X160218285Y-129456342D01*
X160218285Y-129456342D02*
X160170666Y-129551580D01*
X160170666Y-129551580D02*
X160123047Y-129599200D01*
X160123047Y-129599200D02*
X160027809Y-129646819D01*
X160027809Y-129646819D02*
X159932571Y-129646819D01*
X159932571Y-129646819D02*
X159837333Y-129599200D01*
X159837333Y-129599200D02*
X159789714Y-129551580D01*
X159789714Y-129551580D02*
X159742095Y-129456342D01*
X159742095Y-129456342D02*
X159694476Y-129265866D01*
X159694476Y-129265866D02*
X159694476Y-129027771D01*
X159694476Y-129027771D02*
X159742095Y-128837295D01*
X159742095Y-128837295D02*
X159789714Y-128742057D01*
X159789714Y-128742057D02*
X159837333Y-128694438D01*
X159837333Y-128694438D02*
X159932571Y-128646819D01*
%TO.C,C30*%
X111294942Y-72266980D02*
X111247323Y-72314600D01*
X111247323Y-72314600D02*
X111104466Y-72362219D01*
X111104466Y-72362219D02*
X111009228Y-72362219D01*
X111009228Y-72362219D02*
X110866371Y-72314600D01*
X110866371Y-72314600D02*
X110771133Y-72219361D01*
X110771133Y-72219361D02*
X110723514Y-72124123D01*
X110723514Y-72124123D02*
X110675895Y-71933647D01*
X110675895Y-71933647D02*
X110675895Y-71790790D01*
X110675895Y-71790790D02*
X110723514Y-71600314D01*
X110723514Y-71600314D02*
X110771133Y-71505076D01*
X110771133Y-71505076D02*
X110866371Y-71409838D01*
X110866371Y-71409838D02*
X111009228Y-71362219D01*
X111009228Y-71362219D02*
X111104466Y-71362219D01*
X111104466Y-71362219D02*
X111247323Y-71409838D01*
X111247323Y-71409838D02*
X111294942Y-71457457D01*
X111628276Y-71362219D02*
X112247323Y-71362219D01*
X112247323Y-71362219D02*
X111913990Y-71743171D01*
X111913990Y-71743171D02*
X112056847Y-71743171D01*
X112056847Y-71743171D02*
X112152085Y-71790790D01*
X112152085Y-71790790D02*
X112199704Y-71838409D01*
X112199704Y-71838409D02*
X112247323Y-71933647D01*
X112247323Y-71933647D02*
X112247323Y-72171742D01*
X112247323Y-72171742D02*
X112199704Y-72266980D01*
X112199704Y-72266980D02*
X112152085Y-72314600D01*
X112152085Y-72314600D02*
X112056847Y-72362219D01*
X112056847Y-72362219D02*
X111771133Y-72362219D01*
X111771133Y-72362219D02*
X111675895Y-72314600D01*
X111675895Y-72314600D02*
X111628276Y-72266980D01*
X112866371Y-71362219D02*
X112961609Y-71362219D01*
X112961609Y-71362219D02*
X113056847Y-71409838D01*
X113056847Y-71409838D02*
X113104466Y-71457457D01*
X113104466Y-71457457D02*
X113152085Y-71552695D01*
X113152085Y-71552695D02*
X113199704Y-71743171D01*
X113199704Y-71743171D02*
X113199704Y-71981266D01*
X113199704Y-71981266D02*
X113152085Y-72171742D01*
X113152085Y-72171742D02*
X113104466Y-72266980D01*
X113104466Y-72266980D02*
X113056847Y-72314600D01*
X113056847Y-72314600D02*
X112961609Y-72362219D01*
X112961609Y-72362219D02*
X112866371Y-72362219D01*
X112866371Y-72362219D02*
X112771133Y-72314600D01*
X112771133Y-72314600D02*
X112723514Y-72266980D01*
X112723514Y-72266980D02*
X112675895Y-72171742D01*
X112675895Y-72171742D02*
X112628276Y-71981266D01*
X112628276Y-71981266D02*
X112628276Y-71743171D01*
X112628276Y-71743171D02*
X112675895Y-71552695D01*
X112675895Y-71552695D02*
X112723514Y-71457457D01*
X112723514Y-71457457D02*
X112771133Y-71409838D01*
X112771133Y-71409838D02*
X112866371Y-71362219D01*
%TO.C,C6*%
X119388887Y-82559411D02*
X119321543Y-82559411D01*
X119321543Y-82559411D02*
X119186856Y-82492067D01*
X119186856Y-82492067D02*
X119119513Y-82424724D01*
X119119513Y-82424724D02*
X119052169Y-82290037D01*
X119052169Y-82290037D02*
X119052169Y-82155350D01*
X119052169Y-82155350D02*
X119085841Y-82054335D01*
X119085841Y-82054335D02*
X119186856Y-81885976D01*
X119186856Y-81885976D02*
X119287871Y-81784961D01*
X119287871Y-81784961D02*
X119456230Y-81683945D01*
X119456230Y-81683945D02*
X119557245Y-81650274D01*
X119557245Y-81650274D02*
X119691932Y-81650274D01*
X119691932Y-81650274D02*
X119826619Y-81717617D01*
X119826619Y-81717617D02*
X119893963Y-81784961D01*
X119893963Y-81784961D02*
X119961306Y-81919648D01*
X119961306Y-81919648D02*
X119961306Y-81986991D01*
X120634741Y-82525739D02*
X120500054Y-82391052D01*
X120500054Y-82391052D02*
X120399039Y-82357380D01*
X120399039Y-82357380D02*
X120331696Y-82357380D01*
X120331696Y-82357380D02*
X120163337Y-82391052D01*
X120163337Y-82391052D02*
X119994978Y-82492067D01*
X119994978Y-82492067D02*
X119725604Y-82761441D01*
X119725604Y-82761441D02*
X119691932Y-82862457D01*
X119691932Y-82862457D02*
X119691932Y-82929800D01*
X119691932Y-82929800D02*
X119725604Y-83030815D01*
X119725604Y-83030815D02*
X119860291Y-83165502D01*
X119860291Y-83165502D02*
X119961306Y-83199174D01*
X119961306Y-83199174D02*
X120028650Y-83199174D01*
X120028650Y-83199174D02*
X120129665Y-83165502D01*
X120129665Y-83165502D02*
X120298024Y-82997144D01*
X120298024Y-82997144D02*
X120331696Y-82896128D01*
X120331696Y-82896128D02*
X120331696Y-82828785D01*
X120331696Y-82828785D02*
X120298024Y-82727770D01*
X120298024Y-82727770D02*
X120163337Y-82593083D01*
X120163337Y-82593083D02*
X120062322Y-82559411D01*
X120062322Y-82559411D02*
X119994978Y-82559411D01*
X119994978Y-82559411D02*
X119893963Y-82593083D01*
%TO.C,D6*%
X133881905Y-136370219D02*
X133881905Y-135370219D01*
X133881905Y-135370219D02*
X134120000Y-135370219D01*
X134120000Y-135370219D02*
X134262857Y-135417838D01*
X134262857Y-135417838D02*
X134358095Y-135513076D01*
X134358095Y-135513076D02*
X134405714Y-135608314D01*
X134405714Y-135608314D02*
X134453333Y-135798790D01*
X134453333Y-135798790D02*
X134453333Y-135941647D01*
X134453333Y-135941647D02*
X134405714Y-136132123D01*
X134405714Y-136132123D02*
X134358095Y-136227361D01*
X134358095Y-136227361D02*
X134262857Y-136322600D01*
X134262857Y-136322600D02*
X134120000Y-136370219D01*
X134120000Y-136370219D02*
X133881905Y-136370219D01*
X135310476Y-135370219D02*
X135120000Y-135370219D01*
X135120000Y-135370219D02*
X135024762Y-135417838D01*
X135024762Y-135417838D02*
X134977143Y-135465457D01*
X134977143Y-135465457D02*
X134881905Y-135608314D01*
X134881905Y-135608314D02*
X134834286Y-135798790D01*
X134834286Y-135798790D02*
X134834286Y-136179742D01*
X134834286Y-136179742D02*
X134881905Y-136274980D01*
X134881905Y-136274980D02*
X134929524Y-136322600D01*
X134929524Y-136322600D02*
X135024762Y-136370219D01*
X135024762Y-136370219D02*
X135215238Y-136370219D01*
X135215238Y-136370219D02*
X135310476Y-136322600D01*
X135310476Y-136322600D02*
X135358095Y-136274980D01*
X135358095Y-136274980D02*
X135405714Y-136179742D01*
X135405714Y-136179742D02*
X135405714Y-135941647D01*
X135405714Y-135941647D02*
X135358095Y-135846409D01*
X135358095Y-135846409D02*
X135310476Y-135798790D01*
X135310476Y-135798790D02*
X135215238Y-135751171D01*
X135215238Y-135751171D02*
X135024762Y-135751171D01*
X135024762Y-135751171D02*
X134929524Y-135798790D01*
X134929524Y-135798790D02*
X134881905Y-135846409D01*
X134881905Y-135846409D02*
X134834286Y-135941647D01*
%TO.C,C7*%
X122251643Y-93412655D02*
X122184299Y-93412655D01*
X122184299Y-93412655D02*
X122049612Y-93345311D01*
X122049612Y-93345311D02*
X121982269Y-93277968D01*
X121982269Y-93277968D02*
X121914925Y-93143281D01*
X121914925Y-93143281D02*
X121914925Y-93008594D01*
X121914925Y-93008594D02*
X121948597Y-92907579D01*
X121948597Y-92907579D02*
X122049612Y-92739220D01*
X122049612Y-92739220D02*
X122150627Y-92638205D01*
X122150627Y-92638205D02*
X122318986Y-92537189D01*
X122318986Y-92537189D02*
X122420001Y-92503518D01*
X122420001Y-92503518D02*
X122554688Y-92503518D01*
X122554688Y-92503518D02*
X122689375Y-92570861D01*
X122689375Y-92570861D02*
X122756719Y-92638205D01*
X122756719Y-92638205D02*
X122824062Y-92772892D01*
X122824062Y-92772892D02*
X122824062Y-92840235D01*
X123127108Y-93008594D02*
X123598513Y-93479998D01*
X123598513Y-93479998D02*
X122588360Y-93884059D01*
%TO.C,HSE1*%
X117236258Y-78224952D02*
X116529151Y-77517845D01*
X116865869Y-77854563D02*
X117269930Y-77450502D01*
X117640319Y-77820891D02*
X116933212Y-77113784D01*
X117909693Y-77484174D02*
X118044380Y-77416830D01*
X118044380Y-77416830D02*
X118212739Y-77248471D01*
X118212739Y-77248471D02*
X118246411Y-77147456D01*
X118246411Y-77147456D02*
X118246411Y-77080112D01*
X118246411Y-77080112D02*
X118212739Y-76979097D01*
X118212739Y-76979097D02*
X118145396Y-76911754D01*
X118145396Y-76911754D02*
X118044380Y-76878082D01*
X118044380Y-76878082D02*
X117977037Y-76878082D01*
X117977037Y-76878082D02*
X117876022Y-76911754D01*
X117876022Y-76911754D02*
X117707663Y-77012769D01*
X117707663Y-77012769D02*
X117606647Y-77046441D01*
X117606647Y-77046441D02*
X117539304Y-77046441D01*
X117539304Y-77046441D02*
X117438289Y-77012769D01*
X117438289Y-77012769D02*
X117370945Y-76945425D01*
X117370945Y-76945425D02*
X117337273Y-76844410D01*
X117337273Y-76844410D02*
X117337273Y-76777067D01*
X117337273Y-76777067D02*
X117370945Y-76676051D01*
X117370945Y-76676051D02*
X117539304Y-76507693D01*
X117539304Y-76507693D02*
X117673991Y-76440349D01*
X118280083Y-76440349D02*
X118515785Y-76204647D01*
X118987189Y-76474021D02*
X118650472Y-76810738D01*
X118650472Y-76810738D02*
X117943365Y-76103632D01*
X117943365Y-76103632D02*
X118280083Y-75766914D01*
X119660624Y-75800586D02*
X119256563Y-76204647D01*
X119458594Y-76002616D02*
X118751487Y-75295510D01*
X118751487Y-75295510D02*
X118785159Y-75463868D01*
X118785159Y-75463868D02*
X118785159Y-75598555D01*
X118785159Y-75598555D02*
X118751487Y-75699571D01*
D15*
%TO.C,SW2*%
X117284667Y-72037800D02*
X117427524Y-72085419D01*
X117427524Y-72085419D02*
X117665619Y-72085419D01*
X117665619Y-72085419D02*
X117760857Y-72037800D01*
X117760857Y-72037800D02*
X117808476Y-71990180D01*
X117808476Y-71990180D02*
X117856095Y-71894942D01*
X117856095Y-71894942D02*
X117856095Y-71799704D01*
X117856095Y-71799704D02*
X117808476Y-71704466D01*
X117808476Y-71704466D02*
X117760857Y-71656847D01*
X117760857Y-71656847D02*
X117665619Y-71609228D01*
X117665619Y-71609228D02*
X117475143Y-71561609D01*
X117475143Y-71561609D02*
X117379905Y-71513990D01*
X117379905Y-71513990D02*
X117332286Y-71466371D01*
X117332286Y-71466371D02*
X117284667Y-71371133D01*
X117284667Y-71371133D02*
X117284667Y-71275895D01*
X117284667Y-71275895D02*
X117332286Y-71180657D01*
X117332286Y-71180657D02*
X117379905Y-71133038D01*
X117379905Y-71133038D02*
X117475143Y-71085419D01*
X117475143Y-71085419D02*
X117713238Y-71085419D01*
X117713238Y-71085419D02*
X117856095Y-71133038D01*
X118189429Y-71085419D02*
X118427524Y-72085419D01*
X118427524Y-72085419D02*
X118618000Y-71371133D01*
X118618000Y-71371133D02*
X118808476Y-72085419D01*
X118808476Y-72085419D02*
X119046572Y-71085419D01*
X119379905Y-71180657D02*
X119427524Y-71133038D01*
X119427524Y-71133038D02*
X119522762Y-71085419D01*
X119522762Y-71085419D02*
X119760857Y-71085419D01*
X119760857Y-71085419D02*
X119856095Y-71133038D01*
X119856095Y-71133038D02*
X119903714Y-71180657D01*
X119903714Y-71180657D02*
X119951333Y-71275895D01*
X119951333Y-71275895D02*
X119951333Y-71371133D01*
X119951333Y-71371133D02*
X119903714Y-71513990D01*
X119903714Y-71513990D02*
X119332286Y-72085419D01*
X119332286Y-72085419D02*
X119951333Y-72085419D01*
D16*
%TO.C,C25*%
X138904636Y-97692800D02*
X138688964Y-97692800D01*
X138904636Y-96972800D02*
X138688964Y-96972800D01*
%TO.C,C4*%
X132948000Y-86788164D02*
X132948000Y-87003836D01*
X132228000Y-86788164D02*
X132228000Y-87003836D01*
%TO.C,C3*%
X122503001Y-79472383D02*
X122655504Y-79319880D01*
X123012118Y-79981500D02*
X123164621Y-79828997D01*
%TO.C,C28*%
X157567201Y-91110401D02*
X157567201Y-91610401D01*
X157817201Y-91360401D02*
X157317201Y-91360401D01*
X157202764Y-91850401D02*
X157067201Y-91850401D01*
X157202764Y-91850401D02*
X158267201Y-92914838D01*
X154811638Y-91850401D02*
X154947201Y-91850401D01*
X154811638Y-91850401D02*
X153747201Y-92914838D01*
X158267201Y-92914838D02*
X158267201Y-96370401D01*
X153747201Y-92914838D02*
X153747201Y-96370401D01*
X158267201Y-96370401D02*
X157067201Y-96370401D01*
X153747201Y-96370401D02*
X154947201Y-96370401D01*
%TO.C,C15*%
X142997600Y-82657836D02*
X142997600Y-82442164D01*
X143717600Y-82657836D02*
X143717600Y-82442164D01*
%TO.C,U8*%
X159476400Y-87674400D02*
X165486400Y-87674400D01*
X161726400Y-94494400D02*
X165486400Y-94494400D01*
X165486400Y-87674400D02*
X165486400Y-88934400D01*
X165486400Y-94494400D02*
X165486400Y-93234400D01*
%TO.C,C20*%
X119626000Y-107270437D02*
X119626000Y-107054765D01*
X120346000Y-107270437D02*
X120346000Y-107054765D01*
%TO.C,R11*%
X156671742Y-132827500D02*
X157146258Y-132827500D01*
X156671742Y-133872500D02*
X157146258Y-133872500D01*
%TO.C,J4*%
X144974000Y-70672000D02*
X144974000Y-69342000D01*
X146304000Y-70672000D02*
X144974000Y-70672000D01*
X147574000Y-70672000D02*
X155254000Y-70672000D01*
X147574000Y-70672000D02*
X147574000Y-68012000D01*
X155254000Y-70672000D02*
X155254000Y-68012000D01*
X147574000Y-68012000D02*
X155254000Y-68012000D01*
%TO.C,U7*%
X106541800Y-99344800D02*
X103091800Y-99344800D01*
X106541800Y-99344800D02*
X108491800Y-99344800D01*
X106541800Y-104464800D02*
X104591800Y-104464800D01*
X106541800Y-104464800D02*
X108491800Y-104464800D01*
%TO.C,R1*%
X123632701Y-75933858D02*
X123632701Y-75459342D01*
X124677701Y-75933858D02*
X124677701Y-75459342D01*
%TO.C,C29*%
X158034800Y-89922236D02*
X158034800Y-89706564D01*
X158754800Y-89922236D02*
X158754800Y-89706564D01*
%TO.C,R5*%
X119902500Y-131080742D02*
X119902500Y-131555258D01*
X118857500Y-131080742D02*
X118857500Y-131555258D01*
%TO.C,FB1*%
X131906990Y-77019543D02*
X132276457Y-77389010D01*
X130867543Y-78058990D02*
X131237010Y-78428457D01*
%TO.C,C18*%
X121156363Y-99368400D02*
X121372035Y-99368400D01*
X121156363Y-100088400D02*
X121372035Y-100088400D01*
%TO.C,R21*%
X115809499Y-98789258D02*
X115809499Y-98314742D01*
X116854499Y-98789258D02*
X116854499Y-98314742D01*
%TO.C,C5*%
X106650200Y-82889036D02*
X106650200Y-82673364D01*
X107370200Y-82889036D02*
X107370200Y-82673364D01*
%TO.C,TER3*%
X169926000Y-114300000D02*
X162306000Y-114300000D01*
X162306000Y-114300000D02*
X162306000Y-124460000D01*
X169926000Y-124460000D02*
X169926000Y-114300000D01*
X163576000Y-124460000D02*
X163576000Y-114300000D01*
X162306000Y-124460000D02*
X169926000Y-124460000D01*
%TO.C,C2*%
X129135228Y-79400351D02*
X129287731Y-79552854D01*
X128626111Y-79909468D02*
X128778614Y-80061971D01*
%TO.C,C19*%
X104349436Y-109376799D02*
X104133764Y-109376799D01*
X104349436Y-108656799D02*
X104133764Y-108656799D01*
%TO.C,TER1*%
X104648000Y-119888000D02*
X97028000Y-119888000D01*
X97028000Y-119888000D02*
X97028000Y-130048000D01*
X104648000Y-130048000D02*
X104648000Y-119888000D01*
X98298000Y-130048000D02*
X98298000Y-119888000D01*
X97028000Y-130048000D02*
X104648000Y-130048000D01*
%TO.C,U1*%
X126101200Y-80929990D02*
X125783002Y-81248188D01*
X125783002Y-81248188D02*
X124870834Y-80336020D01*
X120995889Y-86035301D02*
X121314087Y-85717103D01*
X126419398Y-81248188D02*
X126101200Y-80929990D01*
X121314087Y-86353499D02*
X120995889Y-86035301D01*
X130888313Y-85717103D02*
X131206511Y-86035301D01*
X125783002Y-90822414D02*
X126101200Y-91140612D01*
X131206511Y-86035301D02*
X130888313Y-86353499D01*
X126101200Y-91140612D02*
X126419398Y-90822414D01*
%TO.C,Q2*%
X125311800Y-111593000D02*
X120670800Y-111593000D01*
X125311800Y-111593000D02*
X125311800Y-121833000D01*
X123801800Y-111593000D02*
X123801800Y-121833000D01*
X120670800Y-111593000D02*
X120670800Y-121833000D01*
X125311800Y-114863000D02*
X123801800Y-114863000D01*
X125311800Y-118564000D02*
X123801800Y-118564000D01*
X125311800Y-121833000D02*
X120670800Y-121833000D01*
%TO.C,R4*%
X120156500Y-113300742D02*
X120156500Y-113775258D01*
X119111500Y-113300742D02*
X119111500Y-113775258D01*
%TO.C,R8*%
X108494300Y-106828858D02*
X108494300Y-106354342D01*
X109539300Y-106828858D02*
X109539300Y-106354342D01*
%TO.C,C11*%
X146281548Y-89435000D02*
X146804052Y-89435000D01*
X146281548Y-90905000D02*
X146804052Y-90905000D01*
%TO.C,C1*%
X126093680Y-79355288D02*
X126246183Y-79202785D01*
X126602797Y-79864405D02*
X126755300Y-79711902D01*
%TO.C,R14*%
X142133858Y-103621100D02*
X141659342Y-103621100D01*
X142133858Y-102576100D02*
X141659342Y-102576100D01*
%TO.C,D2*%
X120763999Y-108100199D02*
X122763999Y-108100199D01*
X120763999Y-108100199D02*
X120763999Y-104090199D01*
X122763999Y-108100199D02*
X122763999Y-104090199D01*
%TO.C,J1*%
X168378000Y-78486000D02*
X168378000Y-78106000D01*
X170148000Y-78486000D02*
X168378000Y-78486000D01*
X172688000Y-78486000D02*
X172428000Y-78486000D01*
X168378000Y-70866000D02*
X168378000Y-71246000D01*
X168378000Y-70866000D02*
X170148000Y-70866000D01*
X172428000Y-70866000D02*
X172688000Y-70866000D01*
D17*
%TO.C,U6*%
X114575800Y-103225600D02*
X114575800Y-106070400D01*
X119554200Y-104343200D02*
X119554200Y-103225600D01*
X119554200Y-104952800D02*
X119554200Y-104343200D01*
X119554200Y-106070400D02*
X119554200Y-104952800D01*
X119554200Y-104343200D02*
G75*
G03*
X119554200Y-104952800I0J-304800D01*
G01*
D16*
%TO.C,U2*%
X142762800Y-85826600D02*
X142762800Y-87626600D01*
X142762800Y-85826600D02*
X142762800Y-85026600D01*
X145882800Y-85826600D02*
X145882800Y-86626600D01*
X145882800Y-85826600D02*
X145882800Y-85026600D01*
%TO.C,C13*%
X147476800Y-85972765D02*
X147476800Y-86188437D01*
X146756800Y-85972765D02*
X146756800Y-86188437D01*
%TO.C,R3*%
X126889742Y-71384900D02*
X127364258Y-71384900D01*
X126889742Y-72429900D02*
X127364258Y-72429900D01*
%TO.C,D1*%
X126944000Y-74085500D02*
X125024000Y-74085500D01*
X125024000Y-74085500D02*
X125024000Y-76770500D01*
X126944000Y-76770500D02*
X126944000Y-74085500D01*
%TO.C,R7*%
X129955058Y-102655900D02*
X129480542Y-102655900D01*
X129955058Y-101610900D02*
X129480542Y-101610900D01*
%TO.C,C21*%
X151362236Y-105374800D02*
X151146564Y-105374800D01*
X151362236Y-104654800D02*
X151146564Y-104654800D01*
%TO.C,R17*%
X145832300Y-82253858D02*
X145832300Y-81779342D01*
X146877300Y-82253858D02*
X146877300Y-81779342D01*
%TO.C,Q5*%
X157124000Y-130634500D02*
X157124000Y-132309500D01*
X157124000Y-130634500D02*
X157124000Y-129984500D01*
X160244000Y-130634500D02*
X160244000Y-131284500D01*
X160244000Y-130634500D02*
X160244000Y-129984500D01*
%TO.C,R16*%
X153024502Y-92117141D02*
X153024502Y-92591657D01*
X151979502Y-92117141D02*
X151979502Y-92591657D01*
D15*
%TO.C,L1*%
X129463800Y-114300000D02*
X129463800Y-114147600D01*
X129463800Y-114300000D02*
X129463800Y-124206000D01*
X129463800Y-124206000D02*
X129463800Y-124561600D01*
X129463800Y-124561600D02*
X129463800Y-114300000D01*
X138861800Y-114046000D02*
X138861800Y-124714000D01*
X141401800Y-119380000D02*
G75*
G03*
X141401800Y-119380000I-7112000J0D01*
G01*
D16*
%TO.C,Q3*%
X160996000Y-126270000D02*
X160996000Y-130911000D01*
X160996000Y-126270000D02*
X171236000Y-126270000D01*
X160996000Y-127780000D02*
X171236000Y-127780000D01*
X160996000Y-130911000D02*
X171236000Y-130911000D01*
X164266000Y-126270000D02*
X164266000Y-127780000D01*
X167967000Y-126270000D02*
X167967000Y-127780000D01*
X171236000Y-126270000D02*
X171236000Y-130911000D01*
%TO.C,D5*%
X147426800Y-83803200D02*
X149346800Y-83803200D01*
X149346800Y-83803200D02*
X149346800Y-81118200D01*
X147426800Y-81118200D02*
X147426800Y-83803200D01*
%TO.C,C8*%
X129943452Y-78556207D02*
X130095955Y-78708710D01*
X129434335Y-79065324D02*
X129586838Y-79217827D01*
%TO.C,C24*%
X146740200Y-106857564D02*
X146740200Y-107073236D01*
X146020200Y-106857564D02*
X146020200Y-107073236D01*
%TO.C,R6*%
X131481300Y-103132658D02*
X131481300Y-102658142D01*
X132526300Y-103132658D02*
X132526300Y-102658142D01*
%TO.C,TER2*%
X162260400Y-113665000D02*
X169880400Y-113665000D01*
X169880400Y-113665000D02*
X169880400Y-103505000D01*
X162260400Y-103505000D02*
X162260400Y-113665000D01*
X168610400Y-103505000D02*
X168610400Y-113665000D01*
X169880400Y-103505000D02*
X162260400Y-103505000D01*
%TO.C,C17*%
X121156363Y-100943200D02*
X121372035Y-100943200D01*
X121156363Y-101663200D02*
X121372035Y-101663200D01*
%TO.C,C12*%
X133711836Y-71988000D02*
X133496164Y-71988000D01*
X133711836Y-71268000D02*
X133496164Y-71268000D01*
%TO.C,U3*%
X147401600Y-109499400D02*
X147401600Y-112949400D01*
X147401600Y-109499400D02*
X147401600Y-107549400D01*
X152521600Y-109499400D02*
X152521600Y-111449400D01*
X152521600Y-109499400D02*
X152521600Y-107549400D01*
%TO.C,D4*%
X151491201Y-97341399D02*
X153411201Y-97341399D01*
X153411201Y-97341399D02*
X153411201Y-94656399D01*
X151491201Y-94656399D02*
X151491201Y-97341399D01*
%TO.C,C9*%
X118163943Y-83169318D02*
X118011440Y-83321821D01*
X117654826Y-82660201D02*
X117502323Y-82812704D01*
%TO.C,J3*%
X122393400Y-70672000D02*
X122393400Y-69342000D01*
X123723400Y-70672000D02*
X122393400Y-70672000D01*
X124993400Y-70672000D02*
X130133400Y-70672000D01*
X124993400Y-70672000D02*
X124993400Y-68012000D01*
X130133400Y-70672000D02*
X130133400Y-68012000D01*
X124993400Y-68012000D02*
X130133400Y-68012000D01*
%TO.C,R2*%
X166638500Y-73613742D02*
X166638500Y-74088258D01*
X165593500Y-73613742D02*
X165593500Y-74088258D01*
%TO.C,C22*%
X99445398Y-111476163D02*
X99445398Y-111691835D01*
X98725398Y-111476163D02*
X98725398Y-111691835D01*
%TO.C,R18*%
X117587500Y-98789258D02*
X117587500Y-98314742D01*
X118632500Y-98789258D02*
X118632500Y-98314742D01*
%TO.C,R20*%
X104963700Y-82482458D02*
X104963700Y-82007942D01*
X106008700Y-82482458D02*
X106008700Y-82007942D01*
%TO.C,R19*%
X110733100Y-69448142D02*
X110733100Y-69922658D01*
X109688100Y-69448142D02*
X109688100Y-69922658D01*
%TO.C,C27*%
X159509600Y-95671199D02*
X160009600Y-95671199D01*
X159759600Y-95421199D02*
X159759600Y-95921199D01*
X160249600Y-96035636D02*
X160249600Y-96171199D01*
X160249600Y-96035636D02*
X161314037Y-94971199D01*
X160249600Y-98426762D02*
X160249600Y-98291199D01*
X160249600Y-98426762D02*
X161314037Y-99491199D01*
X161314037Y-94971199D02*
X164769600Y-94971199D01*
X161314037Y-99491199D02*
X164769600Y-99491199D01*
X164769600Y-94971199D02*
X164769600Y-96171199D01*
X164769600Y-99491199D02*
X164769600Y-98291199D01*
%TO.C,R12*%
X100159742Y-102143300D02*
X100634258Y-102143300D01*
X100159742Y-103188300D02*
X100634258Y-103188300D01*
%TO.C,D3*%
X165116000Y-81862000D02*
X167116000Y-81862000D01*
X165116000Y-81862000D02*
X165116000Y-77852000D01*
X167116000Y-81862000D02*
X167116000Y-77852000D01*
%TO.C,U5*%
X136575800Y-98557400D02*
X133125800Y-98557400D01*
X136575800Y-98557400D02*
X138525800Y-98557400D01*
X136575800Y-103677400D02*
X134625800Y-103677400D01*
X136575800Y-103677400D02*
X138525800Y-103677400D01*
%TO.C,FB2*%
X116528457Y-81564190D02*
X116158990Y-81933657D01*
X115489010Y-80524743D02*
X115119543Y-80894210D01*
%TO.C,Q1*%
X120575202Y-132628002D02*
X125216202Y-132628002D01*
X120575202Y-132628002D02*
X120575202Y-122388002D01*
X122085202Y-132628002D02*
X122085202Y-122388002D01*
X125216202Y-132628002D02*
X125216202Y-122388002D01*
X120575202Y-129358002D02*
X122085202Y-129358002D01*
X120575202Y-125657002D02*
X122085202Y-125657002D01*
X120575202Y-122388002D02*
X125216202Y-122388002D01*
%TO.C,R9*%
X106714058Y-106301300D02*
X106239542Y-106301300D01*
X106714058Y-105256300D02*
X106239542Y-105256300D01*
%TO.C,C23*%
X150592000Y-119063200D02*
X150592000Y-120063200D01*
X151092000Y-119563200D02*
X150092000Y-119563200D01*
X151377563Y-120303200D02*
X149592000Y-120303200D01*
X151377563Y-120303200D02*
X152442000Y-121367637D01*
X144786437Y-120303200D02*
X146572000Y-120303200D01*
X144786437Y-120303200D02*
X143722000Y-121367637D01*
X152442000Y-121367637D02*
X152442000Y-129023200D01*
X143722000Y-121367637D02*
X143722000Y-129023200D01*
X152442000Y-129023200D02*
X149592000Y-129023200D01*
X143722000Y-129023200D02*
X146572000Y-129023200D01*
%TO.C,U4*%
X100056000Y-113792000D02*
X100056000Y-117242000D01*
X100056000Y-113792000D02*
X100056000Y-111842000D01*
X105176000Y-113792000D02*
X105176000Y-115742000D01*
X105176000Y-113792000D02*
X105176000Y-111842000D01*
%TO.C,R13*%
X100620300Y-105176858D02*
X100620300Y-104702342D01*
X101665300Y-105176858D02*
X101665300Y-104702342D01*
%TO.C,C26*%
X108848236Y-98683400D02*
X108632564Y-98683400D01*
X108848236Y-97963400D02*
X108632564Y-97963400D01*
%TO.C,C16*%
X114651000Y-118936200D02*
X114651000Y-119936200D01*
X115151000Y-119436200D02*
X114151000Y-119436200D01*
X115436563Y-120176200D02*
X113651000Y-120176200D01*
X115436563Y-120176200D02*
X116501000Y-121240637D01*
X108845437Y-120176200D02*
X110631000Y-120176200D01*
X108845437Y-120176200D02*
X107781000Y-121240637D01*
X116501000Y-121240637D02*
X116501000Y-128896200D01*
X107781000Y-121240637D02*
X107781000Y-128896200D01*
X116501000Y-128896200D02*
X113651000Y-128896200D01*
X107781000Y-128896200D02*
X110631000Y-128896200D01*
%TO.C,R15*%
X139996142Y-104150900D02*
X140470658Y-104150900D01*
X139996142Y-105195900D02*
X140470658Y-105195900D01*
%TO.C,C10*%
X117392918Y-82398293D02*
X117240415Y-82550796D01*
X116883801Y-81889176D02*
X116731298Y-82041679D01*
%TO.C,J2*%
X132919000Y-70672000D02*
X132919000Y-69342000D01*
X134249000Y-70672000D02*
X132919000Y-70672000D01*
X135519000Y-70672000D02*
X143199000Y-70672000D01*
X135519000Y-70672000D02*
X135519000Y-68012000D01*
X143199000Y-70672000D02*
X143199000Y-68012000D01*
X135519000Y-68012000D02*
X143199000Y-68012000D01*
D15*
%TO.C,SW1*%
X102184200Y-75895200D02*
X102184200Y-74879200D01*
X102946200Y-76911200D02*
X102946200Y-77927200D01*
X102946200Y-77927200D02*
X102946200Y-78435200D01*
X102946200Y-78435200D02*
X103708200Y-79705200D01*
X102946200Y-81483200D02*
X102946200Y-79959200D01*
X104422200Y-76197200D02*
X101422200Y-76197200D01*
X101422200Y-76197200D02*
X101422200Y-82197200D01*
X101422200Y-82197200D02*
X104422200Y-82197200D01*
X104422200Y-82197200D02*
X104422200Y-76197200D01*
D16*
%TO.C,C14*%
X139981000Y-83991053D02*
X139981000Y-83468549D01*
X141451000Y-83991053D02*
X141451000Y-83468549D01*
%TO.C,R10*%
X159241258Y-128284500D02*
X158766742Y-128284500D01*
X159241258Y-127239500D02*
X158766742Y-127239500D01*
%TO.C,C30*%
X111880764Y-70329200D02*
X112096436Y-70329200D01*
X111880764Y-71049200D02*
X112096436Y-71049200D01*
%TO.C,C6*%
X121234810Y-81458307D02*
X121082307Y-81610810D01*
X120725693Y-80949190D02*
X120573190Y-81101693D01*
%TO.C,D6*%
X129710000Y-128347400D02*
X138220000Y-128347400D01*
X129710000Y-134847400D02*
X129710000Y-128347400D01*
X129710000Y-134847400D02*
X138220000Y-134847400D01*
%TO.C,C7*%
X123265693Y-92786810D02*
X123113190Y-92634307D01*
X123774810Y-92277693D02*
X123622307Y-92125190D01*
%TO.C,HSE1*%
X122848234Y-78521297D02*
X120514781Y-76187844D01*
X120514781Y-76187844D02*
X117686354Y-79016271D01*
D15*
%TO.C,SW2*%
X112522000Y-69850000D02*
X111506000Y-69850000D01*
X113538000Y-69088000D02*
X114554000Y-69088000D01*
X114554000Y-69088000D02*
X115062000Y-69088000D01*
X115062000Y-69088000D02*
X116332000Y-68326000D01*
X118110000Y-69088000D02*
X116586000Y-69088000D01*
X112824000Y-67612000D02*
X118824000Y-67612000D01*
X118824000Y-67612000D02*
X118824000Y-70612000D01*
X118824000Y-70612000D02*
X112824000Y-70612000D01*
X112824000Y-70612000D02*
X112824000Y-67612000D01*
%TD*%
M02*
